Catastrophe.ufo
<glyph name="exclam" format="1">
  <advance width="260"/>
  <unicode hex="0021"/>
  <outline>
    <contour>
      <point x="183" y="655" type="line"/>
      <point x="155" y="209" type="line"/>
      <point x="105" y="209" type="line"/>
      <point x="70" y="640" type="line"/>
    </contour>
    <component base="period"/>
  </outline>
</glyph>
<glyph name="numbersign" format="1">
  <advance width="520"/>
  <unicode hex="0023"/>
  <outline>
    <contour>
      <point x="45" y="450" type="line"/>
      <point x="510" y="450" type="line"/>
      <point x="510" y="400" type="line"/>
      <point x="45" y="400" type="line"/>
    </contour>
    <contour>
      <point x="10" y="230" type="line"/>
      <point x="475" y="230" type="line"/>
      <point x="475" y="180" type="line"/>
      <point x="10" y="180" type="line"/>
    </contour>
    <contour>
      <point x="386" y="639" type="line"/>
      <point x="435" y="631" type="line"/>
      <point x="322" y="-9" type="line"/>
      <point x="273" y="-1" type="line"/>
    </contour>
    <contour>
      <point x="198" y="639" type="line"/>
      <point x="247" y="631" type="line"/>
      <point x="134" y="-9" type="line"/>
      <point x="85" y="-1" type="line"/>
    </contour>
  </outline>
</glyph>
<glyph name="dollar" format="1">
  <advance width="520"/>
  <unicode hex="0024"/>
  <outline>
    <contour>
      <point x="270" y="635" type="curve" smooth="yes"/>
      <point x="360" y="635"/>
      <point x="405" y="619"/>
      <point x="450" y="600" type="curve"/>
      <point x="450" y="475" type="line"/>
      <point x="405" y="470" type="line"/>
      <point x="390" y="555" type="line"/>
      <point x="355" y="575"/>
      <point x="325" y="588"/>
      <point x="255" y="588" type="curve" smooth="yes"/>
      <point x="180" y="588"/>
      <point x="130" y="550"/>
      <point x="130" y="495" type="curve" smooth="yes"/>
      <point x="130" y="320"/>
      <point x="470" y="420"/>
      <point x="470" y="190" type="curve" smooth="yes"/>
      <point x="470" y="55"/>
      <point x="370" y="0"/>
      <point x="230" y="0" type="curve" smooth="yes"/>
      <point x="160" y="0"/>
      <point x="105" y="10"/>
      <point x="55" y="35" type="curve"/>
      <point x="50" y="175" type="line"/>
      <point x="100" y="180" type="line"/>
      <point x="120" y="80" type="line"/>
      <point x="155" y="55"/>
      <point x="195" y="47"/>
      <point x="240" y="47" type="curve" smooth="yes"/>
      <point x="325" y="47"/>
      <point x="385" y="80"/>
      <point x="385" y="150" type="curve" smooth="yes"/>
      <point x="385" y="325"/>
      <point x="50" y="230"/>
      <point x="50" y="465" type="curve" smooth="yes"/>
      <point x="50" y="550"/>
      <point x="110" y="635"/>
    </contour>
    <contour>
      <point x="210" y="775" type="line"/>
      <point x="290" y="775" type="line"/>
      <point x="275" y="625" type="line"/>
      <point x="225" y="625" type="line"/>
    </contour>
    <contour>
      <point x="220" y="10" type="line"/>
      <point x="270" y="10" type="line"/>
      <point x="285" y="-140" type="line"/>
      <point x="205" y="-140" type="line"/>
    </contour>
  </outline>
</glyph>
<glyph name="percent" format="1">
  <advance width="900"/>
  <unicode hex="0025"/>
  <outline>
    <contour>
      <point x="215" y="595" type="curve" smooth="yes"/>
      <point x="155" y="595"/>
      <point x="120" y="545"/>
      <point x="120" y="460" type="curve" smooth="yes"/>
      <point x="120" y="370"/>
      <point x="155" y="315"/>
      <point x="220" y="315" type="curve" smooth="yes"/>
      <point x="280" y="315"/>
      <point x="315" y="365"/>
      <point x="315" y="450" type="curve" smooth="yes"/>
      <point x="315" y="540"/>
      <point x="280" y="595"/>
    </contour>
    <contour>
      <point x="220" y="270" type="curve" smooth="yes"/>
      <point x="110" y="270"/>
      <point x="50" y="340"/>
      <point x="50" y="450" type="curve" smooth="yes"/>
      <point x="50" y="560"/>
      <point x="115" y="640"/>
      <point x="215" y="640" type="curve" smooth="yes"/>
      <point x="325" y="640"/>
      <point x="385" y="570"/>
      <point x="385" y="460" type="curve" smooth="yes"/>
      <point x="385" y="350"/>
      <point x="320" y="270"/>
    </contour>
    <contour>
      <point x="680" y="315" type="curve" smooth="yes"/>
      <point x="620" y="315"/>
      <point x="585" y="265"/>
      <point x="585" y="180" type="curve" smooth="yes"/>
      <point x="585" y="90"/>
      <point x="620" y="35"/>
      <point x="685" y="35" type="curve" smooth="yes"/>
      <point x="745" y="35"/>
      <point x="780" y="85"/>
      <point x="780" y="170" type="curve" smooth="yes"/>
      <point x="780" y="260"/>
      <point x="745" y="315"/>
    </contour>
    <contour>
      <point x="685" y="-10" type="curve" smooth="yes"/>
      <point x="575" y="-10"/>
      <point x="515" y="60"/>
      <point x="515" y="170" type="curve" smooth="yes"/>
      <point x="515" y="280"/>
      <point x="580" y="360"/>
      <point x="680" y="360" type="curve" smooth="yes"/>
      <point x="790" y="360"/>
      <point x="850" y="290"/>
      <point x="850" y="180" type="curve" smooth="yes"/>
      <point x="850" y="70"/>
      <point x="785" y="-10"/>
    </contour>
    <contour>
      <point x="553" y="640" type="line"/>
      <point x="600" y="621" type="line"/>
      <point x="347" y="-10" type="line"/>
      <point x="300" y="9" type="line"/>
    </contour>
  </outline>
</glyph>
<glyph name="ampersand" format="1">
  <advance width="650"/>
  <unicode hex="0026"/>
  <outline>
    <contour>
      <point x="275" y="375" type="curve"/>
      <point x="470" y="125" type="line"/>
      <point x="549" y="45" type="line"/>
      <point x="620" y="22" type="line"/>
      <point x="620" y="0" type="line"/>
      <point x="440" y="0" type="line"/>
      <point x="370" y="105" type="line"/>
      <point x="195" y="340" type="line"/>
      <point x="150" y="400"/>
      <point x="120" y="445"/>
      <point x="120" y="515" type="curve" smooth="yes"/>
      <point x="120" y="580"/>
      <point x="175" y="640"/>
      <point x="285" y="640" type="curve" smooth="yes"/>
      <point x="390" y="640"/>
      <point x="430" y="580"/>
      <point x="430" y="505" type="curve" smooth="yes"/>
      <point x="430" y="430"/>
      <point x="360" y="375"/>
      <point x="290" y="350" type="curve"/>
      <point x="275" y="375" type="line"/>
      <point x="325" y="410"/>
      <point x="355" y="445"/>
      <point x="355" y="505" type="curve" smooth="yes"/>
      <point x="355" y="555"/>
      <point x="325" y="595"/>
      <point x="275" y="595" type="curve" smooth="yes"/>
      <point x="225" y="595"/>
      <point x="200" y="570"/>
      <point x="200" y="530" type="curve" smooth="yes"/>
      <point x="200" y="480"/>
      <point x="220" y="455"/>
    </contour>
    <contour>
      <point x="400" y="65" type="line"/>
      <point x="370" y="25"/>
      <point x="315" y="-10"/>
      <point x="230" y="-10" type="curve" smooth="yes"/>
      <point x="130" y="-10"/>
      <point x="50" y="45"/>
      <point x="50" y="150" type="curve" smooth="yes"/>
      <point x="50" y="245"/>
      <point x="110" y="310"/>
      <point x="195" y="340" type="curve"/>
      <point x="215" y="315" type="line"/>
      <point x="160" y="280"/>
      <point x="140" y="235"/>
      <point x="140" y="185" type="curve" smooth="yes"/>
      <point x="140" y="115"/>
      <point x="180" y="60"/>
      <point x="260" y="60" type="curve" smooth="yes"/>
      <point x="315" y="60"/>
      <point x="345" y="75"/>
      <point x="370" y="105" type="curve"/>
      <point x="458" y="245" type="line"/>
      <point x="480" y="300" type="line"/>
      <point x="435" y="328" type="line"/>
      <point x="435" y="350" type="line"/>
      <point x="620" y="350" type="line"/>
      <point x="620" y="328" type="line"/>
      <point x="552" y="300" type="line"/>
      <point x="511" y="245" type="line"/>
    </contour>
  </outline>
</glyph>
<glyph name="parenleft" format="1">
  <advance width="325"/>
  <unicode hex="0028"/>
  <outline>
    <contour>
      <point x="125" y="265" type="curve" smooth="yes"/>
      <point x="125" y="85"/>
      <point x="195" y="-65"/>
      <point x="285" y="-140" type="curve"/>
      <point x="270" y="-160" type="line"/>
      <point x="120" y="-80"/>
      <point x="40" y="85"/>
      <point x="40" y="265" type="curve" smooth="yes"/>
      <point x="40" y="445"/>
      <point x="120" y="610"/>
      <point x="270" y="690" type="curve"/>
      <point x="285" y="670" type="line"/>
      <point x="195" y="595"/>
      <point x="125" y="445"/>
    </contour>
  </outline>
</glyph>
<glyph name="asterisk" format="1">
  <advance width="520"/>
  <unicode hex="002A"/>
  <outline>
    <contour>
      <point x="470" y="520" type="line"/>
      <point x="470" y="430" type="line"/>
      <point x="296" y="454" type="line"/>
      <point x="404" y="316" type="line"/>
      <point x="326" y="271" type="line"/>
      <point x="260" y="434" type="line"/>
      <point x="194" y="271" type="line"/>
      <point x="116" y="316" type="line"/>
      <point x="224" y="454" type="line"/>
      <point x="50" y="430" type="line"/>
      <point x="50" y="520" type="line"/>
      <point x="224" y="496" type="line"/>
      <point x="116" y="634" type="line"/>
      <point x="194" y="679" type="line"/>
      <point x="260" y="516" type="line"/>
      <point x="326" y="679" type="line"/>
      <point x="404" y="634" type="line"/>
      <point x="296" y="496" type="line"/>
    </contour>
  </outline>
</glyph>
<glyph name="plus" format="1">
  <advance width="600"/>
  <unicode hex="002B"/>
  <outline>
    <contour>
      <point x="50" y="275" type="line"/>
      <point x="550" y="275" type="line"/>
      <point x="550" y="225" type="line"/>
      <point x="50" y="225" type="line"/>
    </contour>
    <contour>
      <point x="275" y="500" type="line"/>
      <point x="325" y="500" type="line"/>
      <point x="325" y="0" type="line"/>
      <point x="275" y="0" type="line"/>
    </contour>
  </outline>
</glyph>
<glyph name="comma" format="1">
  <advance width="260"/>
  <unicode hex="002C"/>
  <outline>
    <contour>
      <point x="62" y="59" type="curve" smooth="yes"/>
      <point x="62" y="96"/>
      <point x="88" y="126"/>
      <point x="128" y="126" type="curve" smooth="yes"/>
      <point x="172" y="126"/>
      <point x="198" y="93"/>
      <point x="198" y="42" type="curve" smooth="yes"/>
      <point x="198" y="-44"/>
      <point x="149" y="-104"/>
      <point x="91" y="-139" type="curve"/>
      <point x="69" y="-106" type="line"/>
      <point x="102" y="-85"/>
      <point x="139" y="-52"/>
      <point x="135" y="0" type="curve"/>
      <point x="128" y="-2"/>
      <point x="124" y="-3"/>
      <point x="117" y="-3" type="curve" smooth="yes"/>
      <point x="83" y="-3"/>
      <point x="62" y="22"/>
    </contour>
  </outline>
</glyph>
<glyph name="period" format="1">
  <advance width="260"/>
  <unicode hex="002E"/>
  <outline>
    <contour>
      <point x="65" y="55" type="curve" smooth="yes"/>
      <point x="65" y="95"/>
      <point x="90" y="120"/>
      <point x="130" y="120" type="curve" smooth="yes"/>
      <point x="170" y="120"/>
      <point x="195" y="95"/>
      <point x="195" y="55" type="curve" smooth="yes"/>
      <point x="195" y="15"/>
      <point x="170" y="-10"/>
      <point x="130" y="-10" type="curve" smooth="yes"/>
      <point x="90" y="-10"/>
      <point x="65" y="15"/>
    </contour>
  </outline>
</glyph>
<glyph name="slash" format="1">
  <advance width="330"/>
  <unicode hex="002F"/>
  <outline>
    <contour>
      <point x="264" y="678" type="line"/>
      <point x="310" y="661" type="line"/>
      <point x="66" y="-28" type="line"/>
      <point x="20" y="-11" type="line"/>
    </contour>
  </outline>
</glyph>
<glyph name="zero" format="1">
  <advance width="520"/>
  <unicode hex="0030"/>
  <outline>
    <contour>
      <point x="250" y="595" type="curve" smooth="yes"/>
      <point x="180" y="595"/>
      <point x="150" y="497"/>
      <point x="150" y="322" type="curve" smooth="yes"/>
      <point x="150" y="132"/>
      <point x="185" y="35"/>
      <point x="270" y="35" type="curve" smooth="yes"/>
      <point x="340" y="35"/>
      <point x="370" y="133"/>
      <point x="370" y="308" type="curve" smooth="yes"/>
      <point x="370" y="498"/>
      <point x="335" y="595"/>
    </contour>
    <contour>
      <point x="265" y="-10" type="curve" smooth="yes"/>
      <point x="120" y="-10"/>
      <point x="55" y="110"/>
      <point x="55" y="310" type="curve" smooth="yes"/>
      <point x="55" y="510"/>
      <point x="130" y="640"/>
      <point x="255" y="640" type="curve" smooth="yes"/>
      <point x="400" y="640"/>
      <point x="465" y="520"/>
      <point x="465" y="320" type="curve" smooth="yes"/>
      <point x="465" y="120"/>
      <point x="390" y="-10"/>
    </contour>
  </outline>
</glyph>
<glyph name="one" format="1">
  <advance width="520"/>
  <unicode hex="0031"/>
  <outline>
    <contour>
      <point x="220" y="500" type="line"/>
      <point x="215" y="580" type="line"/>
      <point x="90" y="598" type="line"/>
      <point x="90" y="620" type="line"/>
      <point x="315" y="640" type="line"/>
      <point x="305" y="505" type="line"/>
      <point x="305" y="130" type="line"/>
      <point x="320" y="50" type="line"/>
      <point x="440" y="22" type="line"/>
      <point x="440" y="0" type="line"/>
      <point x="70" y="0" type="line"/>
      <point x="70" y="22" type="line"/>
      <point x="205" y="50" type="line"/>
      <point x="220" y="130" type="line"/>
    </contour>
  </outline>
</glyph>
<glyph name="two" format="1">
  <advance width="520"/>
  <unicode hex="0032"/>
  <outline>
    <contour>
      <point x="235" y="640" type="curve" smooth="yes"/>
      <point x="354" y="640"/>
      <point x="420" y="585"/>
      <point x="420" y="445" type="curve" smooth="yes"/>
      <point x="420" y="300"/>
      <point x="246" y="137"/>
      <point x="155" y="75" type="curve"/>
      <point x="360" y="75" type="line"/>
      <point x="450" y="90" type="line"/>
      <point x="440" y="0" type="line"/>
      <point x="60" y="0" type="line"/>
      <point x="50" y="45" type="line"/>
      <point x="200" y="147"/>
      <point x="330" y="280"/>
      <point x="330" y="435" type="curve" smooth="yes"/>
      <point x="330" y="525"/>
      <point x="280" y="567"/>
      <point x="205" y="567" type="curve" smooth="yes"/>
      <point x="142" y="567"/>
      <point x="101" y="536"/>
      <point x="72" y="503" type="curve"/>
      <point x="56" y="516" type="line"/>
      <point x="78" y="567"/>
      <point x="139" y="640"/>
    </contour>
  </outline>
</glyph>
<glyph name="three" format="1">
  <advance width="520"/>
  <unicode hex="0033"/>
  <outline>
    <contour>
      <point x="200" y="295" type="curve"/>
      <point x="195" y="330" type="line"/>
      <point x="285" y="350"/>
      <point x="325" y="390"/>
      <point x="325" y="460" type="curve" smooth="yes"/>
      <point x="325" y="535"/>
      <point x="280" y="570"/>
      <point x="210" y="570" type="curve" smooth="yes"/>
      <point x="145" y="570"/>
      <point x="112" y="533"/>
      <point x="82" y="503" type="curve"/>
      <point x="65" y="515" type="line"/>
      <point x="90" y="565"/>
      <point x="140" y="640"/>
      <point x="245" y="640" type="curve" smooth="yes"/>
      <point x="350" y="640"/>
      <point x="410" y="590"/>
      <point x="410" y="485" type="curve" smooth="yes"/>
      <point x="410" y="410"/>
      <point x="345" y="355"/>
      <point x="295" y="340" type="curve"/>
      <point x="390" y="320"/>
      <point x="440" y="265"/>
      <point x="440" y="175" type="curve" smooth="yes"/>
      <point x="440" y="35"/>
      <point x="310" y="-10"/>
      <point x="210" y="-10" type="curve" smooth="yes"/>
      <point x="170" y="-10"/>
      <point x="115" y="-5"/>
      <point x="50" y="20" type="curve"/>
      <point x="80" y="115" type="line"/>
      <point x="130" y="75"/>
      <point x="190" y="45"/>
      <point x="260" y="45" type="curve" smooth="yes"/>
      <point x="315" y="45"/>
      <point x="355" y="80"/>
      <point x="355" y="140" type="curve" smooth="yes"/>
      <point x="355" y="225"/>
      <point x="300" y="285"/>
    </contour>
  </outline>
</glyph>
<glyph name="four" format="1">
  <advance width="520"/>
  <unicode hex="0034"/>
  <outline>
    <contour>
      <point x="480" y="225" type="line"/>
      <point x="470" y="160" type="line"/>
      <point x="370" y="160" type="line"/>
      <point x="370" y="117" type="line"/>
      <point x="385" y="47" type="line"/>
      <point x="460" y="22" type="line"/>
      <point x="460" y="0" type="line"/>
      <point x="195" y="0" type="line"/>
      <point x="195" y="22" type="line"/>
      <point x="270" y="47" type="line"/>
      <point x="285" y="117" type="line"/>
      <point x="285" y="160" type="line"/>
      <point x="25" y="160" type="line"/>
      <point x="25" y="180" type="line"/>
      <point x="295" y="630" type="line"/>
      <point x="370" y="630" type="line"/>
      <point x="370" y="205" type="line"/>
    </contour>
    <contour>
      <point x="285" y="535" type="line"/>
      <point x="90" y="210" type="line"/>
      <point x="285" y="210" type="line"/>
    </contour>
  </outline>
</glyph>
<glyph name="five" format="1">
  <advance width="520"/>
  <unicode hex="0035"/>
  <outline>
    <contour>
      <point x="350" y="630" type="line"/>
      <point x="430" y="640" type="line"/>
      <point x="420" y="555" type="line"/>
      <point x="155" y="555" type="line"/>
      <point x="148" y="390" type="line"/>
      <point x="398" y="390"/>
      <point x="450" y="285"/>
      <point x="450" y="195" type="curve" smooth="yes"/>
      <point x="450" y="55"/>
      <point x="330" y="-10"/>
      <point x="230" y="-10" type="curve" smooth="yes"/>
      <point x="190" y="-10"/>
      <point x="125" y="-5"/>
      <point x="60" y="20" type="curve"/>
      <point x="90" y="115" type="line"/>
      <point x="145" y="75"/>
      <point x="210" y="50"/>
      <point x="275" y="50" type="curve" smooth="yes"/>
      <point x="330" y="50"/>
      <point x="375" y="90"/>
      <point x="375" y="150" type="curve" smooth="yes"/>
      <point x="375" y="235"/>
      <point x="315" y="315"/>
      <point x="95" y="325" type="curve"/>
      <point x="110" y="630" type="line"/>
    </contour>
  </outline>
</glyph>
<glyph name="six" format="1">
  <advance width="520"/>
  <unicode hex="0036"/>
  <outline>
    <contour>
      <point x="380" y="650" type="curve"/>
      <point x="390" y="620" type="line"/>
      <point x="210" y="565"/>
      <point x="145" y="430"/>
      <point x="145" y="230" type="curve" smooth="yes"/>
      <point x="145" y="100"/>
      <point x="190" y="35"/>
      <point x="255" y="35" type="curve" smooth="yes"/>
      <point x="330" y="35"/>
      <point x="370" y="95"/>
      <point x="370" y="190" type="curve" smooth="yes"/>
      <point x="370" y="295"/>
      <point x="336" y="332"/>
      <point x="260" y="332" type="curve" smooth="yes"/>
      <point x="214" y="332"/>
      <point x="166" y="301"/>
      <point x="145" y="261" type="curve"/>
      <point x="140" y="291" type="line"/>
      <point x="164" y="346"/>
      <point x="224" y="405"/>
      <point x="297" y="405" type="curve" smooth="yes"/>
      <point x="400" y="405"/>
      <point x="460" y="344"/>
      <point x="460" y="212" type="curve" smooth="yes"/>
      <point x="460" y="77"/>
      <point x="360" y="-10"/>
      <point x="250" y="-10" type="curve" smooth="yes"/>
      <point x="140" y="-10"/>
      <point x="55" y="62"/>
      <point x="55" y="219" type="curve" smooth="yes"/>
      <point x="55" y="437"/>
      <point x="160" y="615"/>
    </contour>
  </outline>
</glyph>
<glyph name="seven" format="1">
  <advance width="520"/>
  <unicode hex="0037"/>
  <outline>
    <contour>
      <point x="75" y="630" type="line"/>
      <point x="450" y="630" type="line"/>
      <point x="455" y="610" type="line"/>
      <point x="285" y="170" type="line"/>
      <point x="235" y="-15" type="line"/>
      <point x="135" y="15" type="line"/>
      <point x="220" y="190" type="line"/>
      <point x="390" y="555" type="line"/>
      <point x="175" y="555" type="line"/>
      <point x="65" y="545" type="line"/>
    </contour>
  </outline>
</glyph>
<glyph name="eight" format="1">
  <advance width="520"/>
  <unicode hex="0038"/>
  <outline>
    <contour>
      <point x="245" y="-10" type="curve" smooth="yes"/>
      <point x="135" y="-10"/>
      <point x="65" y="55"/>
      <point x="65" y="145" type="curve" smooth="yes"/>
      <point x="65" y="240"/>
      <point x="130" y="295"/>
      <point x="215" y="320" type="curve"/>
      <point x="230" y="295" type="line"/>
      <point x="170" y="265"/>
      <point x="140" y="225"/>
      <point x="140" y="150" type="curve" smooth="yes"/>
      <point x="140" y="80"/>
      <point x="200" y="35"/>
      <point x="260" y="35" type="curve" smooth="yes"/>
      <point x="330" y="35"/>
      <point x="370" y="80"/>
      <point x="370" y="150" type="curve" smooth="yes"/>
      <point x="370" y="220"/>
      <point x="336" y="256"/>
      <point x="230" y="295" type="curve" smooth="yes"/>
      <point x="126" y="333"/>
      <point x="70" y="385"/>
      <point x="70" y="480" type="curve" smooth="yes"/>
      <point x="70" y="570"/>
      <point x="140" y="640"/>
      <point x="260" y="640" type="curve" smooth="yes"/>
      <point x="365" y="640"/>
      <point x="425" y="570"/>
      <point x="425" y="495" type="curve" smooth="yes"/>
      <point x="425" y="420"/>
      <point x="370" y="360"/>
      <point x="300" y="340" type="curve"/>
      <point x="285" y="365" type="line"/>
      <point x="335" y="395"/>
      <point x="350" y="435"/>
      <point x="350" y="495" type="curve" smooth="yes"/>
      <point x="350" y="550"/>
      <point x="310" y="595"/>
      <point x="250" y="595" type="curve" smooth="yes"/>
      <point x="180" y="595"/>
      <point x="150" y="550"/>
      <point x="150" y="495" type="curve" smooth="yes"/>
      <point x="150" y="430"/>
      <point x="186" y="399"/>
      <point x="285" y="365" type="curve" smooth="yes"/>
      <point x="396" y="327"/>
      <point x="455" y="265"/>
      <point x="455" y="175" type="curve" smooth="yes"/>
      <point x="455" y="65"/>
      <point x="380" y="-10"/>
    </contour>
  </outline>
</glyph>
<glyph name="nine" format="1">
  <advance width="520"/>
  <unicode hex="0039"/>
  <outline>
    <contour>
      <point x="270" y="640" type="curve" smooth="yes"/>
      <point x="380" y="640"/>
      <point x="460" y="568"/>
      <point x="460" y="411" type="curve" smooth="yes"/>
      <point x="460" y="193"/>
      <point x="345" y="40"/>
      <point x="140" y="-10" type="curve"/>
      <point x="130" y="20" type="line"/>
      <point x="295" y="80"/>
      <point x="370" y="200"/>
      <point x="370" y="400" type="curve" smooth="yes"/>
      <point x="370" y="530"/>
      <point x="330" y="595"/>
      <point x="265" y="595" type="curve" smooth="yes"/>
      <point x="190" y="595"/>
      <point x="150" y="535"/>
      <point x="150" y="445" type="curve" smooth="yes"/>
      <point x="150" y="345"/>
      <point x="199" y="308"/>
      <point x="270" y="308" type="curve" smooth="yes"/>
      <point x="311" y="308"/>
      <point x="349" y="329"/>
      <point x="370" y="374" type="curve"/>
      <point x="375" y="344" type="line"/>
      <point x="351" y="284"/>
      <point x="301" y="240"/>
      <point x="233" y="240" type="curve" smooth="yes"/>
      <point x="135" y="240"/>
      <point x="60" y="296"/>
      <point x="60" y="423" type="curve" smooth="yes"/>
      <point x="60" y="553"/>
      <point x="160" y="640"/>
    </contour>
  </outline>
</glyph>
<glyph name="less" format="1">
  <advance width="475"/>
  <unicode hex="003C"/>
  <outline>
    <contour>
      <point x="100" y="250" type="line"/>
      <point x="340" y="490" type="line"/>
      <point x="375" y="455" type="line"/>
      <point x="170" y="250" type="line"/>
      <point x="375" y="45" type="line"/>
      <point x="340" y="10" type="line"/>
    </contour>
  </outline>
</glyph>
<glyph name="equal" format="1">
  <advance width="540"/>
  <unicode hex="003D"/>
  <outline>
    <contour>
      <point x="50" y="370" type="line"/>
      <point x="490" y="370" type="line"/>
      <point x="490" y="320" type="line"/>
      <point x="50" y="320" type="line"/>
    </contour>
    <contour>
      <point x="50" y="180" type="line"/>
      <point x="490" y="180" type="line"/>
      <point x="490" y="130" type="line"/>
      <point x="50" y="130" type="line"/>
    </contour>
  </outline>
</glyph>
<glyph name="question" format="1">
  <advance width="460"/>
  <unicode hex="003F"/>
  <outline>
    <contour>
      <point x="200" y="660" type="curve" smooth="yes"/>
      <point x="330" y="660"/>
      <point x="400" y="580"/>
      <point x="400" y="460" type="curve" smooth="yes"/>
      <point x="400" y="360"/>
      <point x="315" y="300"/>
      <point x="200" y="260" type="curve"/>
      <point x="200" y="205" type="line"/>
      <point x="175" y="200" type="line"/>
      <point x="135" y="340" type="line"/>
      <point x="250" y="365"/>
      <point x="345" y="400"/>
      <point x="345" y="475" type="curve" smooth="yes"/>
      <point x="345" y="535"/>
      <point x="295" y="570"/>
      <point x="230" y="570" type="curve" smooth="yes"/>
      <point x="175" y="570"/>
      <point x="145" y="565"/>
      <point x="90" y="545" type="curve"/>
      <point x="60" y="640" type="line"/>
      <point x="125" y="655"/>
      <point x="160" y="660"/>
    </contour>
    <component base="period" xOffset="60"/>
  </outline>
</glyph>
<glyph name="at" format="1">
  <advance width="930"/>
  <unicode hex="0040"/>
  <outline>
    <contour>
      <point x="550" y="0" type="curve"/>
      <point x="555" y="95" type="line"/>
      <point x="550" y="170" type="line"/>
      <point x="550" y="265" type="line" smooth="yes"/>
      <point x="550" y="348"/>
      <point x="515" y="382"/>
      <point x="450" y="382" type="curve" smooth="yes"/>
      <point x="402" y="382"/>
      <point x="371" y="361"/>
      <point x="342" y="333" type="curve"/>
      <point x="326" y="346" type="line"/>
      <point x="348" y="397"/>
      <point x="400" y="450"/>
      <point x="480" y="450" type="curve" smooth="yes"/>
      <point x="585" y="450"/>
      <point x="635" y="410"/>
      <point x="635" y="280" type="curve" smooth="yes"/>
      <point x="635" y="125" type="line"/>
      <point x="650" y="55" type="line"/>
      <point x="706" y="55"/>
      <point x="810" y="114"/>
      <point x="810" y="280" type="curve" smooth="yes"/>
      <point x="810" y="467"/>
      <point x="690" y="600"/>
      <point x="480" y="600" type="curve" smooth="yes"/>
      <point x="290" y="600"/>
      <point x="125" y="440"/>
      <point x="125" y="205" type="curve" smooth="yes"/>
      <point x="125" y="-35"/>
      <point x="284" y="-165"/>
      <point x="479" y="-165" type="curve" smooth="yes"/>
      <point x="609" y="-165"/>
      <point x="695" y="-120"/>
      <point x="760" y="-65" type="curve"/>
      <point x="780" y="-90" type="line"/>
      <point x="720" y="-145"/>
      <point x="614" y="-210"/>
      <point x="464" y="-210" type="curve" smooth="yes"/>
      <point x="239" y="-210"/>
      <point x="60" y="-70"/>
      <point x="60" y="190" type="curve" smooth="yes"/>
      <point x="60" y="440"/>
      <point x="255" y="640"/>
      <point x="500" y="640" type="curve" smooth="yes"/>
      <point x="750" y="640"/>
      <point x="870" y="485"/>
      <point x="870" y="300" type="curve" smooth="yes"/>
      <point x="870" y="90"/>
      <point x="725" y="0"/>
    </contour>
    <contour>
      <point x="550" y="248" type="curve"/>
      <point x="550" y="213" type="line"/>
      <point x="420" y="213"/>
      <point x="395" y="185"/>
      <point x="395" y="132" type="curve" smooth="yes"/>
      <point x="395" y="89"/>
      <point x="417" y="65"/>
      <point x="457" y="65" type="curve" smooth="yes"/>
      <point x="497" y="65"/>
      <point x="550" y="93"/>
      <point x="550" y="170" type="curve"/>
      <point x="555" y="95" type="line"/>
      <point x="535" y="46"/>
      <point x="487" y="0"/>
      <point x="422" y="0" type="curve" smooth="yes"/>
      <point x="344" y="0"/>
      <point x="300" y="46"/>
      <point x="300" y="110" type="curve" smooth="yes"/>
      <point x="300" y="190"/>
      <point x="362" y="248"/>
    </contour>
  </outline>
</glyph>
<glyph name="A" format="1">
  <advance width="660"/>
  <unicode hex="0041"/>
  <outline>
    <contour>
      <point x="320" y="0" type="move" name="bottom"/>
    </contour>
    <contour>
      <point x="325" y="630" type="move" name="top"/>
    </contour>
    <contour>
      <point x="181" y="275" type="line"/>
      <point x="444" y="275" type="line"/>
      <point x="444" y="235" type="line"/>
      <point x="181" y="235" type="line"/>
    </contour>
    <contour>
      <point x="296" y="660" type="line"/>
      <point x="366" y="660" type="line"/>
      <point x="560" y="127" type="line"/>
      <point x="600" y="47" type="line"/>
      <point x="660" y="22" type="line"/>
      <point x="660" y="0" type="line"/>
      <point x="422" y="0" type="line"/>
      <point x="422" y="22" type="line"/>
      <point x="482" y="47" type="line"/>
      <point x="462" y="127" type="line"/>
      <point x="307" y="564" type="line"/>
      <point x="157" y="127" type="line"/>
      <point x="144" y="47" type="line"/>
      <point x="208" y="22" type="line"/>
      <point x="208" y="0" type="line"/>
      <point x="0" y="0" type="line"/>
      <point x="0" y="22" type="line"/>
      <point x="64" y="47" type="line"/>
      <point x="107" y="127" type="line"/>
    </contour>
  </outline>
</glyph>
<glyph name="B" format="1">
  <advance width="600"/>
  <unicode hex="0042"/>
  <outline>
    <contour>
      <point x="540" y="190" type="curve" smooth="yes"/>
      <point x="540" y="81"/>
      <point x="462" y="0"/>
      <point x="320" y="0" type="curve" smooth="yes"/>
      <point x="30" y="0" type="line"/>
      <point x="30" y="22" type="line"/>
      <point x="105" y="47" type="line"/>
      <point x="120" y="127" type="line"/>
      <point x="120" y="523" type="line"/>
      <point x="105" y="603" type="line"/>
      <point x="35" y="628" type="line"/>
      <point x="35" y="650" type="line"/>
      <point x="305" y="650" type="line" smooth="yes"/>
      <point x="450" y="650"/>
      <point x="510" y="598"/>
      <point x="510" y="500" type="curve" smooth="yes"/>
      <point x="510" y="406"/>
      <point x="444" y="366"/>
      <point x="380" y="350" type="curve"/>
      <point x="461" y="343"/>
      <point x="540" y="288"/>
    </contour>
    <contour>
      <point x="440" y="190" type="curve" smooth="yes"/>
      <point x="440" y="301"/>
      <point x="357" y="320"/>
      <point x="270" y="320" type="curve" smooth="yes"/>
      <point x="210" y="320" type="line"/>
      <point x="210" y="360" type="line"/>
      <point x="270" y="360" type="line" smooth="yes"/>
      <point x="364" y="360"/>
      <point x="410" y="420"/>
      <point x="410" y="500" type="curve" smooth="yes"/>
      <point x="410" y="568"/>
      <point x="377" y="610"/>
      <point x="270" y="610" type="curve" smooth="yes"/>
      <point x="210" y="610" type="line"/>
      <point x="210" y="50" type="line"/>
      <point x="280" y="40" type="line"/>
      <point x="295" y="40" type="line" smooth="yes"/>
      <point x="381" y="40"/>
      <point x="440" y="89"/>
    </contour>
  </outline>
</glyph>
<glyph name="C" format="1">
  <advance width="625"/>
  <unicode hex="0043"/>
  <outline>
    <contour>
      <point x="365" y="650" type="move" name="top"/>
    </contour>
    <contour>
      <point x="365" y="0" type="move" name="bottom"/>
    </contour>
    <contour>
      <point x="385" y="37" type="curve" smooth="yes"/>
      <point x="437" y="37"/>
      <point x="468" y="46"/>
      <point x="514" y="66" type="curve"/>
      <point x="529" y="165" type="line"/>
      <point x="575" y="160" type="line"/>
      <point x="565" y="15" type="line"/>
      <point x="515" y="0"/>
      <point x="448" y="-10"/>
      <point x="375" y="-10" type="curve" smooth="yes"/>
      <point x="153" y="-10"/>
      <point x="45" y="120"/>
      <point x="45" y="320" type="curve" smooth="yes"/>
      <point x="45" y="520"/>
      <point x="165" y="660"/>
      <point x="365" y="660" type="curve" smooth="yes"/>
      <point x="437" y="660"/>
      <point x="510" y="650"/>
      <point x="560" y="635" type="curve"/>
      <point x="565" y="490" type="line"/>
      <point x="520" y="487" type="line"/>
      <point x="505" y="580" type="line"/>
      <point x="465" y="598"/>
      <point x="429" y="613"/>
      <point x="355" y="613" type="curve" smooth="yes"/>
      <point x="215" y="613"/>
      <point x="150" y="497"/>
      <point x="150" y="332" type="curve" smooth="yes"/>
      <point x="150" y="152"/>
      <point x="225" y="37"/>
    </contour>
  </outline>
</glyph>
<glyph name="D" format="1">
  <advance width="680"/>
  <unicode hex="0044"/>
  <outline>
    <contour>
      <point x="35" y="650" type="line"/>
      <point x="325" y="650" type="line" smooth="yes"/>
      <point x="547" y="650"/>
      <point x="650" y="560"/>
      <point x="650" y="340" type="curve" smooth="yes"/>
      <point x="650" y="120"/>
      <point x="520" y="0"/>
      <point x="320" y="0" type="curve" smooth="yes"/>
      <point x="30" y="0" type="line"/>
      <point x="30" y="22" type="line"/>
      <point x="105" y="47" type="line"/>
      <point x="120" y="127" type="line"/>
      <point x="120" y="523" type="line"/>
      <point x="105" y="603" type="line"/>
      <point x="35" y="628" type="line"/>
    </contour>
    <contour>
      <point x="210" y="610" type="line"/>
      <point x="210" y="55" type="line"/>
      <point x="290" y="40" type="line"/>
      <point x="315" y="40" type="line" smooth="yes"/>
      <point x="445" y="40"/>
      <point x="545" y="120"/>
      <point x="545" y="325" type="curve" smooth="yes"/>
      <point x="545" y="530"/>
      <point x="465" y="610"/>
      <point x="315" y="610" type="curve" smooth="yes"/>
    </contour>
  </outline>
</glyph>
<glyph name="E" format="1">
  <advance width="570"/>
  <unicode hex="0045"/>
  <outline>
    <contour>
      <point x="210" y="350" type="line"/>
      <point x="285" y="350" type="line"/>
      <point x="365" y="360" type="line"/>
      <point x="380" y="440" type="line"/>
      <point x="412" y="440" type="line"/>
      <point x="412" y="220" type="line"/>
      <point x="380" y="220" type="line"/>
      <point x="365" y="300" type="line"/>
      <point x="285" y="310" type="line"/>
      <point x="210" y="310" type="line"/>
    </contour>
    <contour>
      <point x="35" y="650" type="line"/>
      <point x="503" y="650" type="line"/>
      <point x="510" y="506" type="line"/>
      <point x="470" y="502" type="line"/>
      <point x="447" y="595" type="line"/>
      <point x="367" y="610" type="line"/>
      <point x="210" y="610" type="line"/>
      <point x="210" y="55" type="line"/>
      <point x="290" y="40" type="line"/>
      <point x="387" y="40" type="line"/>
      <point x="467" y="55" type="line"/>
      <point x="492" y="148" type="line"/>
      <point x="533" y="143" type="line"/>
      <point x="523" y="0" type="line"/>
      <point x="30" y="0" type="line"/>
      <point x="30" y="22" type="line"/>
      <point x="105" y="47" type="line"/>
      <point x="120" y="127" type="line"/>
      <point x="120" y="523" type="line"/>
      <point x="105" y="603" type="line"/>
      <point x="35" y="628" type="line"/>
    </contour>
  </outline>
</glyph>
<glyph name="F" format="1">
  <advance width="530"/>
  <unicode hex="0046"/>
  <outline>
    <contour>
      <point x="35" y="650" type="line"/>
      <point x="488" y="650" type="line"/>
      <point x="490" y="506" type="line"/>
      <point x="450" y="502" type="line"/>
      <point x="432" y="595" type="line"/>
      <point x="352" y="610" type="line"/>
      <point x="210" y="610" type="line"/>
      <point x="210" y="127" type="line"/>
      <point x="225" y="47" type="line"/>
      <point x="310" y="22" type="line"/>
      <point x="310" y="0" type="line"/>
      <point x="30" y="0" type="line"/>
      <point x="30" y="22" type="line"/>
      <point x="105" y="47" type="line"/>
      <point x="120" y="127" type="line"/>
      <point x="120" y="523" type="line"/>
      <point x="105" y="603" type="line"/>
      <point x="35" y="628" type="line"/>
    </contour>
    <contour>
      <point x="210" y="340" type="line"/>
      <point x="295" y="340" type="line"/>
      <point x="375" y="350" type="line"/>
      <point x="390" y="430" type="line"/>
      <point x="422" y="430" type="line"/>
      <point x="422" y="210" type="line"/>
      <point x="390" y="210" type="line"/>
      <point x="375" y="290" type="line"/>
      <point x="295" y="300" type="line"/>
      <point x="210" y="300" type="line"/>
    </contour>
  </outline>
</glyph>
<glyph name="G" format="1">
  <advance width="700"/>
  <unicode hex="0047"/>
  <outline>
    <contour>
      <point x="365" y="0" type="move" name="bottom"/>
    </contour>
    <contour>
      <point x="365" y="650" type="move" name="top"/>
    </contour>
    <contour>
      <point x="505" y="178" type="line"/>
      <point x="495" y="248" type="line"/>
      <point x="425" y="273" type="line"/>
      <point x="425" y="295" type="line"/>
      <point x="675" y="295" type="line"/>
      <point x="675" y="273" type="line"/>
      <point x="605" y="248" type="line"/>
      <point x="595" y="178" type="line"/>
      <point x="595" y="28" type="line"/>
      <point x="532" y="7"/>
      <point x="479" y="-10"/>
      <point x="385" y="-10" type="curve" smooth="yes"/>
      <point x="158" y="-10"/>
      <point x="45" y="120"/>
      <point x="45" y="320" type="curve" smooth="yes"/>
      <point x="45" y="520"/>
      <point x="165" y="660"/>
      <point x="365" y="660" type="curve" smooth="yes"/>
      <point x="457" y="660"/>
      <point x="533" y="647"/>
      <point x="583" y="627" type="curve"/>
      <point x="588" y="486" type="line"/>
      <point x="540" y="482" type="line"/>
      <point x="525" y="572" type="line"/>
      <point x="485" y="595"/>
      <point x="449" y="613"/>
      <point x="355" y="613" type="curve" smooth="yes"/>
      <point x="215" y="613"/>
      <point x="150" y="497"/>
      <point x="150" y="332" type="curve" smooth="yes"/>
      <point x="150" y="152"/>
      <point x="230" y="37"/>
      <point x="395" y="37" type="curve" smooth="yes"/>
      <point x="446" y="37"/>
      <point x="479" y="46"/>
      <point x="505" y="56" type="curve"/>
    </contour>
  </outline>
</glyph>
<glyph name="H" format="1">
  <advance width="740"/>
  <unicode hex="0048"/>
  <outline>
    <contour>
      <point x="210" y="350" type="line"/>
      <point x="530" y="350" type="line"/>
      <point x="530" y="310" type="line"/>
      <point x="210" y="310" type="line"/>
    </contour>
    <contour>
      <point x="530" y="523" type="line"/>
      <point x="515" y="603" type="line"/>
      <point x="450" y="628" type="line"/>
      <point x="450" y="650" type="line"/>
      <point x="705" y="650" type="line"/>
      <point x="705" y="628" type="line"/>
      <point x="635" y="603" type="line"/>
      <point x="620" y="523" type="line"/>
      <point x="620" y="127" type="line"/>
      <point x="635" y="47" type="line"/>
      <point x="710" y="22" type="line"/>
      <point x="710" y="0" type="line"/>
      <point x="445" y="0" type="line"/>
      <point x="445" y="22" type="line"/>
      <point x="515" y="47" type="line"/>
      <point x="530" y="127" type="line"/>
    </contour>
    <contour>
      <point x="120" y="523" type="line"/>
      <point x="105" y="603" type="line"/>
      <point x="35" y="628" type="line"/>
      <point x="35" y="650" type="line"/>
      <point x="290" y="650" type="line"/>
      <point x="290" y="628" type="line"/>
      <point x="225" y="603" type="line"/>
      <point x="210" y="523" type="line"/>
      <point x="210" y="127" type="line"/>
      <point x="225" y="47" type="line"/>
      <point x="295" y="22" type="line"/>
      <point x="295" y="0" type="line"/>
      <point x="30" y="0" type="line"/>
      <point x="30" y="22" type="line"/>
      <point x="105" y="47" type="line"/>
      <point x="120" y="127" type="line"/>
    </contour>
  </outline>
</glyph>
<glyph name="I" format="1">
  <advance width="330"/>
  <unicode hex="0049"/>
  <outline>
    <contour>
      <point x="35" y="650" type="line"/>
      <point x="295" y="650" type="line"/>
      <point x="295" y="628" type="line"/>
      <point x="225" y="603" type="line"/>
      <point x="210" y="543" type="line"/>
      <point x="210" y="127" type="line"/>
      <point x="225" y="47" type="line"/>
      <point x="300" y="22" type="line"/>
      <point x="300" y="0" type="line"/>
      <point x="30" y="0" type="line"/>
      <point x="30" y="22" type="line"/>
      <point x="105" y="47" type="line"/>
      <point x="120" y="127" type="line"/>
      <point x="120" y="543" type="line"/>
      <point x="105" y="603" type="line"/>
      <point x="35" y="628" type="line"/>
    </contour>
  </outline>
</glyph>
<glyph name="J" format="1">
  <advance width="310"/>
  <unicode hex="004A"/>
  <outline>
    <contour>
      <point x="210" y="80" type="line" smooth="yes"/>
      <point x="210" y="-113"/>
      <point x="129" y="-190"/>
      <point x="46" y="-190" type="curve" smooth="yes"/>
      <point x="20" y="-190"/>
      <point x="-10" y="-185"/>
      <point x="-35" y="-175" type="curve"/>
      <point x="-14" y="-77" type="line"/>
      <point x="22" y="-88"/>
      <point x="63" y="-97"/>
      <point x="89" y="-97" type="curve" smooth="yes"/>
      <point x="114" y="-97"/>
      <point x="137" y="-84"/>
      <point x="137" y="-50" type="curve" smooth="yes"/>
      <point x="137" y="-20"/>
      <point x="120" y="63"/>
      <point x="120" y="110" type="curve" smooth="yes"/>
      <point x="120" y="523" type="line"/>
      <point x="105" y="603" type="line"/>
      <point x="30" y="628" type="line"/>
      <point x="30" y="650" type="line"/>
      <point x="290" y="650" type="line"/>
      <point x="290" y="628" type="line"/>
      <point x="225" y="603" type="line"/>
      <point x="210" y="523" type="line"/>
    </contour>
  </outline>
</glyph>
<glyph name="K" format="1">
  <advance width="630"/>
  <unicode hex="004B"/>
  <outline>
    <contour>
      <point x="559" y="45" type="line"/>
      <point x="630" y="22" type="line"/>
      <point x="630" y="0" type="line"/>
      <point x="450" y="0" type="line"/>
      <point x="381" y="105" type="line"/>
      <point x="225" y="320" type="line"/>
      <point x="418" y="545" type="line"/>
      <point x="455" y="600" type="line"/>
      <point x="400" y="628" type="line"/>
      <point x="400" y="650" type="line"/>
      <point x="615" y="650" type="line"/>
      <point x="615" y="628" type="line"/>
      <point x="547" y="600" type="line"/>
      <point x="480" y="545" type="line"/>
      <point x="310" y="355" type="line"/>
      <point x="480" y="130" type="line"/>
    </contour>
    <contour>
      <point x="120" y="523" type="line"/>
      <point x="105" y="603" type="line"/>
      <point x="35" y="628" type="line"/>
      <point x="35" y="650" type="line"/>
      <point x="295" y="650" type="line"/>
      <point x="295" y="628" type="line"/>
      <point x="225" y="603" type="line"/>
      <point x="210" y="523" type="line"/>
      <point x="210" y="127" type="line"/>
      <point x="225" y="47" type="line"/>
      <point x="300" y="22" type="line"/>
      <point x="300" y="0" type="line"/>
      <point x="30" y="0" type="line"/>
      <point x="30" y="22" type="line"/>
      <point x="105" y="47" type="line"/>
      <point x="120" y="127" type="line"/>
    </contour>
  </outline>
</glyph>
<glyph name="L" format="1">
  <advance width="540"/>
  <unicode hex="004C"/>
  <outline>
    <contour>
      <point x="175" y="650" type="move" name="top"/>
    </contour>
    <contour>
      <point x="295" y="0" type="move" name="bottom"/>
    </contour>
    <contour>
      <point x="210" y="523" type="line"/>
      <point x="210" y="55" type="line"/>
      <point x="290" y="40" type="line"/>
      <point x="374" y="40" type="line"/>
      <point x="454" y="55" type="line"/>
      <point x="475" y="155" type="line"/>
      <point x="520" y="153" type="line"/>
      <point x="510" y="0" type="line"/>
      <point x="30" y="0" type="line"/>
      <point x="30" y="22" type="line"/>
      <point x="105" y="47" type="line"/>
      <point x="120" y="127" type="line"/>
      <point x="120" y="523" type="line"/>
      <point x="105" y="603" type="line"/>
      <point x="35" y="628" type="line"/>
      <point x="35" y="650" type="line"/>
      <point x="295" y="650" type="line"/>
      <point x="295" y="628" type="line"/>
      <point x="225" y="603" type="line"/>
    </contour>
  </outline>
</glyph>
<glyph name="M" format="1">
  <advance width="870"/>
  <unicode hex="004D"/>
  <outline>
    <contour>
      <point x="35" y="650" type="line"/>
      <point x="261" y="650" type="line"/>
      <point x="286" y="550" type="line"/>
      <point x="441" y="117" type="line"/>
      <point x="593" y="550" type="line"/>
      <point x="618" y="650" type="line"/>
      <point x="835" y="650" type="line"/>
      <point x="835" y="628" type="line"/>
      <point x="765" y="603" type="line"/>
      <point x="750" y="523" type="line"/>
      <point x="750" y="127" type="line"/>
      <point x="765" y="47" type="line"/>
      <point x="840" y="22" type="line"/>
      <point x="840" y="0" type="line"/>
      <point x="580" y="0" type="line"/>
      <point x="580" y="22" type="line"/>
      <point x="645" y="47" type="line"/>
      <point x="660" y="127" type="line"/>
      <point x="660" y="596" type="line"/>
      <point x="487" y="110" type="line"/>
      <point x="451" y="0" type="line"/>
      <point x="386" y="0" type="line"/>
      <point x="349" y="110" type="line"/>
      <point x="170" y="585" type="line"/>
      <point x="170" y="127" type="line"/>
      <point x="185" y="47" type="line"/>
      <point x="250" y="22" type="line"/>
      <point x="250" y="0" type="line"/>
      <point x="30" y="0" type="line"/>
      <point x="30" y="22" type="line"/>
      <point x="105" y="47" type="line"/>
      <point x="120" y="127" type="line"/>
      <point x="120" y="523" type="line"/>
      <point x="105" y="603" type="line"/>
      <point x="35" y="628" type="line"/>
    </contour>
  </outline>
</glyph>
<glyph name="N" format="1">
  <advance width="680"/>
  <unicode hex="004E"/>
  <outline>
    <contour>
      <point x="575" y="0" type="line"/>
      <point x="485" y="0" type="line"/>
      <point x="435" y="100" type="line"/>
      <point x="165" y="560" type="line"/>
      <point x="170" y="450" type="line"/>
      <point x="170" y="127" type="line"/>
      <point x="185" y="47" type="line"/>
      <point x="260" y="22" type="line"/>
      <point x="260" y="0" type="line"/>
      <point x="30" y="0" type="line"/>
      <point x="30" y="22" type="line"/>
      <point x="105" y="47" type="line"/>
      <point x="120" y="127" type="line"/>
      <point x="120" y="523" type="line"/>
      <point x="105" y="603" type="line"/>
      <point x="35" y="628" type="line"/>
      <point x="35" y="650" type="line"/>
      <point x="235" y="650" type="line"/>
      <point x="285" y="550" type="line"/>
      <point x="525" y="140" type="line"/>
      <point x="520" y="250" type="line"/>
      <point x="520" y="523" type="line"/>
      <point x="505" y="603" type="line"/>
      <point x="430" y="628" type="line"/>
      <point x="430" y="650" type="line"/>
      <point x="660" y="650" type="line"/>
      <point x="660" y="628" type="line"/>
      <point x="585" y="603" type="line"/>
      <point x="570" y="523" type="line"/>
      <point x="570" y="120" type="line"/>
    </contour>
  </outline>
</glyph>
<glyph name="O" format="1">
  <advance width="720"/>
  <unicode hex="004F"/>
  <outline>
    <contour>
      <point x="345" y="613" type="curve" smooth="yes"/>
      <point x="215" y="613"/>
      <point x="155" y="497"/>
      <point x="155" y="332" type="curve" smooth="yes"/>
      <point x="155" y="152"/>
      <point x="225" y="37"/>
      <point x="375" y="37" type="curve" smooth="yes"/>
      <point x="505" y="37"/>
      <point x="565" y="153"/>
      <point x="565" y="318" type="curve" smooth="yes"/>
      <point x="565" y="498"/>
      <point x="495" y="613"/>
    </contour>
    <contour>
      <point x="365" y="-10" type="curve" smooth="yes"/>
      <point x="153" y="-10"/>
      <point x="50" y="120"/>
      <point x="50" y="320" type="curve" smooth="yes"/>
      <point x="50" y="520"/>
      <point x="165" y="660"/>
      <point x="355" y="660" type="curve" smooth="yes"/>
      <point x="567" y="660"/>
      <point x="670" y="530"/>
      <point x="670" y="330" type="curve" smooth="yes"/>
      <point x="670" y="130"/>
      <point x="555" y="-10"/>
    </contour>
  </outline>
</glyph>
<glyph name="P" format="1">
  <advance width="565"/>
  <unicode hex="0050"/>
  <outline>
    <contour>
      <point x="285" y="270" type="curve" smooth="yes"/>
      <point x="210" y="270" type="line"/>
      <point x="210" y="315" type="line"/>
      <point x="270" y="310" type="line"/>
      <point x="364" y="310"/>
      <point x="420" y="370"/>
      <point x="420" y="470" type="curve" smooth="yes"/>
      <point x="420" y="560"/>
      <point x="377" y="610"/>
      <point x="270" y="610" type="curve" smooth="yes"/>
      <point x="210" y="610" type="line"/>
      <point x="210" y="127" type="line"/>
      <point x="225" y="47" type="line"/>
      <point x="310" y="22" type="line"/>
      <point x="310" y="0" type="line"/>
      <point x="30" y="0" type="line"/>
      <point x="30" y="22" type="line"/>
      <point x="105" y="47" type="line"/>
      <point x="120" y="127" type="line"/>
      <point x="120" y="523" type="line"/>
      <point x="105" y="603" type="line"/>
      <point x="35" y="628" type="line"/>
      <point x="35" y="650" type="line"/>
      <point x="300" y="650" type="line" smooth="yes"/>
      <point x="450" y="650"/>
      <point x="520" y="580"/>
      <point x="520" y="470" type="curve" smooth="yes"/>
      <point x="520" y="370"/>
      <point x="430" y="270"/>
    </contour>
  </outline>
</glyph>
<glyph name="Q" format="1">
  <advance width="720"/>
  <unicode hex="0051"/>
  <outline>
    <contour>
      <point x="430" y="28" type="line"/>
      <point x="440" y="0" type="line"/>
      <point x="310" y="-34" type="line"/>
      <point x="416" y="-50" type="line"/>
      <point x="539" y="-82" type="line"/>
      <point x="622" y="-69" type="line"/>
      <point x="629" y="-90" type="line"/>
      <point x="490" y="-163" type="line"/>
      <point x="350" y="-112" type="line"/>
      <point x="153" y="-59" type="line"/>
      <point x="153" y="-39" type="line"/>
      <point x="251" y="-22" type="line"/>
    </contour>
    <component base="O"/>
  </outline>
</glyph>
<glyph name="R" format="1">
  <advance width="600"/>
  <unicode hex="0052"/>
  <outline>
    <contour>
      <point x="393" y="105" type="line"/>
      <point x="230" y="335" type="line"/>
      <point x="359" y="335"/>
      <point x="410" y="400"/>
      <point x="410" y="490" type="curve" smooth="yes"/>
      <point x="410" y="570"/>
      <point x="367" y="610"/>
      <point x="260" y="610" type="curve" smooth="yes"/>
      <point x="210" y="610" type="line"/>
      <point x="210" y="122" type="line"/>
      <point x="225" y="42" type="line"/>
      <point x="280" y="22" type="line"/>
      <point x="280" y="0" type="line"/>
      <point x="30" y="0" type="line"/>
      <point x="30" y="22" type="line"/>
      <point x="105" y="47" type="line"/>
      <point x="120" y="127" type="line"/>
      <point x="120" y="523" type="line"/>
      <point x="105" y="603" type="line"/>
      <point x="35" y="628" type="line"/>
      <point x="35" y="650" type="line"/>
      <point x="295" y="650" type="line" smooth="yes"/>
      <point x="445" y="650"/>
      <point x="510" y="595"/>
      <point x="510" y="495" type="curve" smooth="yes"/>
      <point x="510" y="410"/>
      <point x="430" y="340"/>
      <point x="340" y="325" type="curve"/>
      <point x="488" y="130" type="line"/>
      <point x="564" y="45" type="line"/>
      <point x="615" y="22" type="line"/>
      <point x="615" y="0" type="line"/>
      <point x="464" y="0" type="line"/>
    </contour>
  </outline>
</glyph>
<glyph name="S" format="1">
  <advance width="520"/>
  <unicode hex="0053"/>
  <outline>
    <contour>
      <point x="250" y="0" type="move" name="bottom"/>
    </contour>
    <contour>
      <point x="270" y="650" type="move" name="top"/>
    </contour>
    <contour>
      <point x="270" y="660" type="curve" smooth="yes"/>
      <point x="360" y="660"/>
      <point x="405" y="644"/>
      <point x="450" y="625" type="curve"/>
      <point x="450" y="500" type="line"/>
      <point x="405" y="495" type="line"/>
      <point x="390" y="580" type="line"/>
      <point x="355" y="600"/>
      <point x="325" y="613"/>
      <point x="255" y="613" type="curve" smooth="yes"/>
      <point x="185" y="613"/>
      <point x="130" y="570"/>
      <point x="130" y="510" type="curve" smooth="yes"/>
      <point x="130" y="330"/>
      <point x="470" y="425"/>
      <point x="470" y="185" type="curve" smooth="yes"/>
      <point x="470" y="45"/>
      <point x="370" y="-10"/>
      <point x="230" y="-10" type="curve" smooth="yes"/>
      <point x="160" y="-10"/>
      <point x="105" y="0"/>
      <point x="55" y="25" type="curve"/>
      <point x="50" y="165" type="line"/>
      <point x="100" y="170" type="line"/>
      <point x="120" y="70" type="line"/>
      <point x="155" y="45"/>
      <point x="195" y="37"/>
      <point x="240" y="37" type="curve" smooth="yes"/>
      <point x="325" y="37"/>
      <point x="385" y="70"/>
      <point x="385" y="145" type="curve" smooth="yes"/>
      <point x="385" y="325"/>
      <point x="50" y="235"/>
      <point x="50" y="480" type="curve" smooth="yes"/>
      <point x="50" y="570"/>
      <point x="110" y="660"/>
    </contour>
  </outline>
</glyph>
<glyph name="T" format="1">
  <advance width="560"/>
  <unicode hex="0054"/>
  <outline>
    <contour>
      <point x="280" y="650" type="move" name="top"/>
    </contour>
    <contour>
      <point x="280" y="0" type="move" name="bottom"/>
    </contour>
    <contour>
      <point x="22" y="650" type="line"/>
      <point x="538" y="650" type="line"/>
      <point x="540" y="506" type="line"/>
      <point x="500" y="502" type="line"/>
      <point x="482" y="595" type="line"/>
      <point x="402" y="610" type="line"/>
      <point x="325" y="610" type="line"/>
      <point x="325" y="127" type="line"/>
      <point x="340" y="47" type="line"/>
      <point x="425" y="22" type="line"/>
      <point x="425" y="0" type="line"/>
      <point x="135" y="0" type="line"/>
      <point x="135" y="22" type="line"/>
      <point x="220" y="47" type="line"/>
      <point x="235" y="127" type="line"/>
      <point x="235" y="610" type="line"/>
      <point x="158" y="610" type="line"/>
      <point x="78" y="595" type="line"/>
      <point x="60" y="502" type="line"/>
      <point x="20" y="506" type="line"/>
    </contour>
  </outline>
</glyph>
<glyph name="U" format="1">
  <advance width="690"/>
  <unicode hex="0055"/>
  <outline>
    <contour>
      <point x="360" y="650" type="move" name="top"/>
    </contour>
    <contour>
      <point x="360" y="0" type="move" name="bottom"/>
    </contour>
    <contour>
      <point x="595" y="250" type="line" smooth="yes"/>
      <point x="595" y="70"/>
      <point x="520" y="-10"/>
      <point x="345" y="-10" type="curve" smooth="yes"/>
      <point x="165" y="-10"/>
      <point x="105" y="70"/>
      <point x="105" y="250" type="curve" smooth="yes"/>
      <point x="105" y="523" type="line"/>
      <point x="90" y="603" type="line"/>
      <point x="20" y="628" type="line"/>
      <point x="20" y="650" type="line"/>
      <point x="280" y="650" type="line"/>
      <point x="280" y="628" type="line"/>
      <point x="210" y="603" type="line"/>
      <point x="195" y="523" type="line"/>
      <point x="195" y="220" type="line" smooth="yes"/>
      <point x="195" y="85"/>
      <point x="260" y="40"/>
      <point x="370" y="40" type="curve" smooth="yes"/>
      <point x="480" y="40"/>
      <point x="545" y="85"/>
      <point x="545" y="220" type="curve" smooth="yes"/>
      <point x="545" y="523" type="line"/>
      <point x="530" y="603" type="line"/>
      <point x="460" y="628" type="line"/>
      <point x="460" y="650" type="line"/>
      <point x="680" y="650" type="line"/>
      <point x="680" y="628" type="line"/>
      <point x="610" y="603" type="line"/>
      <point x="595" y="523" type="line"/>
    </contour>
  </outline>
</glyph>
<glyph name="V" format="1">
  <advance width="620"/>
  <unicode hex="0056"/>
  <outline>
    <contour>
      <point x="344" y="-10" type="line"/>
      <point x="274" y="-10" type="line"/>
      <point x="240" y="95" type="line"/>
      <point x="80" y="523" type="line"/>
      <point x="40" y="603" type="line"/>
      <point x="-20" y="628" type="line"/>
      <point x="-20" y="650" type="line"/>
      <point x="218" y="650" type="line"/>
      <point x="218" y="628" type="line"/>
      <point x="158" y="603" type="line"/>
      <point x="178" y="523" type="line"/>
      <point x="333" y="95" type="line"/>
      <point x="483" y="523" type="line"/>
      <point x="496" y="603" type="line"/>
      <point x="432" y="628" type="line"/>
      <point x="432" y="650" type="line"/>
      <point x="640" y="650" type="line"/>
      <point x="640" y="628" type="line"/>
      <point x="576" y="603" type="line"/>
      <point x="533" y="523" type="line"/>
      <point x="380" y="95" type="line"/>
    </contour>
  </outline>
</glyph>
<glyph name="W" format="1">
  <advance width="1000"/>
  <unicode hex="0057"/>
  <outline>
    <contour>
      <point x="627" y="110" type="line"/>
      <point x="500" y="503" type="line"/>
      <point x="379" y="110" type="line"/>
      <point x="350" y="-8" type="line"/>
      <point x="270" y="-8" type="line"/>
      <point x="237" y="110" type="line"/>
      <point x="97" y="523" type="line"/>
      <point x="60" y="603" type="line"/>
      <point x="0" y="628" type="line"/>
      <point x="0" y="650" type="line"/>
      <point x="238" y="650" type="line"/>
      <point x="238" y="628" type="line"/>
      <point x="178" y="603" type="line"/>
      <point x="195" y="523" type="line"/>
      <point x="330" y="110" type="line"/>
      <point x="454" y="510" type="line"/>
      <point x="490" y="635" type="line"/>
      <point x="555" y="635" type="line"/>
      <point x="592" y="510" type="line"/>
      <point x="725" y="110" type="line"/>
      <point x="845" y="523" type="line"/>
      <point x="856" y="603" type="line"/>
      <point x="792" y="628" type="line"/>
      <point x="792" y="650" type="line"/>
      <point x="1000" y="650" type="line"/>
      <point x="1000" y="628" type="line"/>
      <point x="936" y="603" type="line"/>
      <point x="895" y="523" type="line"/>
      <point x="772" y="110" type="line"/>
      <point x="740" y="-8" type="line"/>
      <point x="660" y="-8" type="line"/>
    </contour>
  </outline>
</glyph>
<glyph name="X" format="1">
  <advance width="630"/>
  <unicode hex="0058"/>
  <outline>
    <contour>
      <point x="395" y="650" type="line"/>
      <point x="600" y="650" type="line"/>
      <point x="600" y="628" type="line"/>
      <point x="528" y="605" type="line"/>
      <point x="474" y="545" type="line"/>
      <point x="337" y="330" type="line"/>
      <point x="300" y="345" type="line"/>
      <point x="425" y="545" type="line"/>
      <point x="452" y="605" type="line"/>
      <point x="395" y="628" type="line"/>
    </contour>
    <contour>
      <point x="281" y="340" type="line"/>
      <point x="322" y="325" type="line"/>
      <point x="177" y="105" type="line"/>
      <point x="148" y="45" type="line"/>
      <point x="205" y="22" type="line"/>
      <point x="205" y="0" type="line"/>
      <point x="0" y="0" type="line"/>
      <point x="0" y="22" type="line"/>
      <point x="72" y="45" type="line"/>
      <point x="128" y="105" type="line"/>
    </contour>
    <contour>
      <point x="15" y="650" type="line"/>
      <point x="263" y="650" type="line"/>
      <point x="263" y="628" type="line"/>
      <point x="213" y="605" type="line"/>
      <point x="246" y="535" type="line"/>
      <point x="345" y="370" type="line"/>
      <point x="502" y="115" type="line"/>
      <point x="560" y="45" type="line"/>
      <point x="625" y="22" type="line"/>
      <point x="625" y="0" type="line"/>
      <point x="377" y="0" type="line"/>
      <point x="377" y="22" type="line"/>
      <point x="427" y="45" type="line"/>
      <point x="394" y="115" type="line"/>
      <point x="277" y="310" type="line"/>
      <point x="138" y="535" type="line"/>
      <point x="80" y="605" type="line"/>
      <point x="15" y="628" type="line"/>
    </contour>
  </outline>
</glyph>
<glyph name="Y" format="1">
  <advance width="560"/>
  <unicode hex="0059"/>
  <outline>
    <contour>
      <point x="235" y="318" type="line"/>
      <point x="325" y="318" type="line"/>
      <point x="325" y="127" type="line"/>
      <point x="340" y="47" type="line"/>
      <point x="415" y="22" type="line"/>
      <point x="415" y="0" type="line"/>
      <point x="145" y="0" type="line"/>
      <point x="145" y="22" type="line"/>
      <point x="220" y="47" type="line"/>
      <point x="235" y="127" type="line"/>
    </contour>
    <contour>
      <point x="-15" y="650" type="line"/>
      <point x="230" y="650" type="line"/>
      <point x="230" y="628" type="line"/>
      <point x="170" y="603" type="line"/>
      <point x="199" y="533" type="line"/>
      <point x="305" y="342" type="line"/>
      <point x="403" y="533" type="line"/>
      <point x="425" y="603" type="line"/>
      <point x="361" y="628" type="line"/>
      <point x="361" y="650" type="line"/>
      <point x="570" y="650" type="line"/>
      <point x="570" y="628" type="line"/>
      <point x="506" y="603" type="line"/>
      <point x="454" y="533" type="line"/>
      <point x="309" y="259" type="line"/>
      <point x="246" y="259" type="line"/>
      <point x="94" y="533" type="line"/>
      <point x="45" y="603" type="line"/>
      <point x="-15" y="628" type="line"/>
    </contour>
  </outline>
</glyph>
<glyph name="Z" format="1">
  <advance width="570"/>
  <unicode hex="005A"/>
  <outline>
    <contour>
      <point x="280" y="650" type="move" name="top"/>
    </contour>
    <contour>
      <point x="280" y="0" type="move" name="bottom"/>
    </contour>
    <contour>
      <point x="395" y="610" type="line"/>
      <point x="196" y="610" type="line"/>
      <point x="116" y="595" type="line"/>
      <point x="100" y="495" type="line"/>
      <point x="55" y="497" type="line"/>
      <point x="60" y="650" type="line"/>
      <point x="515" y="650" type="line"/>
      <point x="515" y="630" type="line"/>
      <point x="155" y="40" type="line"/>
      <point x="384" y="40" type="line"/>
      <point x="464" y="55" type="line"/>
      <point x="485" y="155" type="line"/>
      <point x="530" y="153" type="line"/>
      <point x="520" y="0" type="line"/>
      <point x="35" y="0" type="line"/>
      <point x="35" y="20" type="line"/>
    </contour>
  </outline>
</glyph>
<glyph name="bracketleft" format="1">
  <advance width="325"/>
  <unicode hex="005B"/>
  <outline>
    <contour>
      <point x="90" y="-145" type="line"/>
      <point x="100" y="-45" type="line"/>
      <point x="100" y="580" type="line"/>
      <point x="90" y="680" type="line"/>
      <point x="285" y="680" type="line"/>
      <point x="285" y="655" type="line"/>
      <point x="190" y="633" type="line"/>
      <point x="175" y="573" type="line"/>
      <point x="175" y="-18" type="line"/>
      <point x="190" y="-98" type="line"/>
      <point x="285" y="-120" type="line"/>
      <point x="285" y="-145" type="line"/>
    </contour>
  </outline>
</glyph>
<glyph name="backslash" format="1">
  <advance width="330"/>
  <unicode hex="005C"/>
  <outline>
    <contour>
      <point x="66" y="678" type="line"/>
      <point x="310" y="-11" type="line"/>
      <point x="264" y="-28" type="line"/>
      <point x="20" y="661" type="line"/>
    </contour>
  </outline>
</glyph>
<glyph name="asciicircum" format="1">
  <advance width="520"/>
  <unicode hex="005E"/>
  <outline>
    <contour>
      <point x="260" y="680" type="line"/>
      <point x="440" y="510" type="line"/>
      <point x="415" y="480" type="line"/>
      <point x="260" y="590" type="line"/>
      <point x="105" y="480" type="line"/>
      <point x="80" y="510" type="line"/>
    </contour>
  </outline>
</glyph>
<glyph name="a" format="1">
  <advance width="465"/>
  <unicode hex="0061"/>
  <outline>
    <contour>
      <point x="220" y="450" type="move" name="top"/>
    </contour>
    <contour>
      <point x="225" y="0" type="move" name="bottom"/>
    </contour>
    <contour>
      <point x="220" y="460" type="curve" smooth="yes"/>
      <point x="325" y="460"/>
      <point x="375" y="420"/>
      <point x="375" y="290" type="curve" smooth="yes"/>
      <point x="375" y="130" type="line"/>
      <point x="390" y="60" type="line"/>
      <point x="455" y="45" type="line"/>
      <point x="455" y="25" type="line"/>
      <point x="287" y="-10" type="line"/>
      <point x="295" y="85" type="line"/>
      <point x="290" y="160" type="line"/>
      <point x="290" y="275" type="line" smooth="yes"/>
      <point x="290" y="358"/>
      <point x="255" y="392"/>
      <point x="190" y="392" type="curve" smooth="yes"/>
      <point x="137" y="392"/>
      <point x="106" y="371"/>
      <point x="77" y="343" type="curve"/>
      <point x="61" y="356" type="line"/>
      <point x="83" y="407"/>
      <point x="135" y="460"/>
    </contour>
    <contour>
      <point x="290" y="248" type="curve"/>
      <point x="290" y="213" type="line"/>
      <point x="155" y="213"/>
      <point x="130" y="185"/>
      <point x="130" y="127" type="curve" smooth="yes"/>
      <point x="130" y="79"/>
      <point x="153" y="54"/>
      <point x="197" y="54" type="curve" smooth="yes"/>
      <point x="237" y="54"/>
      <point x="290" y="83"/>
      <point x="290" y="160" type="curve"/>
      <point x="295" y="85" type="line"/>
      <point x="275" y="36"/>
      <point x="227" y="-10"/>
      <point x="162" y="-10" type="curve" smooth="yes"/>
      <point x="79" y="-10"/>
      <point x="35" y="36"/>
      <point x="35" y="105" type="curve" smooth="yes"/>
      <point x="35" y="190"/>
      <point x="97" y="248"/>
    </contour>
  </outline>
</glyph>
<glyph name="b" format="1">
  <advance width="520"/>
  <unicode hex="0062"/>
  <outline>
    <contour>
      <point x="85" y="15" type="curve"/>
      <point x="85" y="555" type="line"/>
      <point x="70" y="625" type="line"/>
      <point x="15" y="640" type="line"/>
      <point x="15" y="660" type="line"/>
      <point x="180" y="680" type="line"/>
      <point x="170" y="560" type="line"/>
      <point x="165" y="351" type="line"/>
      <point x="170" y="316" type="line"/>
      <point x="170" y="110" type="line"/>
      <point x="180" y="40" type="line"/>
      <point x="195" y="35"/>
      <point x="206" y="32"/>
      <point x="224" y="32" type="curve" smooth="yes"/>
      <point x="319" y="32"/>
      <point x="390" y="77"/>
      <point x="390" y="220" type="curve" smooth="yes"/>
      <point x="390" y="335"/>
      <point x="356" y="387"/>
      <point x="280" y="387" type="curve" smooth="yes"/>
      <point x="234" y="387"/>
      <point x="191" y="356"/>
      <point x="170" y="316" type="curve"/>
      <point x="165" y="351" type="line"/>
      <point x="189" y="406"/>
      <point x="244" y="460"/>
      <point x="317" y="460" type="curve" smooth="yes"/>
      <point x="420" y="460"/>
      <point x="480" y="384"/>
      <point x="480" y="242" type="curve" smooth="yes"/>
      <point x="480" y="102"/>
      <point x="372" y="-10"/>
      <point x="223" y="-10" type="curve" smooth="yes"/>
      <point x="165" y="-10"/>
      <point x="123" y="-1"/>
    </contour>
  </outline>
</glyph>
<glyph name="c" format="1">
  <advance width="450"/>
  <unicode hex="0063"/>
  <outline>
    <contour>
      <point x="324" y="402" type="line"/>
      <point x="304" y="412"/>
      <point x="291" y="417"/>
      <point x="254" y="417" type="curve" smooth="yes"/>
      <point x="165" y="417"/>
      <point x="135" y="330"/>
      <point x="135" y="258" type="curve" smooth="yes"/>
      <point x="135" y="111"/>
      <point x="191" y="55"/>
      <point x="284" y="55" type="curve" smooth="yes"/>
      <point x="322" y="55"/>
      <point x="373" y="67"/>
      <point x="401" y="93" type="curve"/>
      <point x="415" y="80" type="line"/>
      <point x="376" y="23"/>
      <point x="319" y="-10"/>
      <point x="243" y="-10" type="curve" smooth="yes"/>
      <point x="107" y="-10"/>
      <point x="40" y="83"/>
      <point x="40" y="220" type="curve" smooth="yes"/>
      <point x="40" y="357"/>
      <point x="127" y="460"/>
      <point x="253" y="460" type="curve" smooth="yes"/>
      <point x="329" y="460"/>
      <point x="378" y="439"/>
      <point x="395" y="425" type="curve"/>
      <point x="397" y="312" type="line"/>
      <point x="347" y="308" type="line"/>
    </contour>
  </outline>
</glyph>
<glyph name="d" format="1">
  <advance width="535"/>
  <unicode hex="0064"/>
  <outline>
    <contour>
      <point x="130" y="227" type="curve" smooth="yes"/>
      <point x="130" y="115"/>
      <point x="179" y="58"/>
      <point x="250" y="58" type="curve" smooth="yes"/>
      <point x="307" y="58"/>
      <point x="334" y="86"/>
      <point x="360" y="119" type="curve"/>
      <point x="365" y="84" type="line"/>
      <point x="341" y="36"/>
      <point x="303" y="-10"/>
      <point x="208" y="-10" type="curve" smooth="yes"/>
      <point x="110" y="-10"/>
      <point x="40" y="66"/>
      <point x="40" y="205" type="curve" smooth="yes"/>
      <point x="40" y="342"/>
      <point x="116" y="455"/>
      <point x="252" y="455" type="curve" smooth="yes"/>
      <point x="302" y="455"/>
      <point x="338" y="444"/>
      <point x="365" y="429" type="curve"/>
      <point x="360" y="380" type="line"/>
      <point x="337" y="399"/>
      <point x="307" y="410"/>
      <point x="270" y="410" type="curve" smooth="yes"/>
      <point x="192" y="410"/>
      <point x="130" y="367"/>
    </contour>
    <contour>
      <point x="445" y="560" type="line"/>
      <point x="445" y="130" type="line"/>
      <point x="460" y="60" type="line"/>
      <point x="525" y="45" type="line"/>
      <point x="525" y="25" type="line"/>
      <point x="357" y="-10" type="line"/>
      <point x="365" y="84" type="line"/>
      <point x="360" y="119" type="line"/>
      <point x="360" y="380" type="line"/>
      <point x="365" y="429" type="line"/>
      <point x="360" y="555" type="line"/>
      <point x="345" y="625" type="line"/>
      <point x="290" y="640" type="line"/>
      <point x="290" y="660" type="line"/>
      <point x="455" y="680" type="line"/>
    </contour>
  </outline>
</glyph>
<glyph name="e" format="1">
  <advance width="451"/>
  <unicode hex="0065"/>
  <outline>
    <contour>
      <point x="397" y="91" type="curve"/>
      <point x="411" y="78" type="line"/>
      <point x="372" y="21"/>
      <point x="319" y="-10"/>
      <point x="243" y="-10" type="curve" smooth="yes"/>
      <point x="106" y="-10"/>
      <point x="40" y="83"/>
      <point x="40" y="220" type="curve" smooth="yes"/>
      <point x="40" y="357"/>
      <point x="110" y="460"/>
      <point x="237" y="460" type="curve" smooth="yes"/>
      <point x="351" y="460"/>
      <point x="405" y="389"/>
      <point x="405" y="287" type="curve"/>
      <point x="403" y="258" type="line"/>
      <point x="134" y="258" type="line"/>
      <point x="134" y="293" type="line"/>
      <point x="242" y="293" type="line"/>
      <point x="312" y="303" type="line"/>
      <point x="312" y="374"/>
      <point x="298" y="417"/>
      <point x="230" y="417" type="curve" smooth="yes"/>
      <point x="161" y="417"/>
      <point x="135" y="343"/>
      <point x="135" y="279" type="curve" smooth="yes"/>
      <point x="135" y="129"/>
      <point x="182" y="54"/>
      <point x="276" y="54" type="curve" smooth="yes"/>
      <point x="314" y="54"/>
      <point x="369" y="65"/>
    </contour>
  </outline>
</glyph>
<glyph name="f" format="1">
  <advance width="330"/>
  <unicode hex="0066"/>
  <outline>
    <contour>
      <point x="50" y="450" type="line"/>
      <point x="180" y="450" type="line"/>
      <point x="300" y="450" type="line"/>
      <point x="300" y="400" type="line"/>
      <point x="10" y="400" type="line"/>
      <point x="10" y="415" type="line"/>
    </contour>
    <contour>
      <point x="262" y="610" type="curve" smooth="yes"/>
      <point x="199" y="610"/>
      <point x="172" y="593"/>
      <point x="172" y="561" type="curve" smooth="yes"/>
      <point x="172" y="526"/>
      <point x="180" y="493"/>
      <point x="180" y="450" type="curve" smooth="yes"/>
      <point x="180" y="115" type="line"/>
      <point x="195" y="45" type="line"/>
      <point x="275" y="20" type="line"/>
      <point x="275" y="0" type="line"/>
      <point x="20" y="0" type="line"/>
      <point x="20" y="20" type="line"/>
      <point x="80" y="45" type="line"/>
      <point x="95" y="115" type="line"/>
      <point x="95" y="460" type="line" smooth="yes"/>
      <point x="95" y="565"/>
      <point x="155" y="690"/>
      <point x="282" y="690" type="curve" smooth="yes"/>
      <point x="313" y="690"/>
      <point x="330" y="686"/>
      <point x="350" y="678" type="curve"/>
      <point x="326" y="594" type="line"/>
      <point x="310" y="601"/>
      <point x="287" y="610"/>
    </contour>
  </outline>
</glyph>
<glyph name="g" format="1">
  <advance width="520"/>
  <unicode hex="0067"/>
  <outline>
    <contour>
      <point x="470" y="515" type="line"/>
      <point x="460" y="425" type="line"/>
      <point x="369" y="430" type="line"/>
      <point x="325" y="450" type="line"/>
      <point x="390" y="470" type="line"/>
      <point x="452" y="519" type="line"/>
    </contour>
    <contour>
      <point x="151" y="172" type="curve"/>
      <point x="183" y="160" type="line"/>
      <point x="168" y="145"/>
      <point x="158" y="123"/>
      <point x="158" y="108" type="curve" smooth="yes"/>
      <point x="158" y="81"/>
      <point x="190" y="75"/>
      <point x="265" y="75" type="curve" smooth="yes"/>
      <point x="405" y="75"/>
      <point x="475" y="55"/>
      <point x="475" y="-35" type="curve" smooth="yes"/>
      <point x="475" y="-135"/>
      <point x="365" y="-220"/>
      <point x="235" y="-220" type="curve" smooth="yes"/>
      <point x="135" y="-220"/>
      <point x="50" y="-190"/>
      <point x="50" y="-100" type="curve" smooth="yes"/>
      <point x="50" y="-45"/>
      <point x="85" y="-7"/>
      <point x="140" y="23" type="curve"/>
      <point x="160" y="5" type="line"/>
      <point x="125" y="-20"/>
      <point x="120" y="-35"/>
      <point x="120" y="-70" type="curve" smooth="yes"/>
      <point x="120" y="-130"/>
      <point x="175" y="-165"/>
      <point x="260" y="-165" type="curve" smooth="yes"/>
      <point x="340" y="-165"/>
      <point x="407" y="-140"/>
      <point x="407" y="-70" type="curve" smooth="yes"/>
      <point x="407" y="-25"/>
      <point x="355" y="-10"/>
      <point x="250" y="-10" type="curve" smooth="yes"/>
      <point x="125" y="-10"/>
      <point x="80" y="25"/>
      <point x="80" y="75" type="curve" smooth="yes"/>
      <point x="80" y="105"/>
      <point x="116" y="144"/>
    </contour>
    <contour>
      <point x="243" y="420" type="curve" smooth="yes"/>
      <point x="193" y="420"/>
      <point x="160" y="383"/>
      <point x="160" y="310" type="curve" smooth="yes"/>
      <point x="160" y="230"/>
      <point x="197" y="190"/>
      <point x="257" y="190" type="curve" smooth="yes"/>
      <point x="307" y="190"/>
      <point x="340" y="227"/>
      <point x="340" y="300" type="curve" smooth="yes"/>
      <point x="340" y="380"/>
      <point x="303" y="420"/>
    </contour>
    <contour>
      <point x="252" y="150" type="curve" smooth="yes"/>
      <point x="127" y="150"/>
      <point x="70" y="212"/>
      <point x="70" y="302" type="curve" smooth="yes"/>
      <point x="70" y="392"/>
      <point x="138" y="460"/>
      <point x="248" y="460" type="curve" smooth="yes"/>
      <point x="373" y="460"/>
      <point x="430" y="398"/>
      <point x="430" y="308" type="curve" smooth="yes"/>
      <point x="430" y="218"/>
      <point x="362" y="150"/>
    </contour>
  </outline>
</glyph>
<glyph name="h" format="1">
  <advance width="569"/>
  <unicode hex="0068"/>
  <outline>
    <contour>
      <point x="334" y="460" type="curve" smooth="yes"/>
      <point x="427" y="460"/>
      <point x="475" y="417"/>
      <point x="475" y="270" type="curve" smooth="yes"/>
      <point x="475" y="110" type="line"/>
      <point x="487" y="45" type="line"/>
      <point x="555" y="20" type="line"/>
      <point x="555" y="0" type="line"/>
      <point x="320" y="0" type="line"/>
      <point x="320" y="20" type="line"/>
      <point x="378" y="45" type="line"/>
      <point x="390" y="110" type="line"/>
      <point x="390" y="260" type="line" smooth="yes"/>
      <point x="390" y="357"/>
      <point x="358" y="387"/>
      <point x="292" y="387" type="curve" smooth="yes"/>
      <point x="246" y="387"/>
      <point x="196" y="356"/>
      <point x="175" y="316" type="curve"/>
      <point x="170" y="351" type="line"/>
      <point x="194" y="406"/>
      <point x="252" y="460"/>
    </contour>
    <contour>
      <point x="175" y="316" type="line"/>
      <point x="175" y="110" type="line"/>
      <point x="187" y="45" type="line"/>
      <point x="245" y="20" type="line"/>
      <point x="245" y="0" type="line"/>
      <point x="10" y="0" type="line"/>
      <point x="10" y="20" type="line"/>
      <point x="78" y="45" type="line"/>
      <point x="90" y="110" type="line"/>
      <point x="90" y="555" type="line"/>
      <point x="75" y="625" type="line"/>
      <point x="10" y="640" type="line"/>
      <point x="10" y="660" type="line"/>
      <point x="185" y="680" type="line"/>
      <point x="175" y="560" type="line"/>
      <point x="170" y="351" type="line"/>
    </contour>
  </outline>
</glyph>
<glyph name="i" format="1">
  <advance width="275"/>
  <unicode hex="0069"/>
  <outline>
    <contour>
      <point x="67" y="617" type="curve" smooth="yes"/>
      <point x="67" y="654"/>
      <point x="93" y="680"/>
      <point x="130" y="680" type="curve" smooth="yes"/>
      <point x="167" y="680"/>
      <point x="193" y="654"/>
      <point x="193" y="617" type="curve" smooth="yes"/>
      <point x="193" y="580"/>
      <point x="167" y="554"/>
      <point x="130" y="554" type="curve" smooth="yes"/>
      <point x="93" y="554"/>
      <point x="67" y="580"/>
    </contour>
    <contour>
      <point x="195" y="455" type="line"/>
      <point x="185" y="335" type="line"/>
      <point x="185" y="115" type="line"/>
      <point x="200" y="45" type="line"/>
      <point x="260" y="20" type="line"/>
      <point x="260" y="0" type="line"/>
      <point x="20" y="0" type="line"/>
      <point x="20" y="20" type="line"/>
      <point x="85" y="45" type="line"/>
      <point x="100" y="115" type="line"/>
      <point x="100" y="330" type="line"/>
      <point x="85" y="400" type="line"/>
      <point x="30" y="425" type="line"/>
      <point x="30" y="445" type="line"/>
    </contour>
  </outline>
</glyph>
<glyph name="j" format="1">
  <advance width="265"/>
  <unicode hex="006A"/>
  <outline>
    <contour>
      <point x="26" y="-220" type="curve" smooth="yes"/>
      <point x="-0" y="-220"/>
      <point x="-15" y="-216"/>
      <point x="-35" y="-210" type="curve"/>
      <point x="-14" y="-122" type="line"/>
      <point x="12" y="-131"/>
      <point x="43" y="-137"/>
      <point x="69" y="-137" type="curve" smooth="yes"/>
      <point x="94" y="-137"/>
      <point x="112" y="-124"/>
      <point x="112" y="-90" type="curve" smooth="yes"/>
      <point x="112" y="-60"/>
      <point x="100" y="33"/>
      <point x="100" y="80" type="curve" smooth="yes"/>
      <point x="100" y="330" type="line"/>
      <point x="85" y="400" type="line"/>
      <point x="30" y="425" type="line"/>
      <point x="30" y="445" type="line"/>
      <point x="195" y="455" type="line"/>
      <point x="185" y="335" type="line"/>
      <point x="185" y="40" type="line" smooth="yes"/>
      <point x="185" y="-153"/>
      <point x="109" y="-220"/>
    </contour>
    <contour>
      <point x="67" y="617" type="curve" smooth="yes"/>
      <point x="67" y="654"/>
      <point x="93" y="680"/>
      <point x="130" y="680" type="curve" smooth="yes"/>
      <point x="167" y="680"/>
      <point x="193" y="654"/>
      <point x="193" y="617" type="curve" smooth="yes"/>
      <point x="193" y="580"/>
      <point x="167" y="554"/>
      <point x="130" y="554" type="curve" smooth="yes"/>
      <point x="93" y="554"/>
      <point x="67" y="580"/>
    </contour>
  </outline>
</glyph>
<glyph name="k" format="1">
  <advance width="505"/>
  <unicode hex="006B"/>
  <outline>
    <contour>
      <point x="454" y="45" type="line"/>
      <point x="520" y="20" type="line"/>
      <point x="520" y="0" type="line"/>
      <point x="365" y="0" type="line"/>
      <point x="291" y="105" type="line"/>
      <point x="205" y="215" type="line"/>
      <point x="313" y="345" type="line"/>
      <point x="340" y="400" type="line"/>
      <point x="295" y="430" type="line"/>
      <point x="295" y="450" type="line"/>
      <point x="490" y="450" type="line"/>
      <point x="490" y="430" type="line"/>
      <point x="432" y="400" type="line"/>
      <point x="366" y="345" type="line"/>
      <point x="283" y="246" type="line"/>
    </contour>
    <contour>
      <point x="95" y="555" type="line"/>
      <point x="80" y="625" type="line"/>
      <point x="15" y="640" type="line"/>
      <point x="15" y="660" type="line"/>
      <point x="190" y="680" type="line"/>
      <point x="180" y="560" type="line"/>
      <point x="180" y="115" type="line"/>
      <point x="195" y="45" type="line"/>
      <point x="255" y="20" type="line"/>
      <point x="255" y="0" type="line"/>
      <point x="15" y="0" type="line"/>
      <point x="15" y="20" type="line"/>
      <point x="80" y="45" type="line"/>
      <point x="95" y="115" type="line"/>
    </contour>
  </outline>
</glyph>
<glyph name="l" format="1">
  <advance width="270"/>
  <unicode hex="006C"/>
  <outline>
    <contour>
      <point x="95" y="555" type="line"/>
      <point x="80" y="625" type="line"/>
      <point x="15" y="640" type="line"/>
      <point x="15" y="660" type="line"/>
      <point x="190" y="680" type="line"/>
      <point x="180" y="560" type="line"/>
      <point x="180" y="115" type="line"/>
      <point x="195" y="45" type="line"/>
      <point x="255" y="20" type="line"/>
      <point x="255" y="0" type="line"/>
      <point x="15" y="0" type="line"/>
      <point x="15" y="20" type="line"/>
      <point x="80" y="45" type="line"/>
      <point x="95" y="115" type="line"/>
    </contour>
  </outline>
</glyph>
<glyph name="m" format="1">
  <advance width="855"/>
  <unicode hex="006D"/>
  <outline>
    <contour>
      <point x="765" y="110" type="line"/>
      <point x="777" y="45" type="line"/>
      <point x="845" y="20" type="line"/>
      <point x="845" y="0" type="line"/>
      <point x="610" y="0" type="line"/>
      <point x="610" y="20" type="line"/>
      <point x="668" y="45" type="line"/>
      <point x="680" y="110" type="line"/>
      <point x="680" y="260" type="line" smooth="yes"/>
      <point x="680" y="357"/>
      <point x="653" y="387"/>
      <point x="587" y="387" type="curve" smooth="yes"/>
      <point x="535" y="387"/>
      <point x="496" y="353"/>
      <point x="474" y="299" type="curve"/>
      <point x="470" y="336" type="line"/>
      <point x="494" y="404"/>
      <point x="539" y="460"/>
      <point x="629" y="460" type="curve" smooth="yes"/>
      <point x="722" y="460"/>
      <point x="765" y="417"/>
      <point x="765" y="270" type="curve" smooth="yes"/>
    </contour>
    <contour>
      <point x="475" y="110" type="line"/>
      <point x="487" y="45" type="line"/>
      <point x="545" y="20" type="line"/>
      <point x="545" y="0" type="line"/>
      <point x="320" y="0" type="line"/>
      <point x="320" y="20" type="line"/>
      <point x="378" y="45" type="line"/>
      <point x="390" y="110" type="line"/>
      <point x="390" y="260" type="line" smooth="yes"/>
      <point x="390" y="357"/>
      <point x="363" y="387"/>
      <point x="297" y="387" type="curve" smooth="yes"/>
      <point x="245" y="387"/>
      <point x="206" y="353"/>
      <point x="185" y="301" type="curve"/>
      <point x="180" y="336" type="line"/>
      <point x="204" y="404"/>
      <point x="249" y="460"/>
      <point x="339" y="460" type="curve" smooth="yes"/>
      <point x="432" y="460"/>
      <point x="475" y="417"/>
      <point x="475" y="270" type="curve" smooth="yes"/>
    </contour>
    <contour>
      <point x="30" y="445" type="line"/>
      <point x="195" y="455" type="line"/>
      <point x="180" y="336" type="line"/>
      <point x="185" y="301" type="line"/>
      <point x="185" y="110" type="line"/>
      <point x="197" y="45" type="line"/>
      <point x="255" y="20" type="line"/>
      <point x="255" y="0" type="line"/>
      <point x="20" y="0" type="line"/>
      <point x="20" y="20" type="line"/>
      <point x="88" y="45" type="line"/>
      <point x="100" y="110" type="line"/>
      <point x="100" y="330" type="line"/>
      <point x="85" y="400" type="line"/>
      <point x="30" y="425" type="line"/>
    </contour>
  </outline>
</glyph>
<glyph name="n" format="1">
  <advance width="575"/>
  <unicode hex="006E"/>
  <outline>
    <contour>
      <point x="285" y="450" type="move" name="top"/>
    </contour>
    <contour>
      <point x="290" y="0" type="move" name="bottom"/>
    </contour>
    <contour>
      <point x="485" y="110" type="line"/>
      <point x="497" y="45" type="line"/>
      <point x="565" y="20" type="line"/>
      <point x="565" y="0" type="line"/>
      <point x="330" y="0" type="line"/>
      <point x="330" y="20" type="line"/>
      <point x="388" y="45" type="line"/>
      <point x="400" y="110" type="line"/>
      <point x="400" y="260" type="line" smooth="yes"/>
      <point x="400" y="357"/>
      <point x="368" y="387"/>
      <point x="302" y="387" type="curve" smooth="yes"/>
      <point x="250" y="387"/>
      <point x="206" y="353"/>
      <point x="185" y="301" type="curve"/>
      <point x="180" y="336" type="line"/>
      <point x="204" y="404"/>
      <point x="254" y="460"/>
      <point x="344" y="460" type="curve" smooth="yes"/>
      <point x="437" y="460"/>
      <point x="485" y="417"/>
      <point x="485" y="270" type="curve" smooth="yes"/>
    </contour>
    <contour>
      <point x="30" y="445" type="line"/>
      <point x="195" y="455" type="line"/>
      <point x="180" y="336" type="line"/>
      <point x="185" y="301" type="line"/>
      <point x="185" y="110" type="line"/>
      <point x="197" y="45" type="line"/>
      <point x="255" y="20" type="line"/>
      <point x="255" y="0" type="line"/>
      <point x="20" y="0" type="line"/>
      <point x="20" y="20" type="line"/>
      <point x="88" y="45" type="line"/>
      <point x="100" y="110" type="line"/>
      <point x="100" y="330" type="line"/>
      <point x="85" y="400" type="line"/>
      <point x="30" y="425" type="line"/>
    </contour>
  </outline>
</glyph>
<glyph name="o" format="1">
  <advance width="510"/>
  <unicode hex="006F"/>
  <outline>
    <contour>
      <point x="250" y="450" type="move" name="top"/>
    </contour>
    <contour>
      <point x="262" y="0" type="move" name="bottom"/>
    </contour>
    <contour>
      <point x="250" y="415" type="curve" smooth="yes"/>
      <point x="165" y="415"/>
      <point x="135" y="340"/>
      <point x="135" y="230" type="curve" smooth="yes"/>
      <point x="135" y="110"/>
      <point x="175" y="35"/>
      <point x="260" y="35" type="curve" smooth="yes"/>
      <point x="345" y="35"/>
      <point x="375" y="110"/>
      <point x="375" y="220" type="curve" smooth="yes"/>
      <point x="375" y="340"/>
      <point x="335" y="415"/>
    </contour>
    <contour>
      <point x="258" y="-10" type="curve" smooth="yes"/>
      <point x="108" y="-10"/>
      <point x="35" y="85"/>
      <point x="35" y="220" type="curve" smooth="yes"/>
      <point x="35" y="355"/>
      <point x="117" y="460"/>
      <point x="252" y="460" type="curve" smooth="yes"/>
      <point x="402" y="460"/>
      <point x="475" y="365"/>
      <point x="475" y="230" type="curve" smooth="yes"/>
      <point x="475" y="95"/>
      <point x="393" y="-10"/>
    </contour>
  </outline>
</glyph>
<glyph name="p" format="1">
  <advance width="525"/>
  <unicode hex="0070"/>
  <outline>
    <contour>
      <point x="322" y="460" type="curve" smooth="yes"/>
      <point x="420" y="460"/>
      <point x="485" y="384"/>
      <point x="485" y="245" type="curve" smooth="yes"/>
      <point x="485" y="108"/>
      <point x="404" y="-5"/>
      <point x="263" y="-5" type="curve" smooth="yes"/>
      <point x="218" y="-5"/>
      <point x="192" y="1"/>
      <point x="165" y="11" type="curve"/>
      <point x="170" y="55" type="line"/>
      <point x="193" y="45"/>
      <point x="218" y="40"/>
      <point x="255" y="40" type="curve" smooth="yes"/>
      <point x="333" y="40"/>
      <point x="395" y="83"/>
      <point x="395" y="223" type="curve" smooth="yes"/>
      <point x="395" y="335"/>
      <point x="351" y="387"/>
      <point x="280" y="387" type="curve" smooth="yes"/>
      <point x="234" y="387"/>
      <point x="191" y="353"/>
      <point x="170" y="301" type="curve"/>
      <point x="165" y="336" type="line"/>
      <point x="189" y="404"/>
      <point x="235" y="460"/>
    </contour>
    <contour>
      <point x="180" y="455" type="line"/>
      <point x="165" y="336" type="line"/>
      <point x="170" y="301" type="line"/>
      <point x="170" y="55" type="line"/>
      <point x="165" y="11" type="line"/>
      <point x="170" y="-95" type="line"/>
      <point x="185" y="-165" type="line"/>
      <point x="255" y="-190" type="line"/>
      <point x="255" y="-210" type="line"/>
      <point x="15" y="-210" type="line"/>
      <point x="15" y="-190" type="line"/>
      <point x="70" y="-165" type="line"/>
      <point x="85" y="-95" type="line"/>
      <point x="85" y="330" type="line"/>
      <point x="70" y="400" type="line"/>
      <point x="15" y="425" type="line"/>
      <point x="15" y="445" type="line"/>
    </contour>
  </outline>
</glyph>
<glyph name="q" format="1">
  <advance width="520"/>
  <unicode hex="0071"/>
  <outline>
    <contour>
      <point x="525" y="-210" type="line"/>
      <point x="285" y="-210" type="line"/>
      <point x="285" y="-190" type="line"/>
      <point x="345" y="-165" type="line"/>
      <point x="360" y="-95" type="line"/>
      <point x="365" y="86" type="line"/>
      <point x="360" y="121" type="line"/>
      <point x="360" y="335" type="line"/>
      <point x="350" y="405" type="line"/>
      <point x="335" y="413"/>
      <point x="314" y="418"/>
      <point x="291" y="418" type="curve" smooth="yes"/>
      <point x="201" y="418"/>
      <point x="130" y="373"/>
      <point x="130" y="230" type="curve" smooth="yes"/>
      <point x="130" y="115"/>
      <point x="174" y="63"/>
      <point x="250" y="63" type="curve" smooth="yes"/>
      <point x="296" y="63"/>
      <point x="334" y="83"/>
      <point x="360" y="121" type="curve"/>
      <point x="365" y="86" type="line"/>
      <point x="341" y="33"/>
      <point x="286" y="-10"/>
      <point x="213" y="-10" type="curve" smooth="yes"/>
      <point x="110" y="-10"/>
      <point x="40" y="66"/>
      <point x="40" y="208" type="curve" smooth="yes"/>
      <point x="40" y="348"/>
      <point x="148" y="460"/>
      <point x="297" y="460" type="curve" smooth="yes"/>
      <point x="355" y="460"/>
      <point x="407" y="451"/>
      <point x="445" y="430" type="curve"/>
      <point x="445" y="-95" type="line"/>
      <point x="460" y="-165" type="line"/>
      <point x="525" y="-190" type="line"/>
    </contour>
  </outline>
</glyph>
<glyph name="r" format="1">
  <advance width="385"/>
  <unicode hex="0072"/>
  <outline>
    <contour>
      <point x="95" y="110" type="line"/>
      <point x="95" y="330" type="line"/>
      <point x="80" y="400" type="line"/>
      <point x="25" y="425" type="line"/>
      <point x="25" y="445" type="line"/>
      <point x="190" y="455" type="line"/>
      <point x="172" y="310" type="line"/>
      <point x="175" y="275" type="line"/>
      <point x="180" y="110" type="line"/>
      <point x="192" y="45" type="line"/>
      <point x="275" y="20" type="line"/>
      <point x="275" y="0" type="line"/>
      <point x="20" y="0" type="line"/>
      <point x="20" y="20" type="line"/>
      <point x="83" y="45" type="line"/>
    </contour>
    <contour>
      <point x="322" y="460" type="curve" smooth="yes"/>
      <point x="342" y="460"/>
      <point x="351" y="458"/>
      <point x="367" y="455" type="curve"/>
      <point x="355" y="355" type="line"/>
      <point x="340" y="358"/>
      <point x="325" y="362"/>
      <point x="306" y="362" type="curve" smooth="yes"/>
      <point x="232" y="362"/>
      <point x="199" y="338"/>
      <point x="175" y="275" type="curve"/>
      <point x="172" y="310" type="line"/>
      <point x="195" y="376"/>
      <point x="248" y="460"/>
    </contour>
  </outline>
</glyph>
<glyph name="s" format="1">
  <advance width="420"/>
  <unicode hex="0073"/>
  <outline>
    <contour>
      <point x="286" y="95" type="curve" smooth="yes"/>
      <point x="286" y="140"/>
      <point x="253" y="156"/>
      <point x="178" y="180" type="curve" smooth="yes"/>
      <point x="104" y="204"/>
      <point x="50" y="252"/>
      <point x="50" y="330" type="curve" smooth="yes"/>
      <point x="50" y="407"/>
      <point x="105" y="460"/>
      <point x="210" y="460" type="curve" smooth="yes"/>
      <point x="295" y="460"/>
      <point x="328" y="440"/>
      <point x="348" y="425" type="curve"/>
      <point x="348" y="318" type="line"/>
      <point x="300" y="315" type="line"/>
      <point x="287" y="390" type="line"/>
      <point x="267" y="408"/>
      <point x="253" y="418"/>
      <point x="203" y="418" type="curve" smooth="yes"/>
      <point x="153" y="418"/>
      <point x="125" y="394"/>
      <point x="125" y="354" type="curve" smooth="yes"/>
      <point x="125" y="314"/>
      <point x="170" y="289"/>
      <point x="240" y="267" type="curve" smooth="yes"/>
      <point x="318" y="242"/>
      <point x="365" y="197"/>
      <point x="365" y="132" type="curve" smooth="yes"/>
      <point x="365" y="32"/>
      <point x="308" y="-10"/>
      <point x="185" y="-10" type="curve" smooth="yes"/>
      <point x="125" y="-10"/>
      <point x="85" y="6"/>
      <point x="52" y="25" type="curve"/>
      <point x="50" y="137" type="line"/>
      <point x="97" y="140" type="line"/>
      <point x="113" y="65" type="line"/>
      <point x="137" y="45"/>
      <point x="166" y="35"/>
      <point x="203" y="35" type="curve" smooth="yes"/>
      <point x="252" y="35"/>
      <point x="286" y="51"/>
    </contour>
  </outline>
</glyph>
<glyph name="t" format="1">
  <advance width="345"/>
  <unicode hex="0074"/>
  <outline>
    <contour>
      <point x="175" y="450" type="move" name="top"/>
    </contour>
    <contour>
      <point x="182" y="0" type="move" name="bottom"/>
    </contour>
    <contour>
      <point x="175" y="555" type="line"/>
      <point x="175" y="450" type="line"/>
      <point x="318" y="450" type="line"/>
      <point x="318" y="400" type="line"/>
      <point x="175" y="400" type="line"/>
      <point x="175" y="173" type="line" smooth="yes"/>
      <point x="175" y="87"/>
      <point x="192" y="57"/>
      <point x="235" y="57" type="curve" smooth="yes"/>
      <point x="262" y="57"/>
      <point x="297" y="64"/>
      <point x="311" y="73" type="curve"/>
      <point x="325" y="60" type="line"/>
      <point x="306" y="25"/>
      <point x="251" y="-10"/>
      <point x="195" y="-10" type="curve" smooth="yes"/>
      <point x="108" y="-10"/>
      <point x="90" y="46"/>
      <point x="90" y="133" type="curve" smooth="yes"/>
      <point x="90" y="400" type="line"/>
      <point x="5" y="400" type="line"/>
      <point x="5" y="415" type="line"/>
      <point x="160" y="555" type="line"/>
    </contour>
  </outline>
</glyph>
<glyph name="u" format="1">
  <advance width="545"/>
  <unicode hex="0075"/>
  <outline>
    <contour>
      <point x="262" y="0" type="move" name="bottom"/>
    </contour>
    <contour>
      <point x="260" y="450" type="move" name="top"/>
    </contour>
    <contour>
      <point x="370" y="105" type="line"/>
      <point x="370" y="140" type="line"/>
      <point x="365" y="335" type="line"/>
      <point x="353" y="400" type="line"/>
      <point x="290" y="425" type="line"/>
      <point x="290" y="445" type="line"/>
      <point x="465" y="453" type="line"/>
      <point x="450" y="340" type="line"/>
      <point x="450" y="125" type="line"/>
      <point x="462" y="60" type="line"/>
      <point x="530" y="45" type="line"/>
      <point x="530" y="25" type="line"/>
      <point x="362" y="-10" type="line"/>
    </contour>
    <contour>
      <point x="180" y="454" type="line"/>
      <point x="168" y="340" type="line"/>
      <point x="168" y="190" type="line" smooth="yes"/>
      <point x="168" y="93"/>
      <point x="197" y="63"/>
      <point x="260" y="63" type="curve" smooth="yes"/>
      <point x="316" y="63"/>
      <point x="345" y="98"/>
      <point x="370" y="140" type="curve"/>
      <point x="370" y="105" type="line"/>
      <point x="337" y="43"/>
      <point x="308" y="-10"/>
      <point x="219" y="-10" type="curve" smooth="yes"/>
      <point x="134" y="-10"/>
      <point x="85" y="33"/>
      <point x="85" y="180" type="curve" smooth="yes"/>
      <point x="85" y="335" type="line"/>
      <point x="73" y="400" type="line"/>
      <point x="5" y="426" type="line"/>
      <point x="5" y="446" type="line"/>
    </contour>
  </outline>
</glyph>
<glyph name="v" format="1">
  <advance width="480"/>
  <unicode hex="0076"/>
  <outline>
    <contour>
      <point x="349" y="335" type="line"/>
      <point x="359" y="405" type="line"/>
      <point x="305" y="430" type="line"/>
      <point x="305" y="450" type="line"/>
      <point x="490" y="450" type="line"/>
      <point x="490" y="430" type="line"/>
      <point x="436" y="405" type="line"/>
      <point x="396" y="335" type="line"/>
      <point x="272" y="-10" type="line"/>
      <point x="209" y="-10" type="line"/>
      <point x="82" y="335" type="line"/>
      <point x="47" y="405" type="line"/>
      <point x="-3" y="430" type="line"/>
      <point x="-3" y="450" type="line"/>
      <point x="210" y="450" type="line"/>
      <point x="210" y="430" type="line"/>
      <point x="160" y="405" type="line"/>
      <point x="175" y="335" type="line"/>
      <point x="264" y="83" type="line"/>
    </contour>
  </outline>
</glyph>
<glyph name="w" format="1">
  <advance width="735"/>
  <unicode hex="0077"/>
  <outline>
    <contour>
      <point x="416" y="430" type="line"/>
      <point x="529" y="83" type="line"/>
      <point x="603" y="335" type="line"/>
      <point x="614" y="405" type="line"/>
      <point x="560" y="430" type="line"/>
      <point x="560" y="450" type="line"/>
      <point x="745" y="450" type="line"/>
      <point x="745" y="430" type="line"/>
      <point x="691" y="405" type="line"/>
      <point x="650" y="335" type="line"/>
      <point x="537" y="-10" type="line"/>
      <point x="474" y="-10" type="line"/>
      <point x="369" y="305" type="line"/>
      <point x="267" y="-10" type="line"/>
      <point x="204" y="-10" type="line"/>
      <point x="84" y="335" type="line"/>
      <point x="50" y="405" type="line"/>
      <point x="0" y="430" type="line"/>
      <point x="0" y="450" type="line"/>
      <point x="213" y="450" type="line"/>
      <point x="213" y="430" type="line"/>
      <point x="163" y="405" type="line"/>
      <point x="177" y="335" type="line"/>
      <point x="254" y="83" type="line"/>
      <point x="365" y="430" type="line"/>
    </contour>
  </outline>
</glyph>
<glyph name="x" format="1">
  <advance width="470"/>
  <unicode hex="0078"/>
  <outline>
    <contour>
      <point x="267" y="450" type="line"/>
      <point x="452" y="450" type="line"/>
      <point x="452" y="430" type="line"/>
      <point x="390" y="405" type="line"/>
      <point x="336" y="345" type="line"/>
      <point x="252" y="220" type="line"/>
      <point x="216" y="235" type="line"/>
      <point x="287" y="345" type="line"/>
      <point x="314" y="405" type="line"/>
      <point x="267" y="430" type="line"/>
    </contour>
    <contour>
      <point x="160" y="105" type="line"/>
      <point x="131" y="45" type="line"/>
      <point x="178" y="20" type="line"/>
      <point x="178" y="0" type="line"/>
      <point x="-7" y="0" type="line"/>
      <point x="-7" y="20" type="line"/>
      <point x="55" y="45" type="line"/>
      <point x="111" y="105" type="line"/>
      <point x="196" y="230" type="line"/>
      <point x="237" y="215" type="line"/>
    </contour>
    <contour>
      <point x="211" y="335" type="line"/>
      <point x="258" y="256" type="line"/>
      <point x="352" y="115" type="line"/>
      <point x="410" y="45" type="line"/>
      <point x="465" y="20" type="line"/>
      <point x="465" y="0" type="line"/>
      <point x="247" y="0" type="line"/>
      <point x="247" y="20" type="line"/>
      <point x="287" y="45" type="line"/>
      <point x="254" y="115" type="line"/>
      <point x="197" y="207" type="line"/>
      <point x="113" y="335" type="line"/>
      <point x="55" y="405" type="line"/>
      <point x="0" y="430" type="line"/>
      <point x="0" y="450" type="line"/>
      <point x="218" y="450" type="line"/>
      <point x="218" y="430" type="line"/>
      <point x="178" y="405" type="line"/>
    </contour>
  </outline>
</glyph>
<glyph name="y" format="1">
  <advance width="455"/>
  <unicode hex="0079"/>
  <outline>
    <contour>
      <point x="220" y="-210" type="move" name="bottom"/>
    </contour>
    <contour>
      <point x="240" y="450" type="move" name="top"/>
    </contour>
    <contour>
      <point x="76" y="-220" type="curve" smooth="yes"/>
      <point x="45" y="-220"/>
      <point x="21" y="-216"/>
      <point x="1" y="-208" type="curve"/>
      <point x="25" y="-122" type="line"/>
      <point x="49" y="-131"/>
      <point x="91" y="-143"/>
      <point x="122" y="-143" type="curve" smooth="yes"/>
      <point x="163" y="-143"/>
      <point x="185" y="-120"/>
      <point x="201" y="-59" type="curve" smooth="yes"/>
      <point x="210" y="-25" type="line"/>
      <point x="71" y="335" type="line"/>
      <point x="35" y="405" type="line"/>
      <point x="-15" y="430" type="line"/>
      <point x="-15" y="450" type="line"/>
      <point x="198" y="450" type="line"/>
      <point x="198" y="430" type="line"/>
      <point x="148" y="405" type="line"/>
      <point x="164" y="335" type="line"/>
      <point x="256" y="88" type="line"/>
      <point x="339" y="335" type="line"/>
      <point x="349" y="405" type="line"/>
      <point x="290" y="430" type="line"/>
      <point x="290" y="450" type="line"/>
      <point x="475" y="450" type="line"/>
      <point x="475" y="430" type="line"/>
      <point x="426" y="405" type="line"/>
      <point x="386" y="335" type="line"/>
      <point x="254" y="-35" type="line" smooth="yes"/>
      <point x="201" y="-183"/>
      <point x="151" y="-220"/>
    </contour>
  </outline>
</glyph>
<glyph name="z" format="1">
  <advance width="450"/>
  <unicode hex="007A"/>
  <outline>
    <contour>
      <point x="60" y="455" type="line"/>
      <point x="160" y="450" type="line"/>
      <point x="400" y="450" type="line"/>
      <point x="400" y="430" type="line"/>
      <point x="153" y="37" type="line"/>
      <point x="277" y="37" type="line"/>
      <point x="347" y="52" type="line"/>
      <point x="367" y="130" type="line"/>
      <point x="410" y="125" type="line"/>
      <point x="403" y="0" type="line"/>
      <point x="40" y="0" type="line"/>
      <point x="40" y="20" type="line"/>
      <point x="287" y="413" type="line"/>
      <point x="186" y="413" type="line"/>
      <point x="116" y="398" type="line"/>
      <point x="96" y="319" type="line"/>
      <point x="53" y="323" type="line"/>
    </contour>
  </outline>
</glyph>
<glyph name="braceleft" format="1">
  <advance width="325"/>
  <unicode hex="007B"/>
  <outline>
    <contour>
      <point x="50" y="250" type="curve"/>
      <point x="50" y="280" type="line"/>
      <point x="110" y="290"/>
      <point x="127.083" y="315.007"/>
      <point x="120" y="400" type="curve" smooth="yes"/>
      <point x="110" y="520" type="line" smooth="yes"/>
      <point x="99.4276" y="646.869"/>
      <point x="145" y="690"/>
      <point x="275" y="690" type="curve"/>
      <point x="275" y="665" type="line"/>
      <point x="205" y="655"/>
      <point x="180.134" y="628.661"/>
      <point x="190" y="530" type="curve" smooth="yes"/>
      <point x="200" y="430" type="line" smooth="yes"/>
      <point x="211.345" y="316.55"/>
      <point x="160" y="280"/>
      <point x="115" y="265" type="curve"/>
      <point x="160" y="250"/>
      <point x="211.345" y="213.45"/>
      <point x="200" y="100" type="curve" smooth="yes"/>
      <point x="190" y="0" type="line" smooth="yes"/>
      <point x="180.134" y="-98.6611"/>
      <point x="205" y="-125"/>
      <point x="275" y="-135" type="curve"/>
      <point x="275" y="-160" type="line"/>
      <point x="145" y="-160"/>
      <point x="99.4277" y="-116.869"/>
      <point x="110" y="10" type="curve" smooth="yes"/>
      <point x="120" y="130" type="line" smooth="yes"/>
      <point x="127.083" y="214.993"/>
      <point x="110" y="240"/>
    </contour>
  </outline>
</glyph>
<glyph name="bar" format="1">
  <advance width="250"/>
  <unicode hex="007C"/>
  <outline>
    <contour>
      <point x="100" y="790" type="line"/>
      <point x="150" y="790" type="line"/>
      <point x="150" y="-210" type="line"/>
      <point x="100" y="-210" type="line"/>
    </contour>
  </outline>
</glyph>
<glyph name="asciitilde" format="1">
  <advance width="500"/>
  <unicode hex="007E"/>
  <outline>
    <contour>
      <point x="180" y="320" type="curve" smooth="yes"/>
      <point x="245" y="320"/>
      <point x="285" y="250"/>
      <point x="345" y="250" type="curve" smooth="yes"/>
      <point x="380" y="250"/>
      <point x="405" y="270"/>
      <point x="440" y="310" type="curve"/>
      <point x="465" y="285" type="line"/>
      <point x="410" y="220"/>
      <point x="365" y="185"/>
      <point x="320" y="185" type="curve" smooth="yes"/>
      <point x="255" y="185"/>
      <point x="215" y="255"/>
      <point x="155" y="255" type="curve" smooth="yes"/>
      <point x="120" y="255"/>
      <point x="95" y="235"/>
      <point x="60" y="195" type="curve"/>
      <point x="35" y="220" type="line"/>
      <point x="90" y="285"/>
      <point x="135" y="320"/>
    </contour>
  </outline>
</glyph>
<glyph name="cent" format="1">
  <advance width="440"/>
  <unicode hex="00A2"/>
  <outline>
    <contour>
      <point x="200" y="590" type="line"/>
      <point x="280" y="590" type="line"/>
      <point x="265" y="450" type="line"/>
      <point x="215" y="450" type="line"/>
    </contour>
    <contour>
      <point x="210" y="0" type="line"/>
      <point x="260" y="0" type="line"/>
      <point x="275" y="-140" type="line"/>
      <point x="195" y="-140" type="line"/>
    </contour>
    <component base="c"/>
  </outline>
</glyph>
<glyph name="sterling" format="1">
  <advance width="520"/>
  <unicode hex="00A3"/>
  <outline>
    <contour>
      <point x="345" y="350" type="line"/>
      <point x="345" y="300" type="line"/>
      <point x="40" y="300" type="line"/>
      <point x="40" y="315" type="line"/>
      <point x="80" y="350" type="line"/>
    </contour>
    <contour>
      <point x="145" y="5" type="line"/>
      <point x="30" y="-10" type="line"/>
      <point x="25" y="10" type="line"/>
      <point x="90" y="45" type="line"/>
      <point x="125" y="115" type="line"/>
      <point x="125" y="410" type="line" smooth="yes"/>
      <point x="125" y="515"/>
      <point x="190" y="640"/>
      <point x="315" y="640" type="curve" smooth="yes"/>
      <point x="365" y="640"/>
      <point x="420" y="625"/>
      <point x="440" y="615" type="curve"/>
      <point x="410" y="530" type="line"/>
      <point x="380" y="545"/>
      <point x="330" y="565"/>
      <point x="285" y="565" type="curve" smooth="yes"/>
      <point x="220" y="565"/>
      <point x="202" y="543"/>
      <point x="202" y="511" type="curve" smooth="yes"/>
      <point x="202" y="476"/>
      <point x="210" y="428"/>
      <point x="210" y="385" type="curve" smooth="yes"/>
      <point x="210" y="300" type="line"/>
      <point x="185" y="115" type="line"/>
      <point x="160" y="60" type="line"/>
      <point x="365" y="70" type="line"/>
      <point x="470" y="100" type="line"/>
      <point x="460" y="-10" type="line"/>
    </contour>
  </outline>
</glyph>
<glyph name="currency" format="1">
  <advance width="520"/>
  <unicode hex="00A4"/>
  <outline>
    <contour>
      <point x="398" y="378" type="line"/>
      <point x="363" y="413" type="line"/>
      <point x="450" y="521" type="line"/>
      <point x="506" y="465" type="line"/>
    </contour>
    <contour>
      <point x="70" y="69" type="line"/>
      <point x="14" y="125" type="line"/>
      <point x="122" y="212" type="line"/>
      <point x="157" y="177" type="line"/>
    </contour>
    <contour>
      <point x="363" y="177" type="line"/>
      <point x="398" y="212" type="line"/>
      <point x="506" y="125" type="line"/>
      <point x="450" y="69" type="line"/>
    </contour>
    <contour>
      <point x="14" y="465" type="line"/>
      <point x="70" y="521" type="line"/>
      <point x="157" y="413" type="line"/>
      <point x="122" y="378" type="line"/>
    </contour>
    <contour>
      <point x="260" y="410" type="curve" smooth="yes"/>
      <point x="210" y="410"/>
      <point x="180" y="370"/>
      <point x="180" y="295" type="curve" smooth="yes"/>
      <point x="180" y="220"/>
      <point x="210" y="180"/>
      <point x="260" y="180" type="curve" smooth="yes"/>
      <point x="310" y="180"/>
      <point x="340" y="220"/>
      <point x="340" y="295" type="curve" smooth="yes"/>
      <point x="340" y="370"/>
      <point x="310" y="410"/>
    </contour>
    <contour>
      <point x="260" y="140" type="curve" smooth="yes"/>
      <point x="165" y="140"/>
      <point x="95" y="190"/>
      <point x="95" y="290" type="curve" smooth="yes"/>
      <point x="95" y="390"/>
      <point x="165" y="450"/>
      <point x="260" y="450" type="curve" smooth="yes"/>
      <point x="355" y="450"/>
      <point x="425" y="400"/>
      <point x="425" y="300" type="curve" smooth="yes"/>
      <point x="425" y="200"/>
      <point x="355" y="140"/>
    </contour>
  </outline>
</glyph>
<glyph name="yen" format="1">
  <advance width="520"/>
  <unicode hex="00A5"/>
  <outline>
    <contour>
      <point x="430" y="180" type="line"/>
      <point x="430" y="130" type="line"/>
      <point x="80" y="130" type="line"/>
      <point x="80" y="145" type="line"/>
      <point x="120" y="180" type="line"/>
    </contour>
    <contour>
      <point x="430" y="305" type="line"/>
      <point x="430" y="255" type="line"/>
      <point x="80" y="255" type="line"/>
      <point x="80" y="270" type="line"/>
      <point x="120" y="305" type="line"/>
    </contour>
    <contour>
      <point x="225" y="255" type="line"/>
      <point x="295" y="255" type="line"/>
      <point x="300" y="130" type="line"/>
      <point x="320" y="47" type="line"/>
      <point x="395" y="22" type="line"/>
      <point x="395" y="0" type="line"/>
      <point x="125" y="0" type="line"/>
      <point x="125" y="22" type="line"/>
      <point x="200" y="47" type="line"/>
      <point x="220" y="130" type="line"/>
    </contour>
    <contour>
      <point x="0" y="630" type="line"/>
      <point x="230" y="630" type="line"/>
      <point x="230" y="608" type="line"/>
      <point x="180" y="583" type="line"/>
      <point x="209" y="513" type="line"/>
      <point x="285" y="364" type="line"/>
      <point x="353" y="513" type="line"/>
      <point x="375" y="583" type="line"/>
      <point x="321" y="608" type="line"/>
      <point x="321" y="630" type="line"/>
      <point x="520" y="630" type="line"/>
      <point x="520" y="608" type="line"/>
      <point x="456" y="583" type="line"/>
      <point x="404" y="513" type="line"/>
      <point x="300" y="305" type="line"/>
      <point x="220" y="305" type="line"/>
      <point x="109" y="513" type="line"/>
      <point x="60" y="583" type="line"/>
      <point x="0" y="608" type="line"/>
    </contour>
  </outline>
</glyph>
<glyph name="brokenbar" format="1">
  <advance width="250"/>
  <unicode hex="00A6"/>
  <outline>
    <contour>
      <point x="100" y="130" type="line"/>
      <point x="150" y="130" type="line"/>
      <point x="150" y="-210" type="line"/>
      <point x="100" y="-210" type="line"/>
    </contour>
    <contour>
      <point x="100" y="790" type="line"/>
      <point x="150" y="790" type="line"/>
      <point x="150" y="450" type="line"/>
      <point x="100" y="450" type="line"/>
    </contour>
  </outline>
</glyph>
<glyph name="section" format="1">
  <advance width="520"/>
  <unicode hex="00A7"/>
  <outline>
    <contour>
      <point x="260" y="378" type="line"/>
      <point x="210" y="378"/>
      <point x="175" y="350"/>
      <point x="175" y="310" type="curve" smooth="yes"/>
      <point x="175" y="210"/>
      <point x="420" y="240"/>
      <point x="420" y="90" type="curve" smooth="yes"/>
      <point x="420" y="-15"/>
      <point x="330" y="-55"/>
      <point x="225" y="-55" type="curve" smooth="yes"/>
      <point x="185" y="-55"/>
      <point x="140" y="-50"/>
      <point x="110" y="-35" type="curve"/>
      <point x="105" y="85" type="line"/>
      <point x="155" y="90" type="line"/>
      <point x="175" y="10" type="line"/>
      <point x="195" y="-5"/>
      <point x="225" y="-10"/>
      <point x="255" y="-10" type="curve" smooth="yes"/>
      <point x="300" y="-10"/>
      <point x="345" y="5"/>
      <point x="345" y="50" type="curve" smooth="yes"/>
      <point x="345" y="155"/>
      <point x="105" y="120"/>
      <point x="105" y="275" type="curve" smooth="yes"/>
      <point x="105" y="365"/>
      <point x="175" y="415"/>
      <point x="265" y="415" type="curve"/>
    </contour>
    <contour>
      <point x="255" y="230" type="line"/>
      <point x="300" y="230"/>
      <point x="345" y="250"/>
      <point x="345" y="295" type="curve" smooth="yes"/>
      <point x="345" y="400"/>
      <point x="105" y="365"/>
      <point x="105" y="520" type="curve" smooth="yes"/>
      <point x="105" y="610"/>
      <point x="175" y="660"/>
      <point x="265" y="660" type="curve" smooth="yes"/>
      <point x="320" y="660"/>
      <point x="375" y="650"/>
      <point x="405" y="635" type="curve"/>
      <point x="405" y="520" type="line"/>
      <point x="355" y="515" type="line"/>
      <point x="340" y="590" type="line"/>
      <point x="325" y="605"/>
      <point x="295" y="618"/>
      <point x="255" y="618" type="curve" smooth="yes"/>
      <point x="210" y="618"/>
      <point x="175" y="595"/>
      <point x="175" y="555" type="curve" smooth="yes"/>
      <point x="175" y="455"/>
      <point x="420" y="485"/>
      <point x="420" y="335" type="curve" smooth="yes"/>
      <point x="420" y="230"/>
      <point x="330" y="190"/>
      <point x="225" y="190" type="curve"/>
    </contour>
  </outline>
</glyph>
<glyph name="copyright" format="1">
  <advance width="800"/>
  <unicode hex="00A9"/>
  <outline>
    <contour>
      <point x="400" y="610" type="curve" smooth="yes"/>
      <point x="239" y="610"/>
      <point x="115" y="486"/>
      <point x="115" y="325" type="curve" smooth="yes"/>
      <point x="115" y="164"/>
      <point x="239" y="40"/>
      <point x="400" y="40" type="curve" smooth="yes"/>
      <point x="561" y="40"/>
      <point x="685" y="164"/>
      <point x="685" y="325" type="curve" smooth="yes"/>
      <point x="685" y="486"/>
      <point x="561" y="610"/>
    </contour>
    <contour>
      <point x="400" y="660" type="curve" smooth="yes"/>
      <point x="590" y="660"/>
      <point x="735" y="515"/>
      <point x="735" y="325" type="curve" smooth="yes"/>
      <point x="735" y="135"/>
      <point x="590" y="-10"/>
      <point x="400" y="-10" type="curve" smooth="yes"/>
      <point x="210" y="-10"/>
      <point x="65" y="135"/>
      <point x="65" y="325" type="curve" smooth="yes"/>
      <point x="65" y="515"/>
      <point x="210" y="660"/>
    </contour>
    <contour>
      <point x="440" y="187" type="curve" smooth="yes"/>
      <point x="465" y="187"/>
      <point x="480" y="190"/>
      <point x="495" y="195" type="curve"/>
      <point x="504" y="265" type="line"/>
      <point x="545" y="260" type="line"/>
      <point x="540" y="155" type="line"/>
      <point x="500" y="145"/>
      <point x="480" y="140"/>
      <point x="430" y="140" type="curve" smooth="yes"/>
      <point x="280" y="140"/>
      <point x="220" y="200"/>
      <point x="220" y="320" type="curve" smooth="yes"/>
      <point x="220" y="440"/>
      <point x="290" y="510"/>
      <point x="420" y="510" type="curve" smooth="yes"/>
      <point x="470" y="510"/>
      <point x="500" y="505"/>
      <point x="540" y="495" type="curve"/>
      <point x="540" y="390" type="line"/>
      <point x="500" y="387" type="line"/>
      <point x="490" y="450" type="line"/>
      <point x="470" y="460"/>
      <point x="455" y="463"/>
      <point x="420" y="463" type="curve" smooth="yes"/>
      <point x="350" y="463"/>
      <point x="310" y="417"/>
      <point x="310" y="332" type="curve" smooth="yes"/>
      <point x="310" y="232"/>
      <point x="350" y="187"/>
    </contour>
  </outline>
</glyph>
<glyph name="ordfeminine" format="1">
  <advance width="355"/>
  <unicode hex="00AA"/>
  <outline>
    <contour>
      <point x="177" y="637" type="curve" smooth="yes"/>
      <point x="247" y="637"/>
      <point x="288" y="602"/>
      <point x="288" y="512" type="curve" smooth="yes"/>
      <point x="288" y="407" type="line"/>
      <point x="299" y="357" type="line"/>
      <point x="345" y="346" type="line"/>
      <point x="345" y="326" type="line"/>
      <point x="216" y="301" type="line"/>
      <point x="222" y="369" type="line"/>
      <point x="218" y="433" type="line"/>
      <point x="218" y="505" type="line" smooth="yes"/>
      <point x="218" y="559"/>
      <point x="192" y="583"/>
      <point x="146" y="583" type="curve" smooth="yes"/>
      <point x="113" y="583"/>
      <point x="85" y="565"/>
      <point x="70" y="550" type="curve"/>
      <point x="54" y="563" type="line"/>
      <point x="74" y="598"/>
      <point x="106" y="637"/>
    </contour>
    <contour>
      <point x="218" y="490" type="curve"/>
      <point x="218" y="455" type="line"/>
      <point x="142" y="455"/>
      <point x="112" y="440"/>
      <point x="112" y="399" type="curve" smooth="yes"/>
      <point x="112" y="370"/>
      <point x="130" y="357"/>
      <point x="156" y="357" type="curve" smooth="yes"/>
      <point x="180" y="357"/>
      <point x="218" y="383"/>
      <point x="218" y="433" type="curve"/>
      <point x="222" y="369" type="line"/>
      <point x="208" y="334"/>
      <point x="172" y="301"/>
      <point x="126" y="301" type="curve" smooth="yes"/>
      <point x="67" y="301"/>
      <point x="35" y="334"/>
      <point x="35" y="383" type="curve" smooth="yes"/>
      <point x="35" y="444"/>
      <point x="80" y="490"/>
    </contour>
  </outline>
</glyph>
<glyph name="guillemotleft" format="1">
  <advance width="500"/>
  <unicode hex="00AB"/>
  <outline>
    <contour>
      <point x="255" y="245" type="line"/>
      <point x="425" y="425" type="line"/>
      <point x="455" y="400" type="line"/>
      <point x="370" y="255" type="line"/>
      <point x="455" y="100" type="line"/>
      <point x="425" y="75" type="line"/>
    </contour>
    <contour>
      <point x="45" y="245" type="line"/>
      <point x="215" y="425" type="line"/>
      <point x="245" y="400" type="line"/>
      <point x="160" y="255" type="line"/>
      <point x="245" y="100" type="line"/>
      <point x="215" y="75" type="line"/>
    </contour>
  </outline>
</glyph>
<glyph name="logicalnot" format="1">
  <advance width="540"/>
  <unicode hex="00AC"/>
  <outline>
    <contour>
      <point x="440" y="320" type="line"/>
      <point x="490" y="370" type="line"/>
      <point x="490" y="130" type="line"/>
      <point x="440" y="130" type="line"/>
    </contour>
    <contour>
      <point x="50" y="370" type="line"/>
      <point x="490" y="370" type="line"/>
      <point x="440" y="320" type="line"/>
      <point x="50" y="320" type="line"/>
    </contour>
  </outline>
</glyph>
<glyph name="registered" format="1">
  <advance width="800"/>
  <unicode hex="00AE"/>
  <outline>
    <contour>
      <point x="400" y="610" type="curve" smooth="yes"/>
      <point x="239" y="610"/>
      <point x="115" y="486"/>
      <point x="115" y="325" type="curve" smooth="yes"/>
      <point x="115" y="164"/>
      <point x="239" y="40"/>
      <point x="400" y="40" type="curve" smooth="yes"/>
      <point x="561" y="40"/>
      <point x="685" y="164"/>
      <point x="685" y="325" type="curve" smooth="yes"/>
      <point x="685" y="486"/>
      <point x="561" y="610"/>
    </contour>
    <contour>
      <point x="400" y="660" type="curve" smooth="yes"/>
      <point x="590" y="660"/>
      <point x="735" y="515"/>
      <point x="735" y="325" type="curve" smooth="yes"/>
      <point x="735" y="135"/>
      <point x="590" y="-10"/>
      <point x="400" y="-10" type="curve" smooth="yes"/>
      <point x="210" y="-10"/>
      <point x="65" y="135"/>
      <point x="65" y="325" type="curve" smooth="yes"/>
      <point x="65" y="515"/>
      <point x="210" y="660"/>
    </contour>
    <contour>
      <point x="220" y="500" type="line"/>
      <point x="405" y="500" type="line" smooth="yes"/>
      <point x="515" y="500"/>
      <point x="555" y="475"/>
      <point x="555" y="405" type="curve" smooth="yes"/>
      <point x="555" y="355"/>
      <point x="515" y="325"/>
      <point x="465" y="315" type="curve"/>
      <point x="515" y="250" type="line"/>
      <point x="569" y="190" type="line"/>
      <point x="610" y="170" type="line"/>
      <point x="610" y="150" type="line"/>
      <point x="484" y="150" type="line"/>
      <point x="440" y="230" type="line"/>
      <point x="380" y="325" type="line"/>
      <point x="450" y="325"/>
      <point x="470" y="360"/>
      <point x="470" y="400" type="curve" smooth="yes"/>
      <point x="470" y="440"/>
      <point x="450" y="460"/>
      <point x="385" y="460" type="curve" smooth="yes"/>
      <point x="360" y="460" type="line"/>
      <point x="360" y="250" type="line"/>
      <point x="375" y="190" type="line"/>
      <point x="415" y="170" type="line"/>
      <point x="415" y="150" type="line"/>
      <point x="215" y="150" type="line"/>
      <point x="215" y="170" type="line"/>
      <point x="270" y="190" type="line"/>
      <point x="285" y="250" type="line"/>
      <point x="285" y="400" type="line"/>
      <point x="270" y="460" type="line"/>
      <point x="220" y="480" type="line"/>
    </contour>
  </outline>
</glyph>
<glyph name="degree" format="1">
  <advance width="430"/>
  <unicode hex="00B0"/>
  <outline>
    <contour>
      <point x="215" y="635" type="curve" smooth="yes"/>
      <point x="155" y="635"/>
      <point x="115" y="595"/>
      <point x="115" y="520" type="curve" smooth="yes"/>
      <point x="115" y="440"/>
      <point x="155" y="395"/>
      <point x="215" y="395" type="curve" smooth="yes"/>
      <point x="275" y="395"/>
      <point x="315" y="435"/>
      <point x="315" y="510" type="curve" smooth="yes"/>
      <point x="315" y="590"/>
      <point x="275" y="635"/>
    </contour>
    <contour>
      <point x="215" y="350" type="curve" smooth="yes"/>
      <point x="110" y="350"/>
      <point x="50" y="415"/>
      <point x="50" y="515" type="curve" smooth="yes"/>
      <point x="50" y="610"/>
      <point x="115" y="680"/>
      <point x="215" y="680" type="curve" smooth="yes"/>
      <point x="320" y="680"/>
      <point x="380" y="615"/>
      <point x="380" y="515" type="curve" smooth="yes"/>
      <point x="380" y="420"/>
      <point x="315" y="350"/>
    </contour>
  </outline>
</glyph>
<glyph name="plusminus" format="1">
  <advance width="600"/>
  <unicode hex="00B1"/>
  <outline>
    <contour>
      <point x="50" y="50" type="line"/>
      <point x="550" y="50" type="line"/>
      <point x="550" y="0" type="line"/>
      <point x="50" y="0" type="line"/>
    </contour>
    <contour>
      <point x="50" y="370" type="line"/>
      <point x="550" y="370" type="line"/>
      <point x="550" y="320" type="line"/>
      <point x="50" y="320" type="line"/>
    </contour>
    <contour>
      <point x="275" y="595" type="line"/>
      <point x="325" y="595" type="line"/>
      <point x="325" y="95" type="line"/>
      <point x="275" y="95" type="line"/>
    </contour>
  </outline>
</glyph>
<glyph name="paragraph" format="1">
  <advance width="520"/>
  <unicode hex="00B6"/>
  <outline>
    <contour>
      <point x="355" y="630" type="line"/>
      <point x="490" y="630" type="line"/>
      <point x="490" y="608" type="line"/>
      <point x="420" y="583" type="line"/>
      <point x="405" y="503" type="line"/>
      <point x="405" y="0" type="line"/>
      <point x="355" y="0" type="line"/>
    </contour>
    <contour>
      <point x="250" y="630" type="curve" smooth="yes"/>
      <point x="300" y="630" type="line"/>
      <point x="300" y="0" type="line"/>
      <point x="250" y="0" type="line"/>
      <point x="250" y="250" type="line"/>
      <point x="100" y="250"/>
      <point x="25" y="320"/>
      <point x="25" y="440" type="curve" smooth="yes"/>
      <point x="25" y="560"/>
      <point x="100" y="630"/>
    </contour>
  </outline>
</glyph>
<glyph name="ordmasculine" format="1">
  <advance width="390"/>
  <unicode hex="00BA"/>
  <outline>
    <contour>
      <point x="190" y="598" type="curve" smooth="yes"/>
      <point x="140" y="598"/>
      <point x="117" y="553"/>
      <point x="117" y="474" type="curve" smooth="yes"/>
      <point x="117" y="388"/>
      <point x="140" y="340"/>
      <point x="200" y="340" type="curve" smooth="yes"/>
      <point x="250" y="340"/>
      <point x="273" y="385"/>
      <point x="273" y="464" type="curve" smooth="yes"/>
      <point x="273" y="550"/>
      <point x="250" y="598"/>
    </contour>
    <contour>
      <point x="197" y="301" type="curve" smooth="yes"/>
      <point x="91" y="301"/>
      <point x="35" y="367"/>
      <point x="35" y="465" type="curve" smooth="yes"/>
      <point x="35" y="563"/>
      <point x="99" y="637"/>
      <point x="193" y="637" type="curve" smooth="yes"/>
      <point x="299" y="637"/>
      <point x="355" y="571"/>
      <point x="355" y="473" type="curve" smooth="yes"/>
      <point x="355" y="375"/>
      <point x="291" y="301"/>
    </contour>
  </outline>
</glyph>
<glyph name="AE" format="1">
  <advance width="870"/>
  <unicode hex="00C6"/>
  <outline>
    <contour>
      <point x="445" y="0" type="move" name="bottom"/>
    </contour>
    <contour>
      <point x="515" y="650" type="move" name="top"/>
    </contour>
    <contour>
      <point x="176" y="275" type="line"/>
      <point x="439" y="275" type="line"/>
      <point x="439" y="235" type="line"/>
      <point x="176" y="235" type="line"/>
    </contour>
    <contour>
      <point x="325" y="650" type="line"/>
      <point x="360" y="610" type="line"/>
      <point x="152" y="127" type="line"/>
      <point x="129" y="47" type="line"/>
      <point x="193" y="22" type="line"/>
      <point x="193" y="0" type="line"/>
      <point x="-15" y="0" type="line"/>
      <point x="-15" y="22" type="line"/>
      <point x="49" y="47" type="line"/>
      <point x="102" y="127" type="line"/>
      <point x="295" y="560" type="line"/>
    </contour>
    <contour>
      <point x="505" y="350" type="line"/>
      <point x="580" y="350" type="line"/>
      <point x="660" y="360" type="line"/>
      <point x="675" y="440" type="line"/>
      <point x="707" y="440" type="line"/>
      <point x="707" y="220" type="line"/>
      <point x="675" y="220" type="line"/>
      <point x="660" y="300" type="line"/>
      <point x="580" y="310" type="line"/>
      <point x="505" y="310" type="line"/>
    </contour>
    <contour>
      <point x="325" y="650" type="line"/>
      <point x="798" y="650" type="line"/>
      <point x="805" y="506" type="line"/>
      <point x="765" y="502" type="line"/>
      <point x="742" y="595" type="line"/>
      <point x="662" y="610" type="line"/>
      <point x="505" y="610" type="line"/>
      <point x="505" y="55" type="line"/>
      <point x="585" y="40" type="line"/>
      <point x="682" y="40" type="line"/>
      <point x="762" y="55" type="line"/>
      <point x="787" y="148" type="line"/>
      <point x="828" y="143" type="line"/>
      <point x="818" y="0" type="line"/>
      <point x="325" y="0" type="line"/>
      <point x="325" y="22" type="line"/>
      <point x="400" y="47" type="line"/>
      <point x="415" y="127" type="line"/>
      <point x="415" y="595" type="line"/>
      <point x="360" y="610" type="line"/>
    </contour>
  </outline>
</glyph>
<glyph name="Eth" format="1">
  <advance width="680"/>
  <unicode hex="00D0"/>
  <outline>
    <contour>
      <point x="59" y="350" type="line"/>
      <point x="330" y="350" type="line"/>
      <point x="330" y="300" type="line"/>
      <point x="20" y="300" type="line"/>
      <point x="20" y="315" type="line"/>
    </contour>
    <component base="D"/>
  </outline>
</glyph>
<glyph name="multiply" format="1">
  <advance width="600"/>
  <unicode hex="00D7"/>
  <outline>
    <contour>
      <point x="65" y="48" type="line"/>
      <point x="500" y="487" type="line"/>
      <point x="535" y="452" type="line"/>
      <point x="100" y="13" type="line"/>
    </contour>
    <contour>
      <point x="65" y="452" type="line"/>
      <point x="100" y="487" type="line"/>
      <point x="535" y="48" type="line"/>
      <point x="500" y="13" type="line"/>
    </contour>
  </outline>
</glyph>
<glyph name="Oslash" format="1">
  <advance width="710"/>
  <unicode hex="00D8"/>
  <outline>
    <contour>
      <point x="566" y="725" type="line"/>
      <point x="610" y="700" type="line"/>
      <point x="144" y="-75" type="line"/>
      <point x="100" y="-50" type="line"/>
    </contour>
    <component base="O"/>
  </outline>
</glyph>
<glyph name="Thorn" format="1">
  <advance width="550"/>
  <unicode hex="00DE"/>
  <outline>
    <contour>
      <point x="210" y="500" type="line"/>
      <point x="210" y="540" type="line"/>
      <point x="295" y="540" type="line" smooth="yes"/>
      <point x="450" y="540"/>
      <point x="520" y="470"/>
      <point x="520" y="360" type="curve" smooth="yes"/>
      <point x="520" y="260"/>
      <point x="430" y="160"/>
      <point x="280" y="160" type="curve" smooth="yes"/>
      <point x="210" y="160" type="line"/>
      <point x="210" y="205" type="line"/>
      <point x="270" y="200" type="line"/>
      <point x="364" y="200"/>
      <point x="420" y="260"/>
      <point x="420" y="360" type="curve" smooth="yes"/>
      <point x="420" y="450"/>
      <point x="377" y="500"/>
      <point x="270" y="500" type="curve" smooth="yes"/>
    </contour>
    <contour>
      <point x="35" y="650" type="line"/>
      <point x="225" y="650" type="line"/>
      <point x="210" y="540" type="line"/>
      <point x="210" y="500" type="line"/>
      <point x="210" y="127" type="line"/>
      <point x="225" y="47" type="line"/>
      <point x="300" y="22" type="line"/>
      <point x="300" y="0" type="line"/>
      <point x="30" y="0" type="line"/>
      <point x="30" y="22" type="line"/>
      <point x="105" y="47" type="line"/>
      <point x="120" y="127" type="line"/>
      <point x="120" y="523" type="line"/>
      <point x="105" y="603" type="line"/>
      <point x="35" y="628" type="line"/>
    </contour>
  </outline>
</glyph>
<glyph name="germandbls" format="1">
  <advance width="580"/>
  <unicode hex="00DF"/>
  <outline>
    <contour>
      <point x="465" y="550" type="curve" smooth="yes"/>
      <point x="465" y="450"/>
      <point x="340" y="410"/>
      <point x="340" y="350" type="curve" smooth="yes"/>
      <point x="340" y="270"/>
      <point x="530" y="300"/>
      <point x="530" y="145" type="curve" smooth="yes"/>
      <point x="530" y="35"/>
      <point x="435" y="-10"/>
      <point x="325" y="-10" type="curve" smooth="yes"/>
      <point x="300" y="-10"/>
      <point x="265" y="-5"/>
      <point x="250" y="0" type="curve"/>
      <point x="245" y="105" type="line"/>
      <point x="290" y="110" type="line"/>
      <point x="310" y="40" type="line"/>
      <point x="325" y="36"/>
      <point x="330" y="35"/>
      <point x="345" y="35" type="curve" smooth="yes"/>
      <point x="405" y="35"/>
      <point x="450" y="60"/>
      <point x="450" y="115" type="curve" smooth="yes"/>
      <point x="450" y="225"/>
      <point x="270" y="195"/>
      <point x="270" y="315" type="curve" smooth="yes"/>
      <point x="270" y="395"/>
      <point x="380" y="435"/>
      <point x="380" y="515" type="curve" smooth="yes"/>
      <point x="380" y="575"/>
      <point x="340" y="620"/>
      <point x="275" y="620" type="curve" smooth="yes"/>
      <point x="200" y="620"/>
      <point x="175" y="575"/>
      <point x="175" y="535" type="curve" smooth="yes"/>
      <point x="175" y="505"/>
      <point x="180" y="493"/>
      <point x="180" y="450" type="curve" smooth="yes"/>
      <point x="180" y="115" type="line"/>
      <point x="190" y="0" type="line"/>
      <point x="20" y="0" type="line"/>
      <point x="20" y="20" type="line"/>
      <point x="80" y="45" type="line"/>
      <point x="95" y="115" type="line"/>
      <point x="95" y="450" type="line" smooth="yes"/>
      <point x="95" y="565"/>
      <point x="170" y="680"/>
      <point x="305" y="680" type="curve" smooth="yes"/>
      <point x="405" y="680"/>
      <point x="465" y="630"/>
    </contour>
  </outline>
</glyph>
<glyph name="acircumflex" format="1">
  <advance width="465"/>
  <unicode hex="00E2"/>
  <outline>
    <contour>
      <point x="225" y="680" type="line"/>
      <point x="385" y="540" type="line"/>
      <point x="360" y="510" type="line"/>
      <point x="225" y="600" type="line"/>
      <point x="90" y="510" type="line"/>
      <point x="65" y="540" type="line"/>
    </contour>
    <component base="a"/>
  </outline>
</glyph>
<glyph name="ae" format="1">
  <advance width="665"/>
  <unicode hex="00E6"/>
  <outline>
    <contour>
      <point x="220" y="450" type="move" name="top"/>
    </contour>
    <contour>
      <point x="225" y="0" type="move" name="bottom"/>
    </contour>
    <contour>
      <point x="290" y="263" type="curve"/>
      <point x="290" y="228" type="line"/>
      <point x="155" y="218"/>
      <point x="130" y="185"/>
      <point x="130" y="127" type="curve" smooth="yes"/>
      <point x="130" y="79"/>
      <point x="153" y="54"/>
      <point x="197" y="54" type="curve" smooth="yes"/>
      <point x="237" y="54"/>
      <point x="295" y="88"/>
      <point x="295" y="175" type="curve"/>
      <point x="330" y="145" type="line"/>
      <point x="325" y="96"/>
      <point x="282" y="-10"/>
      <point x="162" y="-10" type="curve" smooth="yes"/>
      <point x="79" y="-10"/>
      <point x="35" y="36"/>
      <point x="35" y="105" type="curve" smooth="yes"/>
      <point x="35" y="190"/>
      <point x="97" y="253"/>
    </contour>
    <contour>
      <point x="467" y="460" type="curve" smooth="yes"/>
      <point x="576" y="460"/>
      <point x="625" y="394"/>
      <point x="625" y="282" type="curve"/>
      <point x="623" y="253" type="line"/>
      <point x="369" y="233" type="line"/>
      <point x="369" y="268" type="line"/>
      <point x="472" y="278" type="line"/>
      <point x="532" y="293" type="line"/>
      <point x="532" y="369"/>
      <point x="518" y="417"/>
      <point x="460" y="417" type="curve" smooth="yes"/>
      <point x="395" y="417"/>
      <point x="375" y="343"/>
      <point x="375" y="279" type="curve" smooth="yes"/>
      <point x="375" y="129"/>
      <point x="412" y="54"/>
      <point x="506" y="54" type="curve" smooth="yes"/>
      <point x="544" y="54"/>
      <point x="588" y="65"/>
      <point x="616" y="91" type="curve"/>
      <point x="630" y="78" type="line"/>
      <point x="591" y="21"/>
      <point x="549" y="-10"/>
      <point x="473" y="-10" type="curve" smooth="yes"/>
      <point x="336" y="-10"/>
      <point x="290" y="83"/>
      <point x="290" y="220" type="curve" smooth="yes"/>
      <point x="290" y="275" type="line" smooth="yes"/>
      <point x="290" y="358"/>
      <point x="255" y="392"/>
      <point x="190" y="392" type="curve" smooth="yes"/>
      <point x="137" y="392"/>
      <point x="106" y="371"/>
      <point x="77" y="343" type="curve"/>
      <point x="61" y="356" type="line"/>
      <point x="83" y="407"/>
      <point x="135" y="460"/>
      <point x="220" y="460" type="curve" smooth="yes"/>
      <point x="282" y="460"/>
      <point x="330" y="435"/>
      <point x="345" y="385" type="curve"/>
      <point x="370" y="425"/>
      <point x="407" y="460"/>
    </contour>
  </outline>
</glyph>
<glyph name="eth" format="1">
  <advance width="500"/>
  <unicode hex="00F0"/>
  <outline>
    <contour>
      <point x="385" y="680" type="line"/>
      <point x="410" y="630" type="line"/>
      <point x="135" y="500" type="line"/>
      <point x="115" y="540" type="line"/>
    </contour>
    <contour>
      <point x="230" y="-10" type="curve" smooth="yes"/>
      <point x="120" y="-10"/>
      <point x="35" y="66"/>
      <point x="35" y="205" type="curve" smooth="yes"/>
      <point x="35" y="342"/>
      <point x="111" y="455"/>
      <point x="247" y="455" type="curve" smooth="yes"/>
      <point x="297" y="455"/>
      <point x="338" y="439"/>
      <point x="360" y="419" type="curve"/>
      <point x="355" y="380" type="line"/>
      <point x="332" y="399"/>
      <point x="302" y="410"/>
      <point x="265" y="410" type="curve" smooth="yes"/>
      <point x="187" y="410"/>
      <point x="125" y="367"/>
      <point x="125" y="227" type="curve" smooth="yes"/>
      <point x="125" y="102"/>
      <point x="180" y="35"/>
      <point x="250" y="35" type="curve" smooth="yes"/>
      <point x="310" y="35"/>
      <point x="365" y="90"/>
      <point x="365" y="250" type="curve" smooth="yes"/>
      <point x="365" y="430"/>
      <point x="305" y="570"/>
      <point x="155" y="650" type="curve"/>
      <point x="175" y="680" type="line"/>
      <point x="355" y="620"/>
      <point x="455" y="475"/>
      <point x="455" y="275" type="curve" smooth="yes"/>
      <point x="455" y="75"/>
      <point x="360" y="-10"/>
    </contour>
  </outline>
</glyph>
<glyph name="divide" format="1">
  <advance width="600"/>
  <unicode hex="00F7"/>
  <outline>
    <contour>
      <point x="245" y="85" type="curve" smooth="yes"/>
      <point x="245" y="117"/>
      <point x="268" y="140"/>
      <point x="300" y="140" type="curve" smooth="yes"/>
      <point x="332" y="140"/>
      <point x="355" y="117"/>
      <point x="355" y="85" type="curve" smooth="yes"/>
      <point x="355" y="53"/>
      <point x="332" y="30"/>
      <point x="300" y="30" type="curve" smooth="yes"/>
      <point x="268" y="30"/>
      <point x="245" y="53"/>
    </contour>
    <contour>
      <point x="245" y="415" type="curve" smooth="yes"/>
      <point x="245" y="447"/>
      <point x="268" y="470"/>
      <point x="300" y="470" type="curve" smooth="yes"/>
      <point x="332" y="470"/>
      <point x="355" y="447"/>
      <point x="355" y="415" type="curve" smooth="yes"/>
      <point x="355" y="383"/>
      <point x="332" y="360"/>
      <point x="300" y="360" type="curve" smooth="yes"/>
      <point x="268" y="360"/>
      <point x="245" y="383"/>
    </contour>
    <contour>
      <point x="50" y="275" type="line"/>
      <point x="550" y="275" type="line"/>
      <point x="550" y="225" type="line"/>
      <point x="50" y="225" type="line"/>
    </contour>
  </outline>
</glyph>
<glyph name="thorn" format="1">
  <advance width="515"/>
  <unicode hex="00FE"/>
  <outline>
    <contour>
      <point x="175" y="680" type="line"/>
      <point x="165" y="560" type="line"/>
      <point x="160" y="336" type="line"/>
      <point x="165" y="301" type="line"/>
      <point x="165" y="55" type="line"/>
      <point x="160" y="11" type="line"/>
      <point x="165" y="-95" type="line"/>
      <point x="180" y="-165" type="line"/>
      <point x="250" y="-190" type="line"/>
      <point x="250" y="-210" type="line"/>
      <point x="10" y="-210" type="line"/>
      <point x="10" y="-190" type="line"/>
      <point x="65" y="-165" type="line"/>
      <point x="80" y="-95" type="line"/>
      <point x="80" y="555" type="line"/>
      <point x="65" y="625" type="line"/>
      <point x="10" y="640" type="line"/>
      <point x="10" y="660" type="line"/>
    </contour>
    <contour>
      <point x="317" y="460" type="curve" smooth="yes"/>
      <point x="415" y="460"/>
      <point x="480" y="384"/>
      <point x="480" y="245" type="curve" smooth="yes"/>
      <point x="480" y="108"/>
      <point x="399" y="-5"/>
      <point x="258" y="-5" type="curve" smooth="yes"/>
      <point x="213" y="-5"/>
      <point x="187" y="1"/>
      <point x="160" y="11" type="curve"/>
      <point x="165" y="55" type="line"/>
      <point x="188" y="45"/>
      <point x="213" y="40"/>
      <point x="250" y="40" type="curve" smooth="yes"/>
      <point x="328" y="40"/>
      <point x="390" y="83"/>
      <point x="390" y="223" type="curve" smooth="yes"/>
      <point x="390" y="335"/>
      <point x="346" y="387"/>
      <point x="275" y="387" type="curve" smooth="yes"/>
      <point x="229" y="387"/>
      <point x="186" y="353"/>
      <point x="165" y="301" type="curve"/>
      <point x="160" y="336" type="line"/>
      <point x="184" y="404"/>
      <point x="230" y="460"/>
    </contour>
  </outline>
</glyph>
<glyph name="Aogonek" format="1">
  <advance width="660"/>
  <unicode hex="0104"/>
  <outline>
    <contour>
      <point x="181" y="275" type="line"/>
      <point x="444" y="275" type="line"/>
      <point x="444" y="235" type="line"/>
      <point x="181" y="235" type="line"/>
    </contour>
    <contour>
      <point x="296" y="660" type="line"/>
      <point x="366" y="660" type="line"/>
      <point x="560" y="127" type="line"/>
      <point x="600" y="47" type="line"/>
      <point x="660" y="22" type="line"/>
      <point x="660" y="0" type="line"/>
      <point x="500" y="0"/>
      <point x="425" y="-50"/>
      <point x="425" y="-95" type="curve" smooth="yes"/>
      <point x="425" y="-135"/>
      <point x="450" y="-160"/>
      <point x="495" y="-160" type="curve" smooth="yes"/>
      <point x="520" y="-160"/>
      <point x="547" y="-155"/>
      <point x="562" y="-150" type="curve"/>
      <point x="570" y="-165" type="line"/>
      <point x="545" y="-195"/>
      <point x="500" y="-220"/>
      <point x="445" y="-220" type="curve" smooth="yes"/>
      <point x="380" y="-220"/>
      <point x="345" y="-190"/>
      <point x="345" y="-135" type="curve" smooth="yes"/>
      <point x="345" y="-90"/>
      <point x="395" y="-40"/>
      <point x="470" y="0" type="curve"/>
      <point x="482" y="47" type="line"/>
      <point x="462" y="127" type="line"/>
      <point x="307" y="564" type="line"/>
      <point x="157" y="127" type="line"/>
      <point x="144" y="47" type="line"/>
      <point x="208" y="22" type="line"/>
      <point x="208" y="0" type="line"/>
      <point x="0" y="0" type="line"/>
      <point x="0" y="22" type="line"/>
      <point x="64" y="47" type="line"/>
      <point x="107" y="127" type="line"/>
    </contour>
  </outline>
</glyph>
<glyph name="Eogonek" format="1">
  <advance width="575"/>
  <unicode hex="0118"/>
  <outline>
    <contour>
      <point x="390" y="0" type="curve"/>
      <point x="523" y="0" type="line"/>
      <point x="423" y="0"/>
      <point x="345" y="-50"/>
      <point x="345" y="-95" type="curve" smooth="yes"/>
      <point x="345" y="-135"/>
      <point x="370" y="-160"/>
      <point x="415" y="-160" type="curve" smooth="yes"/>
      <point x="440" y="-160"/>
      <point x="467" y="-155"/>
      <point x="482" y="-150" type="curve"/>
      <point x="490" y="-165" type="line"/>
      <point x="465" y="-195"/>
      <point x="420" y="-220"/>
      <point x="365" y="-220" type="curve" smooth="yes"/>
      <point x="300" y="-220"/>
      <point x="265" y="-190"/>
      <point x="265" y="-135" type="curve" smooth="yes"/>
      <point x="265" y="-90"/>
      <point x="315" y="-40"/>
    </contour>
    <component base="E"/>
  </outline>
</glyph>
<glyph name="eogonek" format="1">
  <advance width="440"/>
  <unicode hex="0119"/>
  <outline>
    <contour>
      <point x="310" y="-160" type="curve" smooth="yes"/>
      <point x="335" y="-160"/>
      <point x="362" y="-155"/>
      <point x="377" y="-150" type="curve"/>
      <point x="385" y="-165" type="line"/>
      <point x="360" y="-195"/>
      <point x="315" y="-220"/>
      <point x="260" y="-220" type="curve" smooth="yes"/>
      <point x="195" y="-220"/>
      <point x="160" y="-190"/>
      <point x="160" y="-135" type="curve" smooth="yes"/>
      <point x="160" y="-90"/>
      <point x="203" y="-30"/>
      <point x="238" y="-10" type="curve"/>
      <point x="400" y="65" type="line"/>
      <point x="320" y="10"/>
      <point x="240" y="-20"/>
      <point x="240" y="-95" type="curve" smooth="yes"/>
      <point x="240" y="-135"/>
      <point x="265" y="-160"/>
    </contour>
    <contour>
      <point x="232" y="460" type="curve" smooth="yes"/>
      <point x="346" y="460"/>
      <point x="400" y="389"/>
      <point x="400" y="287" type="curve"/>
      <point x="398" y="258" type="line"/>
      <point x="129" y="258" type="line"/>
      <point x="129" y="293" type="line"/>
      <point x="237" y="293" type="line"/>
      <point x="307" y="303" type="line"/>
      <point x="307" y="374"/>
      <point x="293" y="417"/>
      <point x="225" y="417" type="curve" smooth="yes"/>
      <point x="156" y="417"/>
      <point x="130" y="343"/>
      <point x="130" y="279" type="curve" smooth="yes"/>
      <point x="130" y="129"/>
      <point x="177" y="54"/>
      <point x="271" y="54" type="curve" smooth="yes"/>
      <point x="314" y="54"/>
      <point x="358" y="75"/>
      <point x="386" y="91" type="curve"/>
      <point x="400" y="65" type="line"/>
      <point x="238" y="-10" type="line" smooth="yes"/>
      <point x="101" y="-10"/>
      <point x="35" y="83"/>
      <point x="35" y="220" type="curve" smooth="yes"/>
      <point x="35" y="357"/>
      <point x="105" y="460"/>
    </contour>
  </outline>
</glyph>
<glyph name="Iogonek" format="1">
  <advance width="330"/>
  <unicode hex="012E"/>
  <outline>
    <contour>
      <point x="200" y="-160" type="curve" smooth="yes"/>
      <point x="225" y="-160"/>
      <point x="252" y="-155"/>
      <point x="267" y="-150" type="curve"/>
      <point x="275" y="-165" type="line"/>
      <point x="250" y="-190"/>
      <point x="205" y="-220"/>
      <point x="150" y="-220" type="curve" smooth="yes"/>
      <point x="85" y="-220"/>
      <point x="50" y="-190"/>
      <point x="50" y="-135" type="curve" smooth="yes"/>
      <point x="50" y="-85"/>
      <point x="95" y="-40"/>
      <point x="145" y="-15" type="curve"/>
      <point x="300" y="0" type="line"/>
      <point x="200" y="-20"/>
      <point x="130" y="-50"/>
      <point x="130" y="-105" type="curve" smooth="yes"/>
      <point x="130" y="-140"/>
      <point x="155" y="-160"/>
    </contour>
    <contour>
      <point x="35" y="650" type="line"/>
      <point x="295" y="650" type="line"/>
      <point x="295" y="628" type="line"/>
      <point x="225" y="603" type="line"/>
      <point x="210" y="523" type="line"/>
      <point x="210" y="127" type="line"/>
      <point x="225" y="47" type="line"/>
      <point x="300" y="22" type="line"/>
      <point x="300" y="0" type="line"/>
      <point x="145" y="-15" type="line"/>
      <point x="100" y="30" type="line"/>
      <point x="120" y="127" type="line"/>
      <point x="120" y="523" type="line"/>
      <point x="105" y="603" type="line"/>
      <point x="35" y="628" type="line"/>
    </contour>
  </outline>
</glyph>
<glyph name="iogonek" format="1">
  <advance width="275"/>
  <unicode hex="012F"/>
  <outline>
    <contour>
      <point x="175" y="-160" type="curve" smooth="yes"/>
      <point x="200" y="-160"/>
      <point x="227" y="-155"/>
      <point x="242" y="-150" type="curve"/>
      <point x="250" y="-165" type="line"/>
      <point x="225" y="-190"/>
      <point x="180" y="-220"/>
      <point x="125" y="-220" type="curve" smooth="yes"/>
      <point x="60" y="-220"/>
      <point x="25" y="-190"/>
      <point x="25" y="-135" type="curve" smooth="yes"/>
      <point x="25" y="-85"/>
      <point x="70" y="-40"/>
      <point x="120" y="-15" type="curve"/>
      <point x="260" y="0" type="line"/>
      <point x="160" y="-20"/>
      <point x="105" y="-50"/>
      <point x="105" y="-105" type="curve" smooth="yes"/>
      <point x="105" y="-140"/>
      <point x="130" y="-160"/>
    </contour>
    <contour>
      <point x="120" y="-15" type="line"/>
      <point x="85" y="30" type="line"/>
      <point x="100" y="115" type="line"/>
      <point x="100" y="330" type="line"/>
      <point x="85" y="400" type="line"/>
      <point x="30" y="425" type="line"/>
      <point x="30" y="445" type="line"/>
      <point x="195" y="455" type="line"/>
      <point x="185" y="335" type="line"/>
      <point x="185" y="115" type="line"/>
      <point x="200" y="45" type="line"/>
      <point x="260" y="20" type="line"/>
      <point x="260" y="0" type="line"/>
    </contour>
    <contour>
      <point x="70" y="620" type="curve" smooth="yes"/>
      <point x="70" y="655"/>
      <point x="95" y="680"/>
      <point x="130" y="680" type="curve" smooth="yes"/>
      <point x="165" y="680"/>
      <point x="190" y="655"/>
      <point x="190" y="620" type="curve" smooth="yes"/>
      <point x="190" y="585"/>
      <point x="165" y="560"/>
      <point x="130" y="560" type="curve" smooth="yes"/>
      <point x="95" y="560"/>
      <point x="70" y="585"/>
    </contour>
  </outline>
</glyph>
<glyph name="dotlessi" format="1">
  <advance width="275"/>
  <unicode hex="0131"/>
  <outline>
    <contour>
      <point x="142" y="0" type="move" name="bottom"/>
    </contour>
    <contour>
      <point x="135" y="450" type="move" name="top"/>
    </contour>
    <contour>
      <point x="195" y="455" type="line"/>
      <point x="185" y="335" type="line"/>
      <point x="185" y="115" type="line"/>
      <point x="200" y="45" type="line"/>
      <point x="260" y="20" type="line"/>
      <point x="260" y="0" type="line"/>
      <point x="20" y="0" type="line"/>
      <point x="20" y="20" type="line"/>
      <point x="85" y="45" type="line"/>
      <point x="100" y="115" type="line"/>
      <point x="100" y="330" type="line"/>
      <point x="85" y="400" type="line"/>
      <point x="30" y="425" type="line"/>
      <point x="30" y="445" type="line"/>
    </contour>
  </outline>
</glyph>
<glyph name="Lslash" format="1">
  <advance width="540"/>
  <unicode hex="0141"/>
  <outline>
    <contour>
      <point x="30" y="275" type="line"/>
      <point x="163" y="345" type="line"/>
      <point x="345" y="460" type="line"/>
      <point x="370" y="415" type="line"/>
      <point x="177" y="311" type="line"/>
      <point x="55" y="231" type="line"/>
    </contour>
    <component base="L"/>
  </outline>
</glyph>
<glyph name="lslash" format="1">
  <advance width="310"/>
  <unicode hex="0142"/>
  <outline>
    <contour>
      <point x="15" y="310" type="line"/>
      <point x="148" y="380" type="line"/>
      <point x="270" y="460" type="line"/>
      <point x="295" y="416" type="line"/>
      <point x="162" y="346" type="line"/>
      <point x="40" y="266" type="line"/>
    </contour>
    <component base="l" xOffset="15"/>
  </outline>
</glyph>
<glyph name="OE" format="1">
  <advance width="900"/>
  <unicode hex="0152"/>
  <outline>
    <contour>
      <point x="350" y="650" type="move" name="top"/>
    </contour>
    <contour>
      <point x="500" y="0" type="move" name="bottom"/>
    </contour>
    <contour>
      <point x="535" y="350" type="line"/>
      <point x="610" y="350" type="line"/>
      <point x="690" y="360" type="line"/>
      <point x="705" y="440" type="line"/>
      <point x="737" y="440" type="line"/>
      <point x="737" y="220" type="line"/>
      <point x="705" y="220" type="line"/>
      <point x="690" y="300" type="line"/>
      <point x="610" y="310" type="line"/>
      <point x="535" y="310" type="line"/>
    </contour>
    <contour>
      <point x="345" y="610" type="line" smooth="yes"/>
      <point x="215" y="610"/>
      <point x="150" y="497"/>
      <point x="150" y="332" type="curve" smooth="yes"/>
      <point x="150" y="152"/>
      <point x="225" y="40"/>
      <point x="375" y="40" type="curve" smooth="yes"/>
      <point x="445" y="40" type="line"/>
      <point x="445" y="610" type="line"/>
    </contour>
    <contour>
      <point x="350" y="650" type="curve" smooth="yes"/>
      <point x="828" y="650" type="line"/>
      <point x="835" y="506" type="line"/>
      <point x="795" y="502" type="line"/>
      <point x="772" y="595" type="line"/>
      <point x="692" y="610" type="line"/>
      <point x="535" y="610" type="line"/>
      <point x="535" y="55" type="line"/>
      <point x="615" y="40" type="line"/>
      <point x="712" y="40" type="line"/>
      <point x="792" y="55" type="line"/>
      <point x="817" y="148" type="line"/>
      <point x="858" y="143" type="line"/>
      <point x="848" y="0" type="line"/>
      <point x="360" y="0" type="line" smooth="yes"/>
      <point x="150" y="0"/>
      <point x="45" y="120"/>
      <point x="45" y="320" type="curve" smooth="yes"/>
      <point x="45" y="520"/>
      <point x="175" y="650"/>
    </contour>
  </outline>
</glyph>
<glyph name="oe" format="1">
  <advance width="770"/>
  <unicode hex="0153"/>
  <outline>
    <contour>
      <point x="415" y="450" type="move" name="top"/>
    </contour>
    <contour>
      <point x="411" y="0" type="move" name="bottom"/>
    </contour>
    <contour>
      <point x="562" y="460" type="curve" smooth="yes"/>
      <point x="676" y="460"/>
      <point x="730" y="389"/>
      <point x="730" y="287" type="curve"/>
      <point x="728" y="258" type="line"/>
      <point x="464" y="258" type="line"/>
      <point x="464" y="293" type="line"/>
      <point x="567" y="293" type="line"/>
      <point x="637" y="303" type="line"/>
      <point x="637" y="374"/>
      <point x="623" y="417"/>
      <point x="555" y="417" type="curve" smooth="yes"/>
      <point x="486" y="417"/>
      <point x="465" y="343"/>
      <point x="465" y="279" type="curve" smooth="yes"/>
      <point x="465" y="129"/>
      <point x="507" y="54"/>
      <point x="601" y="54" type="curve" smooth="yes"/>
      <point x="639" y="54"/>
      <point x="693" y="65"/>
      <point x="721" y="91" type="curve"/>
      <point x="735" y="78" type="line"/>
      <point x="696" y="21"/>
      <point x="644" y="-10"/>
      <point x="568" y="-10" type="curve" smooth="yes"/>
      <point x="441" y="-10"/>
      <point x="380" y="83"/>
      <point x="380" y="220" type="curve" smooth="yes"/>
      <point x="380" y="357"/>
      <point x="440" y="460"/>
    </contour>
    <contour>
      <point x="240" y="415" type="curve" smooth="yes"/>
      <point x="166" y="415"/>
      <point x="135" y="343"/>
      <point x="135" y="232" type="curve" smooth="yes"/>
      <point x="135" y="111"/>
      <point x="173" y="35"/>
      <point x="260" y="35" type="curve" smooth="yes"/>
      <point x="334" y="35"/>
      <point x="365" y="109"/>
      <point x="365" y="220" type="curve" smooth="yes"/>
      <point x="365" y="341"/>
      <point x="327" y="415"/>
    </contour>
    <contour>
      <point x="253" y="-10" type="curve" smooth="yes"/>
      <point x="110" y="-10"/>
      <point x="35" y="83"/>
      <point x="35" y="220" type="curve" smooth="yes"/>
      <point x="35" y="357"/>
      <point x="120" y="460"/>
      <point x="247" y="460" type="curve" smooth="yes"/>
      <point x="390" y="460"/>
      <point x="460" y="367"/>
      <point x="460" y="230" type="curve" smooth="yes"/>
      <point x="460" y="93"/>
      <point x="380" y="-10"/>
    </contour>
  </outline>
</glyph>
<glyph name="Uogonek" format="1">
  <advance width="690"/>
  <unicode hex="0172"/>
  <outline>
    <contour>
      <point x="410" y="-160" type="curve" smooth="yes"/>
      <point x="435" y="-160"/>
      <point x="462" y="-155"/>
      <point x="477" y="-150" type="curve"/>
      <point x="485" y="-165" type="line"/>
      <point x="460" y="-195"/>
      <point x="415" y="-220"/>
      <point x="360" y="-220" type="curve" smooth="yes"/>
      <point x="295" y="-220"/>
      <point x="260" y="-190"/>
      <point x="260" y="-135" type="curve" smooth="yes"/>
      <point x="260" y="-90"/>
      <point x="310" y="-20"/>
      <point x="385" y="20" type="curve"/>
      <point x="400" y="0" type="line"/>
      <point x="380" y="-15"/>
      <point x="340" y="-50"/>
      <point x="340" y="-95" type="curve" smooth="yes"/>
      <point x="340" y="-135"/>
      <point x="365" y="-160"/>
    </contour>
    <component base="U"/>
  </outline>
</glyph>
<glyph name="uogonek" format="1">
  <advance width="545"/>
  <unicode hex="0173"/>
  <outline>
    <contour>
      <point x="400" y="-160" type="curve" smooth="yes"/>
      <point x="425" y="-160"/>
      <point x="452" y="-155"/>
      <point x="467" y="-150" type="curve"/>
      <point x="475" y="-165" type="line"/>
      <point x="450" y="-190"/>
      <point x="405" y="-220"/>
      <point x="350" y="-220" type="curve" smooth="yes"/>
      <point x="285" y="-220"/>
      <point x="250" y="-190"/>
      <point x="250" y="-135" type="curve" smooth="yes"/>
      <point x="250" y="-85"/>
      <point x="312" y="-35"/>
      <point x="362" y="-10" type="curve"/>
      <point x="530" y="25" type="line"/>
      <point x="410" y="-5"/>
      <point x="330" y="-50"/>
      <point x="330" y="-105" type="curve" smooth="yes"/>
      <point x="330" y="-140"/>
      <point x="355" y="-160"/>
    </contour>
    <component base="u"/>
  </outline>
</glyph>
<glyph name="longs" format="1">
  <advance width="310"/>
  <unicode hex="017F"/>
  <outline>
    <contour>
      <point x="237" y="610" type="curve" smooth="yes"/>
      <point x="189" y="610"/>
      <point x="162" y="593"/>
      <point x="162" y="561" type="curve" smooth="yes"/>
      <point x="162" y="526"/>
      <point x="170" y="493"/>
      <point x="170" y="450" type="curve" smooth="yes"/>
      <point x="170" y="115" type="line"/>
      <point x="185" y="45" type="line"/>
      <point x="265" y="20" type="line"/>
      <point x="265" y="0" type="line"/>
      <point x="10" y="0" type="line"/>
      <point x="10" y="20" type="line"/>
      <point x="70" y="45" type="line"/>
      <point x="85" y="115" type="line"/>
      <point x="85" y="460" type="line" smooth="yes"/>
      <point x="85" y="565"/>
      <point x="145" y="690"/>
      <point x="272" y="690" type="curve" smooth="yes"/>
      <point x="303" y="690"/>
      <point x="320" y="686"/>
      <point x="340" y="678" type="curve"/>
      <point x="316" y="589" type="line"/>
      <point x="295" y="601"/>
      <point x="272" y="610"/>
    </contour>
  </outline>
</glyph>
<glyph name="florin" format="1">
  <advance width="330"/>
  <unicode hex="0192"/>
  <outline>
    <contour>
      <point x="180" y="10" type="line" smooth="yes"/>
      <point x="180" y="-95"/>
      <point x="120" y="-220"/>
      <point x="-7" y="-220" type="curve" smooth="yes"/>
      <point x="-38" y="-220"/>
      <point x="-55" y="-216"/>
      <point x="-75" y="-208" type="curve"/>
      <point x="-51" y="-119" type="line"/>
      <point x="-30" y="-131"/>
      <point x="-7" y="-140"/>
      <point x="28" y="-140" type="curve" smooth="yes"/>
      <point x="76" y="-140"/>
      <point x="103" y="-123"/>
      <point x="103" y="-91" type="curve" smooth="yes"/>
      <point x="103" y="-56"/>
      <point x="95" y="-23"/>
      <point x="95" y="20" type="curve" smooth="yes"/>
      <point x="95" y="460" type="line" smooth="yes"/>
      <point x="95" y="565"/>
      <point x="155" y="690"/>
      <point x="282" y="690" type="curve" smooth="yes"/>
      <point x="313" y="690"/>
      <point x="330" y="686"/>
      <point x="350" y="678" type="curve"/>
      <point x="326" y="589" type="line"/>
      <point x="305" y="601"/>
      <point x="282" y="610"/>
      <point x="247" y="610" type="curve" smooth="yes"/>
      <point x="199" y="610"/>
      <point x="172" y="593"/>
      <point x="172" y="561" type="curve" smooth="yes"/>
      <point x="172" y="526"/>
      <point x="180" y="493"/>
      <point x="180" y="450" type="curve" smooth="yes"/>
    </contour>
    <contour>
      <point x="300" y="450" type="line"/>
      <point x="300" y="400" type="line"/>
      <point x="10" y="400" type="line"/>
      <point x="10" y="415" type="line"/>
      <point x="50" y="450" type="line"/>
    </contour>
  </outline>
</glyph>
<glyph name="gravecomb" format="1">
  <advance width="0"/>
  <unicode hex="0300"/>
  <outline>
    <contour>
      <point x="-205" y="450" type="move" name="_top"/>
    </contour>
    <contour>
      <point x="-330" y="700" type="line"/>
      <point x="-105" y="570" type="line"/>
      <point x="-120" y="535" type="line"/>
      <point x="-360" y="620" type="line"/>
    </contour>
  </outline>
</glyph>
<glyph name="acutecomb" format="1">
  <advance width="0"/>
  <unicode hex="0301"/>
  <outline>
    <contour>
      <point x="-250" y="450" type="move" name="_top"/>
    </contour>
    <contour>
      <point x="-130" y="700" type="line"/>
      <point x="-100" y="620" type="line"/>
      <point x="-340" y="535" type="line"/>
      <point x="-355" y="570" type="line"/>
    </contour>
  </outline>
</glyph>
<glyph name="uni0302" format="1">
  <advance width="0"/>
  <unicode hex="0302"/>
  <outline>
    <contour>
      <point x="-240" y="450" type="move" name="_top"/>
    </contour>
    <contour>
      <point x="-240" y="700" type="line"/>
      <point x="-80" y="560" type="line"/>
      <point x="-105" y="530" type="line"/>
      <point x="-240" y="605" type="line"/>
      <point x="-375" y="530" type="line"/>
      <point x="-400" y="560" type="line"/>
    </contour>
  </outline>
</glyph>
<glyph name="tildecomb" format="1">
  <advance width="0"/>
  <unicode hex="0303"/>
  <outline>
    <contour>
      <point x="-290" y="450" type="move" name="_top"/>
    </contour>
    <contour>
      <point x="-345" y="680" type="curve" smooth="yes"/>
      <point x="-290" y="680"/>
      <point x="-260" y="635"/>
      <point x="-210" y="635" type="curve" smooth="yes"/>
      <point x="-185" y="635"/>
      <point x="-155" y="640"/>
      <point x="-120" y="670" type="curve"/>
      <point x="-100" y="645" type="line"/>
      <point x="-165" y="580"/>
      <point x="-205" y="565"/>
      <point x="-240" y="565" type="curve" smooth="yes"/>
      <point x="-295" y="565"/>
      <point x="-325" y="610"/>
      <point x="-375" y="610" type="curve" smooth="yes"/>
      <point x="-400" y="610"/>
      <point x="-430" y="605"/>
      <point x="-465" y="575" type="curve"/>
      <point x="-485" y="600" type="line"/>
      <point x="-420" y="665"/>
      <point x="-380" y="680"/>
    </contour>
  </outline>
</glyph>
<glyph name="uni0304" format="1">
  <advance width="0"/>
  <unicode hex="0304"/>
  <outline>
    <contour>
      <point x="-215" y="450" type="move" name="_top"/>
    </contour>
    <contour>
      <point x="-360" y="650" type="line"/>
      <point x="-80" y="650" type="line"/>
      <point x="-80" y="595" type="line"/>
      <point x="-360" y="595" type="line"/>
    </contour>
  </outline>
</glyph>
<glyph name="brevecomb" format="1">
  <advance width="0"/>
  <unicode hex="0306"/>
  <outline>
    <contour>
      <point x="-240" y="450" type="move" name="_top"/>
    </contour>
    <contour>
      <point x="-344" y="690" type="line"/>
      <point x="-334" y="650"/>
      <point x="-300" y="615"/>
      <point x="-240" y="615" type="curve" smooth="yes"/>
      <point x="-181" y="615"/>
      <point x="-146" y="650"/>
      <point x="-136" y="690" type="curve"/>
      <point x="-105" y="680" type="line"/>
      <point x="-110" y="615"/>
      <point x="-156" y="550"/>
      <point x="-240" y="550" type="curve" smooth="yes"/>
      <point x="-325" y="550"/>
      <point x="-370" y="615"/>
      <point x="-375" y="680" type="curve"/>
    </contour>
  </outline>
</glyph>
<glyph name="dotcomb" format="1">
  <advance width="0"/>
  <unicode hex="0307"/>
  <outline>
    <contour>
      <point x="-195" y="450" type="move" name="_top"/>
    </contour>
    <contour>
      <point x="-255" y="620" type="curve" smooth="yes"/>
      <point x="-255" y="655"/>
      <point x="-230" y="680"/>
      <point x="-195" y="680" type="curve" smooth="yes"/>
      <point x="-160" y="680"/>
      <point x="-135" y="655"/>
      <point x="-135" y="620" type="curve" smooth="yes"/>
      <point x="-135" y="585"/>
      <point x="-160" y="560"/>
      <point x="-195" y="560" type="curve" smooth="yes"/>
      <point x="-230" y="560"/>
      <point x="-255" y="585"/>
    </contour>
  </outline>
</glyph>
<glyph name="diaeresiscomb" format="1">
  <advance width="0"/>
  <unicode hex="0308"/>
  <outline>
    <contour>
      <point x="-195" y="450" type="move" name="_top"/>
    </contour>
    <contour>
      <point x="-155" y="620" type="curve" smooth="yes"/>
      <point x="-155" y="655"/>
      <point x="-130" y="680"/>
      <point x="-95" y="680" type="curve" smooth="yes"/>
      <point x="-60" y="680"/>
      <point x="-35" y="655"/>
      <point x="-35" y="620" type="curve" smooth="yes"/>
      <point x="-35" y="585"/>
      <point x="-60" y="560"/>
      <point x="-95" y="560" type="curve" smooth="yes"/>
      <point x="-130" y="560"/>
      <point x="-155" y="585"/>
    </contour>
    <contour>
      <point x="-360" y="620" type="curve" smooth="yes"/>
      <point x="-360" y="655"/>
      <point x="-335" y="680"/>
      <point x="-300" y="680" type="curve" smooth="yes"/>
      <point x="-265" y="680"/>
      <point x="-240" y="655"/>
      <point x="-240" y="620" type="curve" smooth="yes"/>
      <point x="-240" y="585"/>
      <point x="-265" y="560"/>
      <point x="-300" y="560" type="curve" smooth="yes"/>
      <point x="-335" y="560"/>
      <point x="-360" y="585"/>
    </contour>
  </outline>
</glyph>
<glyph name="ringcomb" format="1">
  <advance width="0"/>
  <unicode hex="030A"/>
  <outline>
    <contour>
      <point x="-180" y="450" type="move" name="_top"/>
    </contour>
    <contour>
      <point x="-180" y="715" type="curve" smooth="yes"/>
      <point x="-215" y="715"/>
      <point x="-240" y="690"/>
      <point x="-240" y="640" type="curve" smooth="yes"/>
      <point x="-240" y="585"/>
      <point x="-215" y="555"/>
      <point x="-180" y="555" type="curve" smooth="yes"/>
      <point x="-145" y="555"/>
      <point x="-120" y="580"/>
      <point x="-120" y="630" type="curve" smooth="yes"/>
      <point x="-120" y="685"/>
      <point x="-145" y="715"/>
    </contour>
    <contour>
      <point x="-180" y="520" type="curve" smooth="yes"/>
      <point x="-255" y="520"/>
      <point x="-300" y="565"/>
      <point x="-300" y="635" type="curve" smooth="yes"/>
      <point x="-300" y="700"/>
      <point x="-250" y="750"/>
      <point x="-180" y="750" type="curve" smooth="yes"/>
      <point x="-105" y="750"/>
      <point x="-60" y="705"/>
      <point x="-60" y="635" type="curve" smooth="yes"/>
      <point x="-60" y="570"/>
      <point x="-110" y="520"/>
    </contour>
  </outline>
</glyph>
<glyph name="doubleacutecomb" format="1">
  <advance width="0"/>
  <unicode hex="030B"/>
  <outline>
    <contour>
      <point x="-250" y="450" type="move" name="_top"/>
    </contour>
    <contour>
      <point x="-135" y="730" type="line"/>
      <point x="-65" y="690" type="line"/>
      <point x="-195" y="500" type="line"/>
      <point x="-230" y="515" type="line"/>
    </contour>
    <contour>
      <point x="-290" y="730" type="line"/>
      <point x="-215" y="695" type="line"/>
      <point x="-325" y="500" type="line"/>
      <point x="-360" y="515" type="line"/>
    </contour>
  </outline>
</glyph>
<glyph name="caroncomb" format="1">
  <advance width="0"/>
  <unicode hex="030C"/>
  <outline>
    <contour>
      <point x="-240" y="450" type="move" name="_top"/>
    </contour>
    <component base="circumflexcomb" xScale="-1" yScale="-1" xOffset="-480" yOffset="1230"/>
  </outline>
</glyph>
<glyph name="highcommacomb" format="1">
  <advance width="0"/>
  <unicode hex="0315"/>
  <outline>
    <contour>
      <point x="0" y="670" type="move" name="_top"/>
    </contour>
    <contour>
      <point x="155" y="680" type="line"/>
      <point x="240" y="650" type="line"/>
      <point x="155" y="495" type="line"/>
      <point x="120" y="505" type="line"/>
    </contour>
  </outline>
</glyph>
<glyph name="commacomb" format="1">
  <advance width="0"/>
  <unicode hex="0326"/>
  <outline>
    <contour>
      <point x="-165" y="0" type="move" name="_bottom"/>
    </contour>
    <contour>
      <point x="-185" y="-50" type="line"/>
      <point x="-100" y="-85" type="line"/>
      <point x="-210" y="-230" type="line"/>
      <point x="-245" y="-215" type="line"/>
    </contour>
  </outline>
</glyph>
<glyph name="uni0327" format="1">
  <advance width="0"/>
  <unicode hex="0327"/>
  <outline>
    <contour>
      <point x="-165" y="0" type="move" name="_bottom"/>
    </contour>
    <contour>
      <point x="-165" y="16" type="line"/>
      <point x="-146" y="0" type="line"/>
      <point x="-185" y="-55" type="line"/>
      <point x="-115" y="-65"/>
      <point x="-90" y="-90"/>
      <point x="-90" y="-130" type="curve" smooth="yes"/>
      <point x="-90" y="-180"/>
      <point x="-160" y="-225"/>
      <point x="-230" y="-230" type="curve"/>
      <point x="-235" y="-205" type="line"/>
      <point x="-185" y="-200"/>
      <point x="-160" y="-170"/>
      <point x="-160" y="-150" type="curve" smooth="yes"/>
      <point x="-160" y="-125"/>
      <point x="-170" y="-110"/>
      <point x="-225" y="-100" type="curve"/>
      <point x="-250" y="-95" type="line"/>
    </contour>
  </outline>
</glyph>
<glyph name="ogonekcomb" format="1">
  <advance width="0"/>
  <unicode hex="0328"/>
  <outline>
    <contour>
      <point x="-165" y="0" type="move" name="_bottom"/>
    </contour>
    <contour>
      <point x="-130" y="-160" type="curve" smooth="yes"/>
      <point x="-105" y="-160"/>
      <point x="-78" y="-155"/>
      <point x="-63" y="-150" type="curve"/>
      <point x="-55" y="-165" type="line"/>
      <point x="-80" y="-195"/>
      <point x="-125" y="-220"/>
      <point x="-180" y="-220" type="curve" smooth="yes"/>
      <point x="-245" y="-220"/>
      <point x="-280" y="-190"/>
      <point x="-280" y="-135" type="curve" smooth="yes"/>
      <point x="-280" y="-90"/>
      <point x="-230" y="-20"/>
      <point x="-155" y="20" type="curve"/>
      <point x="-140" y="0" type="line"/>
      <point x="-160" y="-15"/>
      <point x="-200" y="-50"/>
      <point x="-200" y="-95" type="curve" smooth="yes"/>
      <point x="-200" y="-135"/>
      <point x="-175" y="-160"/>
    </contour>
  </outline>
</glyph>
<glyph name="uni200C" format="1">
  <advance width="0"/>
  <unicode hex="200C"/>
  <outline>
    <contour>
      <point x="-12" y="-286" type="line"/>
      <point x="-38" y="-286" type="line"/>
      <point x="-38" y="742" type="line"/>
      <point x="-12" y="742" type="line"/>
    </contour>
  </outline>
</glyph>
<glyph name="uni200D" format="1">
  <advance width="0"/>
  <unicode hex="200D"/>
  <outline>
    <contour>
      <point x="-31" y="605" type="line"/>
      <point x="-56" y="630" type="line"/>
      <point x="-56" y="-252" type="line"/>
      <point x="-83" y="-252" type="line"/>
      <point x="-83" y="630" type="line"/>
      <point x="-107" y="605" type="line"/>
      <point x="-126" y="624" type="line"/>
      <point x="-88" y="662" type="line"/>
      <point x="-126" y="701" type="line"/>
      <point x="-107" y="719" type="line"/>
      <point x="-69" y="681" type="line"/>
      <point x="-31" y="719" type="line"/>
      <point x="-13" y="701" type="line"/>
      <point x="-51" y="662" type="line"/>
      <point x="-13" y="624" type="line"/>
    </contour>
  </outline>
</glyph>
<glyph name="figuredash" format="1">
  <advance width="520"/>
  <unicode hex="2012"/>
  <outline>
    <contour>
      <point x="0" y="275" type="line"/>
      <point x="520" y="275" type="line"/>
      <point x="520" y="225" type="line"/>
      <point x="0" y="225" type="line"/>
    </contour>
  </outline>
</glyph>
<glyph name="quoteright" format="1">
  <advance width="240"/>
  <unicode hex="2019"/>
  <outline>
    <contour>
      <point x="50" y="616" type="curve" smooth="yes"/>
      <point x="50" y="651"/>
      <point x="75" y="680"/>
      <point x="115" y="680" type="curve" smooth="yes"/>
      <point x="155" y="680"/>
      <point x="185" y="648"/>
      <point x="185" y="599" type="curve" smooth="yes"/>
      <point x="185" y="515"/>
      <point x="134" y="461"/>
      <point x="76" y="431" type="curve"/>
      <point x="56" y="466" type="line"/>
      <point x="89" y="482"/>
      <point x="122" y="508"/>
      <point x="115" y="560" type="curve"/>
      <point x="75" y="560"/>
      <point x="50" y="584"/>
    </contour>
  </outline>
</glyph>
<glyph name="dagger" format="1">
  <advance width="600"/>
  <unicode hex="2020"/>
  <outline>
    <contour>
      <point x="100" y="425" type="line"/>
      <point x="100" y="475" type="line"/>
      <point x="500" y="475" type="line"/>
      <point x="500" y="425" type="line"/>
    </contour>
    <contour>
      <point x="275" y="650" type="line"/>
      <point x="325" y="650" type="line"/>
      <point x="325" y="0" type="line"/>
      <point x="275" y="0" type="line"/>
    </contour>
  </outline>
</glyph>
<glyph name="daggerdbl" format="1">
  <advance width="600"/>
  <unicode hex="2021"/>
  <outline>
    <contour>
      <point x="100" y="175" type="line"/>
      <point x="100" y="225" type="line"/>
      <point x="500" y="225" type="line"/>
      <point x="500" y="175" type="line"/>
    </contour>
    <contour>
      <point x="100" y="425" type="line"/>
      <point x="100" y="475" type="line"/>
      <point x="500" y="475" type="line"/>
      <point x="500" y="425" type="line"/>
    </contour>
    <contour>
      <point x="275" y="650" type="line"/>
      <point x="325" y="650" type="line"/>
      <point x="325" y="0" type="line"/>
      <point x="275" y="0" type="line"/>
    </contour>
  </outline>
</glyph>
<glyph name="bullet" format="1">
  <advance width="300"/>
  <unicode hex="2022"/>
  <outline>
    <contour>
      <point x="50" y="250" type="curve" smooth="yes"/>
      <point x="50" y="305"/>
      <point x="95" y="350"/>
      <point x="150" y="350" type="curve" smooth="yes"/>
      <point x="205" y="350"/>
      <point x="250" y="305"/>
      <point x="250" y="250" type="curve" smooth="yes"/>
      <point x="250" y="195"/>
      <point x="205" y="150"/>
      <point x="150" y="150" type="curve" smooth="yes"/>
      <point x="95" y="150"/>
      <point x="50" y="195"/>
    </contour>
  </outline>
</glyph>
<glyph name="perthousand" format="1">
  <advance width="1300"/>
  <unicode hex="2030"/>
  <outline>
    <contour>
      <point x="1080" y="315" type="curve" smooth="yes"/>
      <point x="1020" y="315"/>
      <point x="985" y="265"/>
      <point x="985" y="180" type="curve" smooth="yes"/>
      <point x="985" y="90"/>
      <point x="1020" y="35"/>
      <point x="1085" y="35" type="curve" smooth="yes"/>
      <point x="1145" y="35"/>
      <point x="1180" y="85"/>
      <point x="1180" y="170" type="curve" smooth="yes"/>
      <point x="1180" y="260"/>
      <point x="1145" y="315"/>
    </contour>
    <contour>
      <point x="1085" y="-10" type="curve" smooth="yes"/>
      <point x="975" y="-10"/>
      <point x="915" y="60"/>
      <point x="915" y="170" type="curve" smooth="yes"/>
      <point x="915" y="280"/>
      <point x="980" y="360"/>
      <point x="1080" y="360" type="curve" smooth="yes"/>
      <point x="1190" y="360"/>
      <point x="1250" y="290"/>
      <point x="1250" y="180" type="curve" smooth="yes"/>
      <point x="1250" y="70"/>
      <point x="1185" y="-10"/>
    </contour>
    <component base="percent"/>
  </outline>
</glyph>
<glyph name="guilsinglleft" format="1">
  <advance width="310"/>
  <unicode hex="2039"/>
  <outline>
    <contour>
      <point x="55" y="245" type="line"/>
      <point x="225" y="425" type="line"/>
      <point x="255" y="400" type="line"/>
      <point x="170" y="255" type="line"/>
      <point x="255" y="100" type="line"/>
      <point x="225" y="75" type="line"/>
    </contour>
  </outline>
</glyph>
<glyph name="Euro" format="1">
  <advance width="520"/>
  <unicode hex="20AC"/>
  <outline>
    <contour>
      <point x="350" y="275" type="line"/>
      <point x="350" y="225" type="line"/>
      <point x="0" y="225" type="line"/>
      <point x="0" y="240" type="line"/>
      <point x="40" y="275" type="line"/>
    </contour>
    <contour>
      <point x="350" y="400" type="line"/>
      <point x="350" y="350" type="line"/>
      <point x="0" y="350" type="line"/>
      <point x="0" y="365" type="line"/>
      <point x="40" y="400" type="line"/>
    </contour>
    <contour>
      <point x="335" y="37" type="curve" smooth="yes"/>
      <point x="375" y="37"/>
      <point x="390" y="40"/>
      <point x="425" y="55" type="curve"/>
      <point x="439" y="145" type="line"/>
      <point x="485" y="140" type="line"/>
      <point x="475" y="10" type="line"/>
      <point x="425" y="-5"/>
      <point x="395" y="-10"/>
      <point x="335" y="-10" type="curve" smooth="yes"/>
      <point x="145" y="-10"/>
      <point x="60" y="110"/>
      <point x="60" y="310" type="curve" smooth="yes"/>
      <point x="60" y="510"/>
      <point x="155" y="640"/>
      <point x="325" y="640" type="curve" smooth="yes"/>
      <point x="385" y="640"/>
      <point x="420" y="635"/>
      <point x="470" y="620" type="curve"/>
      <point x="475" y="490" type="line"/>
      <point x="430" y="487" type="line"/>
      <point x="415" y="570" type="line"/>
      <point x="385" y="585"/>
      <point x="370" y="593"/>
      <point x="310" y="593" type="curve" smooth="yes"/>
      <point x="200" y="593"/>
      <point x="160" y="487"/>
      <point x="160" y="322" type="curve" smooth="yes"/>
      <point x="160" y="142"/>
      <point x="205" y="37"/>
    </contour>
  </outline>
</glyph>
<glyph name="trademark" format="1">
  <advance width="1000"/>
  <unicode hex="2122"/>
  <outline>
    <contour>
      <point x="425" y="650" type="line"/>
      <point x="610" y="650" type="line"/>
      <point x="635" y="550" type="line"/>
      <point x="683" y="415" type="line"/>
      <point x="730" y="550" type="line"/>
      <point x="755" y="650" type="line"/>
      <point x="935" y="650" type="line"/>
      <point x="935" y="630" type="line"/>
      <point x="885" y="610" type="line"/>
      <point x="870" y="550" type="line"/>
      <point x="870" y="400" type="line"/>
      <point x="885" y="340" type="line"/>
      <point x="940" y="320" type="line"/>
      <point x="940" y="300" type="line"/>
      <point x="740" y="300" type="line"/>
      <point x="740" y="320" type="line"/>
      <point x="780" y="340" type="line"/>
      <point x="795" y="400" type="line"/>
      <point x="800" y="605" type="line"/>
      <point x="727" y="410" type="line"/>
      <point x="692" y="300" type="line"/>
      <point x="645" y="300" type="line"/>
      <point x="608" y="410" type="line"/>
      <point x="540" y="590" type="line"/>
      <point x="540" y="400" type="line"/>
      <point x="555" y="340" type="line"/>
      <point x="590" y="320" type="line"/>
      <point x="590" y="300" type="line"/>
      <point x="420" y="300" type="line"/>
      <point x="420" y="320" type="line"/>
      <point x="475" y="340" type="line"/>
      <point x="490" y="400" type="line"/>
      <point x="490" y="550" type="line"/>
      <point x="475" y="610" type="line"/>
      <point x="425" y="630" type="line"/>
    </contour>
    <contour>
      <point x="57" y="650" type="line"/>
      <point x="398" y="650" type="line"/>
      <point x="400" y="525" type="line"/>
      <point x="365" y="520" type="line"/>
      <point x="347" y="595" type="line"/>
      <point x="287" y="610" type="line"/>
      <point x="265" y="610" type="line"/>
      <point x="265" y="400" type="line"/>
      <point x="280" y="340" type="line"/>
      <point x="335" y="320" type="line"/>
      <point x="335" y="300" type="line"/>
      <point x="120" y="300" type="line"/>
      <point x="120" y="320" type="line"/>
      <point x="175" y="340" type="line"/>
      <point x="190" y="400" type="line"/>
      <point x="190" y="610" type="line"/>
      <point x="168" y="610" type="line"/>
      <point x="108" y="595" type="line"/>
      <point x="90" y="520" type="line"/>
      <point x="55" y="525" type="line"/>
    </contour>
  </outline>
</glyph>
<glyph name="minus" format="1">
  <advance width="600"/>
  <unicode hex="2212"/>
  <outline>
    <contour>
      <point x="50" y="275" type="line"/>
      <point x="550" y="275" type="line"/>
      <point x="550" y="225" type="line"/>
      <point x="50" y="225" type="line"/>
    </contour>
  </outline>
</glyph>
<glyph name="integral" format="1">
  <advance width="280"/>
  <unicode hex="222B"/>
  <outline>
    <contour>
      <point x="180" y="40" type="line" smooth="yes"/>
      <point x="180" y="-153"/>
      <point x="104" y="-220"/>
      <point x="21" y="-220" type="curve" smooth="yes"/>
      <point x="-5" y="-220"/>
      <point x="-20" y="-216"/>
      <point x="-40" y="-210" type="curve"/>
      <point x="-19" y="-122" type="line"/>
      <point x="7" y="-131"/>
      <point x="38" y="-137"/>
      <point x="64" y="-137" type="curve" smooth="yes"/>
      <point x="89" y="-137"/>
      <point x="107" y="-124"/>
      <point x="107" y="-90" type="curve" smooth="yes"/>
      <point x="107" y="-60"/>
      <point x="95" y="33"/>
      <point x="95" y="80" type="curve" smooth="yes"/>
      <point x="95" y="530" type="line" smooth="yes"/>
      <point x="95" y="723"/>
      <point x="171" y="790"/>
      <point x="254" y="790" type="curve" smooth="yes"/>
      <point x="280" y="790"/>
      <point x="295" y="786"/>
      <point x="315" y="780" type="curve"/>
      <point x="294" y="692" type="line"/>
      <point x="268" y="701"/>
      <point x="237" y="707"/>
      <point x="211" y="707" type="curve" smooth="yes"/>
      <point x="186" y="707"/>
      <point x="168" y="694"/>
      <point x="168" y="660" type="curve" smooth="yes"/>
      <point x="168" y="630"/>
      <point x="180" y="537"/>
      <point x="180" y="490" type="curve" smooth="yes"/>
    </contour>
  </outline>
</glyph>
<glyph name="approxequal" format="1">
  <advance width="540"/>
  <unicode hex="2248"/>
  <outline>
    <contour>
      <point x="185" y="225" type="curve" smooth="yes"/>
      <point x="250" y="225"/>
      <point x="310" y="150"/>
      <point x="365" y="150" type="curve" smooth="yes"/>
      <point x="400" y="150"/>
      <point x="430" y="180"/>
      <point x="465" y="220" type="curve"/>
      <point x="495" y="190" type="line"/>
      <point x="440" y="125"/>
      <point x="400" y="95"/>
      <point x="355" y="95" type="curve" smooth="yes"/>
      <point x="290" y="95"/>
      <point x="230" y="170"/>
      <point x="175" y="170" type="curve" smooth="yes"/>
      <point x="140" y="170"/>
      <point x="110" y="140"/>
      <point x="75" y="100" type="curve"/>
      <point x="45" y="130" type="line"/>
      <point x="100" y="195"/>
      <point x="140" y="225"/>
    </contour>
    <contour>
      <point x="185" y="405" type="curve" smooth="yes"/>
      <point x="250" y="405"/>
      <point x="310" y="330"/>
      <point x="365" y="330" type="curve" smooth="yes"/>
      <point x="400" y="330"/>
      <point x="430" y="360"/>
      <point x="465" y="400" type="curve"/>
      <point x="495" y="370" type="line"/>
      <point x="440" y="305"/>
      <point x="400" y="275"/>
      <point x="355" y="275" type="curve" smooth="yes"/>
      <point x="290" y="275"/>
      <point x="230" y="350"/>
      <point x="175" y="350" type="curve" smooth="yes"/>
      <point x="140" y="350"/>
      <point x="110" y="320"/>
      <point x="75" y="280" type="curve"/>
      <point x="45" y="310" type="line"/>
      <point x="100" y="375"/>
      <point x="140" y="405"/>
    </contour>
  </outline>
</glyph>
<glyph name="notequal" format="1">
  <advance width="540"/>
  <unicode hex="2260"/>
  <outline>
    <contour>
      <point x="154" y="5" type="line"/>
      <point x="339" y="512" type="line"/>
      <point x="386" y="495" type="line"/>
      <point x="201" y="-12" type="line"/>
    </contour>
    <component base="equal"/>
  </outline>
</glyph>
<glyph name="lessequal" format="1">
  <advance width="500"/>
  <unicode hex="2264"/>
  <outline>
    <contour>
      <point x="100" y="50" type="line"/>
      <point x="400" y="50" type="line"/>
      <point x="400" y="0" type="line"/>
      <point x="100" y="0" type="line"/>
    </contour>
    <component base="less" yOffset="95"/>
  </outline>
</glyph>
<glyph name="greaterequal" format="1">
  <advance width="500"/>
  <unicode hex="2265"/>
  <outline>
    <contour>
      <point x="100" y="50" type="line"/>
      <point x="400" y="50" type="line"/>
      <point x="400" y="0" type="line"/>
      <point x="100" y="0" type="line"/>
    </contour>
    <component base="less" xScale="-1" yScale="-1" xOffset="475" yOffset="595"/>
  </outline>
</glyph>
<glyph name="lozenge" format="1">
  <advance width="500"/>
  <unicode hex="25CA"/>
  <outline>
    <contour>
      <point x="250" y="579" type="line"/>
      <point x="123" y="325" type="line"/>
      <point x="250" y="71" type="line"/>
      <point x="377" y="325" type="line"/>
    </contour>
    <contour>
      <point x="230" y="650" type="line"/>
      <point x="270" y="650" type="line"/>
      <point x="433" y="325" type="line"/>
      <point x="270" y="0" type="line"/>
      <point x="230" y="0" type="line"/>
      <point x="67" y="325" type="line"/>
    </contour>
  </outline>
</glyph>
<glyph name="circle" format="1">
  <advance width="500"/>
  <unicode hex="25CB"/>
  <outline>
    <contour>
      <point x="65" y="225" type="curve" smooth="yes"/>
      <point x="65" y="123"/>
      <point x="148" y="40"/>
      <point x="250" y="40" type="curve" smooth="yes"/>
      <point x="352" y="40"/>
      <point x="435" y="123"/>
      <point x="435" y="225" type="curve" smooth="yes"/>
      <point x="435" y="327"/>
      <point x="352" y="410"/>
      <point x="250" y="410" type="curve" smooth="yes"/>
      <point x="148" y="410"/>
      <point x="65" y="327"/>
    </contour>
    <contour>
      <point x="15" y="225" type="curve" smooth="yes"/>
      <point x="15" y="355"/>
      <point x="120" y="460"/>
      <point x="250" y="460" type="curve" smooth="yes"/>
      <point x="380" y="460"/>
      <point x="485" y="355"/>
      <point x="485" y="225" type="curve" smooth="yes"/>
      <point x="485" y="95"/>
      <point x="380" y="-10"/>
      <point x="250" y="-10" type="curve" smooth="yes"/>
      <point x="120" y="-10"/>
      <point x="15" y="95"/>
    </contour>
  </outline>
</glyph>
<glyph name="uni25CC" format="1">
  <advance width="500"/>
  <unicode hex="25CC"/>
  <outline>
    <contour>
      <point x="203" y="46" type="line"/>
      <point x="218" y="42"/>
      <point x="234" y="40"/>
      <point x="250" y="40" type="curve" smooth="yes"/>
      <point x="266" y="40"/>
      <point x="282" y="42"/>
      <point x="297" y="46" type="curve"/>
      <point x="316" y="-1" type="line"/>
      <point x="295" y="-7"/>
      <point x="273" y="-10"/>
      <point x="250" y="-10" type="curve" smooth="yes"/>
      <point x="227" y="-10"/>
      <point x="205" y="-7"/>
      <point x="184" y="-1" type="curve"/>
    </contour>
    <contour>
      <point x="157" y="65" type="curve"/>
      <point x="137" y="19" type="line"/>
      <point x="97" y="41"/>
      <point x="66" y="72"/>
      <point x="44" y="112" type="curve"/>
      <point x="90" y="132" type="line"/>
      <point x="106" y="105"/>
      <point x="130" y="81"/>
    </contour>
    <contour>
      <point x="71" y="178" type="curve"/>
      <point x="24" y="159" type="line"/>
      <point x="18" y="180"/>
      <point x="15" y="202"/>
      <point x="15" y="225" type="curve" smooth="yes"/>
      <point x="15" y="248"/>
      <point x="18" y="270"/>
      <point x="24" y="291" type="curve"/>
      <point x="71" y="272" type="line"/>
      <point x="67" y="257"/>
      <point x="65" y="241"/>
      <point x="65" y="225" type="curve" smooth="yes"/>
      <point x="65" y="209"/>
      <point x="67" y="193"/>
    </contour>
    <contour>
      <point x="429" y="178" type="line"/>
      <point x="433" y="193"/>
      <point x="435" y="209"/>
      <point x="435" y="225" type="curve" smooth="yes"/>
      <point x="435" y="241"/>
      <point x="433" y="257"/>
      <point x="429" y="272" type="curve"/>
      <point x="476" y="291" type="line"/>
      <point x="482" y="270"/>
      <point x="485" y="248"/>
      <point x="485" y="225" type="curve" smooth="yes"/>
      <point x="485" y="202"/>
      <point x="482" y="180"/>
      <point x="476" y="159" type="curve"/>
    </contour>
    <contour>
      <point x="410" y="132" type="curve"/>
      <point x="456" y="112" type="line"/>
      <point x="434" y="72"/>
      <point x="403" y="41"/>
      <point x="363" y="19" type="curve"/>
      <point x="343" y="65" type="line"/>
      <point x="370" y="81"/>
      <point x="394" y="105"/>
    </contour>
    <contour>
      <point x="297" y="404" type="line"/>
      <point x="282" y="408"/>
      <point x="266" y="410"/>
      <point x="250" y="410" type="curve" smooth="yes"/>
      <point x="234" y="410"/>
      <point x="218" y="408"/>
      <point x="203" y="404" type="curve"/>
      <point x="184" y="451" type="line"/>
      <point x="205" y="457"/>
      <point x="227" y="460"/>
      <point x="250" y="460" type="curve" smooth="yes"/>
      <point x="273" y="460"/>
      <point x="295" y="457"/>
      <point x="316" y="451" type="curve"/>
    </contour>
    <contour>
      <point x="343" y="385" type="curve"/>
      <point x="363" y="431" type="line"/>
      <point x="403" y="409"/>
      <point x="434" y="378"/>
      <point x="456" y="338" type="curve"/>
      <point x="410" y="318" type="line"/>
      <point x="394" y="345"/>
      <point x="370" y="369"/>
    </contour>
    <contour>
      <point x="90" y="318" type="curve"/>
      <point x="44" y="338" type="line"/>
      <point x="66" y="378"/>
      <point x="97" y="409"/>
      <point x="137" y="431" type="curve"/>
      <point x="157" y="385" type="line"/>
      <point x="130" y="369"/>
      <point x="106" y="345"/>
    </contour>
  </outline>
</glyph>
<glyph name=".notdef" format="1">
  <advance width="500"/>
  <outline>
    <contour>
      <point x="311" y="231" type="curve" smooth="yes"/>
      <point x="291" y="231"/>
      <point x="273" y="224"/>
      <point x="258" y="210" type="curve"/>
      <point x="274" y="192" type="line"/>
      <point x="284" y="202"/>
      <point x="295" y="207"/>
      <point x="308" y="207" type="curve" smooth="yes"/>
      <point x="323" y="207"/>
      <point x="333" y="199"/>
      <point x="333" y="185" type="curve" smooth="yes"/>
      <point x="333" y="169"/>
      <point x="322" y="159"/>
      <point x="306" y="159" type="curve" smooth="yes"/>
      <point x="297" y="159" type="line"/>
      <point x="293" y="137" type="line"/>
      <point x="306" y="137" type="line" smooth="yes"/>
      <point x="325" y="137"/>
      <point x="337" y="130"/>
      <point x="337" y="110" type="curve" smooth="yes"/>
      <point x="337" y="92"/>
      <point x="325" y="81"/>
      <point x="307" y="81" type="curve" smooth="yes"/>
      <point x="294" y="81"/>
      <point x="283" y="87"/>
      <point x="272" y="98" type="curve"/>
      <point x="254" y="81" type="line"/>
      <point x="267" y="65"/>
      <point x="286" y="57"/>
      <point x="309" y="57" type="curve" smooth="yes"/>
      <point x="347" y="57"/>
      <point x="370" y="79"/>
      <point x="370" y="108" type="curve" smooth="yes"/>
      <point x="370" y="134"/>
      <point x="353" y="147"/>
      <point x="332" y="149" type="curve"/>
      <point x="352" y="154"/>
      <point x="364" y="168"/>
      <point x="364" y="189" type="curve" smooth="yes"/>
      <point x="364" y="212"/>
      <point x="346" y="231"/>
    </contour>
    <contour>
      <point x="202" y="228" type="line"/>
      <point x="174" y="228" type="line"/>
      <point x="119" y="194" type="line"/>
      <point x="133" y="172" type="line"/>
      <point x="170" y="195" type="line"/>
      <point x="170" y="59" type="line"/>
      <point x="202" y="59" type="line"/>
    </contour>
    <contour>
      <point x="135" y="25" type="line"/>
      <point x="135" y="0" type="line"/>
      <point x="370" y="0" type="line"/>
      <point x="370" y="25" type="line"/>
    </contour>
    <contour>
      <point x="41" y="-160" type="line"/>
      <point x="40" y="740" type="line"/>
      <point x="460" y="740" type="line"/>
      <point x="460" y="-160" type="line"/>
    </contour>
    <contour>
      <point x="126" y="418" type="line"/>
      <point x="162" y="382" type="line"/>
      <point x="250" y="470" type="line"/>
      <point x="338" y="382" type="line"/>
      <point x="374" y="418" type="line"/>
      <point x="286" y="506" type="line"/>
      <point x="374" y="594" type="line"/>
      <point x="338" y="630" type="line"/>
      <point x="250" y="542" type="line"/>
      <point x="162" y="630" type="line"/>
      <point x="126" y="594" type="line"/>
      <point x="214" y="506" type="line"/>
    </contour>
  </outline>
</glyph>
<glyph name="kreska" format="1">
  <advance width="0"/>
  <outline>
    <contour>
      <point x="-250" y="450" type="move" name="_top"/>
    </contour>
    <contour>
      <point x="-227" y="730" type="line"/>
      <point x="-152" y="695" type="line"/>
      <point x="-262" y="500" type="line"/>
      <point x="-297" y="515" type="line"/>
    </contour>
  </outline>
</glyph>
